<svg enable-background="new 0 0 48 48" height="48" viewBox="0 0 48 48" width="48" xmlns="http://www.w3.org/2000/svg"><path d="m18 32c0-7.72 6.28-14 14-14 3.916 0 7.457 1.621 10 4.221v-10.221c0-1.1-.9-2-2-2h-32c-1.1 0-2 .9-2 2v24c0 1.1.9 2 2 2h11.37c-.869-1.822-1.37-3.851-1.37-6z" fill="#fff"/><path d="m8 12h6v2h-6z" fill="#555"/><path d="m8 14h12v4h-12z" fill="#ccc"/><path d="m24 12h4v2h-4z" fill="#555"/><path d="m24 14h16v4h-16z" fill="#ccc"/><path d="m8 20h10v2h-10z" fill="#555"/><path d="m8 28h8v2h-8z" fill="#555"/><path d="m32 20c-6.6 0-12 5.4-12 12s5.4 12 12 12 12-5.4 12-12-5.4-12-12-12z" fill="#388e3c"/><path d="m40 34h-6v6h-4v-6h-6v-4h6v-6h4v6h6z" fill="#fff"/><path d="m18 32c0-.681.065-1.345.16-2h-10.16v6h10.59c-.38-1.269-.59-2.61-.59-4z" fill="#ccc"/><path d="m22.221 22h-14.221v4h11.37c.715-1.498 1.678-2.852 2.851-4z" fill="#ccc"/><path d="m19.37 38h-11.37c-1.1 0-2-.9-2-2v-24c0-1.1.9-2 2-2h32c1.1 0 2 .9 2 2v10.221c.766.783 1.433 1.661 2 2.605v-12.826c0-2.2-1.8-4-4-4h-32c-2.2 0-4 1.8-4 4v24c0 2.2 1.8 4 4 4h12.527c-.44-.63-.823-1.3-1.157-2z" fill="#555"/></svg>