<svg enable-background="new 0 0 48 48" height="48" viewBox="0 0 48 48" width="48" xmlns="http://www.w3.org/2000/svg"><path d="m32 14h4.17l-6.17-6.17v4.17c0 1.105.895 2 2 2z" fill="#fff"/><path d="m32 20c-6.6 0-12 5.4-12 12s5.4 12 12 12 12-5.4 12-12-5.4-12-12-12z" fill="#388e3c"/><path d="m40 34h-6v6h-4v-6h-6v-4h6v-6h4v6h6z" fill="#fff"/><path d="m18 32c0-7.72 6.28-14 14-14 2.149 0 4.178.501 6 1.37v-3.37h-6c-2.209 0-4-1.791-4-4v-6h-16c-1.105 0-2 .895-2 2v32c0 1.105.895 2 2 2h10.221c-2.6-2.543-4.221-6.084-4.221-10z" fill="#fff"/><path d="m22.221 42h-10.221c-1.105 0-2-.895-2-2v-32c0-1.105.895-2 2-2h16v6c0 2.209 1.791 4 4 4h6v3.37c.7.334 1.37.717 2 1.157v-5.527l-11-11h-17c-2.209 0-4 1.791-4 4v32c0 2.209 1.791 4 4 4h12.826c-.945-.567-1.822-1.234-2.605-2zm7.779-34.17 6.17 6.17h-4.17c-1.105 0-2-.895-2-2z" fill="#555"/></svg>