<svg enable-background="new 0 0 48 48" height="48" viewBox="0 0 48 48" width="48" xmlns="http://www.w3.org/2000/svg"><path d="m32 20c-6.6 0-12 5.4-12 12s5.4 12 12 12 12-5.4 12-12-5.4-12-12-12z" fill="#388e3c"/><path d="m40 34h-6v6h-4v-6h-6v-4h6v-6h4v6h6z" fill="#fff"/><path d="m18 32c0-7.7 6.3-14 14-14 3.91 0 7.454 1.629 10 4.236v-5.136c0-2.2-1.2-4.2-3-5.2l-12-6.9c-.9-.5-2-.8-3-.8s-2.1.2-3 .8l-12 6.9c-1.8 1-3 3-3 5.2v13.8c0 2.2 1.2 4.2 3 5.2l12 6.9c.9.5 2 .8 3 .8.155 0 .314-.015.473-.025-3.882-2.496-6.473-6.843-6.473-11.775z" fill="#303f9f"/></svg>