<svg enable-background="new 0 0 48 48" height="48" viewBox="0 0 48 48" width="48" xmlns="http://www.w3.org/2000/svg"><path d="m32 18.8c-.667 0-1.4.133-2 .533l-8 4.6c-1.2.667-2 2-2 3.467v9.2c0 1.467.8 2.8 2 3.467l8 4.6c.6.333 1.333.533 2 .533s1.4-.133 2-.533l8-4.6c1.2-.667 2-2 2-3.467v-9.2c0-1.467-.8-2.8-2-3.467l-8-4.6c-.6-.333-1.334-.533-2-.533z" fill="#388e3c"/><path d="m40 34h-6v6h-4v-6h-6v-4h6v-6h4v6h6z" fill="#fff"/><path d="m12 17.1 12-6.9 12 6.9 6 3.45v-3.45c0-2.2-1.2-4.2-3-5.2l-12-6.9c-.9-.5-2-.8-3-.8s-2.1.2-3 .8l-12 6.9c-1.8 1-3 3-3 5.2v13.8c0 2.2 1.2 4.2 3 5.2l9 5.175v-6.925l-6-3.45z" fill="#303f9f"/></svg>