<svg enable-background="new 0 0 48 48" height="48" viewBox="0 0 48 48" width="48" xmlns="http://www.w3.org/2000/svg"><path d="m41.561 35.561-15.386-15.386c.529-1.288.825-2.696.825-4.175 0-6.075-4.925-11-11-11s-11 4.925-11 11 4.925 11 11 11c.926 0 1.82-.127 2.679-.342.266.216.596.342.942.342h2.879c.828 0 1.5.672 1.5 1.5v2c0 .828.672 1.5 1.5 1.5h2c.828 0 1.5.672 1.5 1.5v2c0 .828.672 1.5 1.5 1.5h2c.828 0 1.5.672 1.5 1.5v2c0 .828.672 1.5 1.5 1.5h5c.828 0 1.5-.672 1.5-1.5v-3.879c0-.397-.158-.779-.439-1.06zm-27.561-17.561c-2.206 0-4-1.794-4-4s1.794-4 4-4 4 1.794 4 4-1.794 4-4 4z" fill="#1976d2"/><g fill="#0097a7"><path d="m8 30c-1.657 0-3 1.343-3 3s1.343 3 3 3 3-1.343 3-3-1.343-3-3-3z"/><path d="m18 38c-1.657 0-3 1.343-3 3s1.343 3 3 3 3-1.343 3-3-1.343-3-3-3z"/><path d="m33 5c-1.657 0-3 1.343-3 3s1.343 3 3 3 3-1.343 3-3-1.343-3-3-3z"/><path d="m41 15c-1.657 0-3 1.343-3 3s1.343 3 3 3 3-1.343 3-3-1.343-3-3-3z"/></g><g fill="#80deea"><circle cx="8" cy="33" r="1"/><circle cx="18" cy="41" r="1"/><circle cx="41" cy="18" r="1"/><circle cx="33" cy="8" r="1"/></g><g fill="#26c6da"><path d="m31.621 22.793 2.086-2.086c.188-.187.293-.442.293-.707v-6c0-.552-.447-1-1-1s-1 .448-1 1v5.586l-1.793 1.793z"/><path d="m22 30.5v-.914l-2.414 2.414h-5.586c-.552 0-1 .447-1 1s.448 1 1 1h6c.265 0 .52-.105.707-.293l1.666-1.666c-.231-.467-.373-.986-.373-1.541z"/><path d="m34.621 25.793 3.086-3.086c.391-.391.391-1.023 0-1.414s-1.023-.391-1.414 0l-3.086 3.086z"/><path d="m25.5 34c-.555 0-1.074-.142-1.541-.373l-2.666 2.666c-.391.391-.391 1.023 0 1.414.195.195.451.293.707.293s.512-.098.707-.293l3.707-3.707z"/></g></svg>