<svg enable-background="new 0 0 1600 450" height="450" viewBox="0 0 1600 450" width="1600" xmlns="http://www.w3.org/2000/svg"><path d="m38.79279 127.5967c3.497-39.1664 27.97601-58.05021 76.2346-58.05021 25.87782 0 45.46101 5.5952 58.7496 17.485 12.5892 10.491 16.7856 24.479 16.7856 49.65739v78.33282c0 18.1844.6994 20.98199 6.29462 29.3748h-51.0562c-2.09819-5.5952-2.09819-6.994-3.49699-13.2886-16.78561 13.98799-28.67541 18.18442-48.95801 18.18442-37.7676 0-62.94601-20.98201-62.94601-53.15442s20.2826-48.95799 67.84181-56.6514l27.2766-4.19641c11.19041-1.3988 15.3868-4.1964 15.3868-11.1904 0-9.0922-9.7916-15.3868-25.8778-15.3868-18.1844 0-27.97601 6.2946-30.07421 20.2826zm103.51123 36.36882c-4.89581 2.09819-9.79161 3.49699-18.18441 4.8958l-18.1844 3.49699c-18.1844 4.19641-25.87781 9.79161-25.87781 20.28261 0 11.1904 9.09219 18.1844 25.17841 18.1844 16.7856 0 28.67541-6.994 37.06821-21.68141z" fill="#5a5a5a"/><path d="m284.9816 74.4423-1.3988 30.0742c9.79163-27.976 22.3808-34.97 58.74963-34.97v47.5592c-5.59521-.6994-8.39282-.6994-12.5892-.6994-17.48502 0-31.47302 7.69341-37.06821 20.2826-4.89581 11.19041-6.29462 27.27661-6.29462 60.14841v48.25862h-50.3568v-170.65361z" fill="#5a5a5a"/><path d="m365.4126 127.5967c3.49701-39.1664 27.97601-58.05021 76.23462-58.05021 25.87778 0 45.461 5.5952 58.7496 17.485 12.5892 10.491 16.78561 24.479 16.78561 49.65739v78.33282c0 18.1844.6994 20.98199 6.29462 29.3748h-51.05624c-2.09821-5.5952-2.09821-6.994-3.49698-13.2886-16.78561 13.98799-28.67542 18.18442-48.95801 18.18442-37.76761 0-62.94601-20.98201-62.94601-53.15442s20.28262-48.95799 67.8418-56.6514l27.27661-4.19641c11.19037-1.3988 15.38678-4.1964 15.38678-11.1904 0-9.0922-9.79163-15.3868-25.87778-15.3868-18.18442 0-27.97601 6.2946-30.07422 20.2826zm103.51123 36.36882c-4.89578 2.09819-9.79163 3.49699-18.18442 4.8958l-18.18439 3.49699c-18.18439 4.19641-25.87781 9.79161-25.87781 20.28261 0 11.1904 9.09219 18.1844 25.17844 18.1844 16.78561 0 28.67538-6.994 37.06821-21.68141z" fill="#5a5a5a"/><path d="m657.06244 125.4985c-2.09821-12.5892-12.58923-19.5832-28.67542-19.5832-14.68738 0-23.7796 5.5952-23.7796 13.988 0 6.2946 4.89581 9.09219 20.98199 13.2886l31.47302 6.2946c20.98199 4.1964 31.47302 8.39281 39.16638 16.7856 7.69342 7.69341 12.58923 20.28259 12.58923 34.2706 0 35.6694-29.37476 58.74959-76.93402 58.74959-47.5592 0-76.93402-22.38081-79.73163-60.14841h46.8598c2.79761 16.0862 13.28864 23.7796 33.57123 23.7796 16.08624 0 25.87781-6.2946 25.87781-16.7856 0-7.69341-5.59528-12.5892-18.88379-15.38681l-30.77362-6.994c-37.76764-7.69341-51.75562-21.68141-51.75562-48.95801-.6994-34.2706 26.57721-55.2526 72.73761-55.2526 44.06219 0 70.6394 19.5832 74.83575 55.95201z" fill="#5a5a5a"/><path d="m900.47961 98.86803c-3.99219-19.95749-15.66138-32.23797-36.53754-32.23797-24.8717 0-38.07422 16.89079-38.07422 57.41364v30.09332c0 39.30028 13.20251 57.41364 38.07422 57.41364 21.49084 0 31.93066-10.74371 36.53754-32.23796h40.83362c-7.06232 47.59198-33.7713 68.47154-77.37115 68.47154-47.59198 0-81.05591-28.86392-81.05591-93.64722v-30.09332c0-65.39801 33.46393-93.64038 81.05591-93.64038 42.06305 0 70.61621 22.10213 77.67853 68.46471z" fill="#cc1c1c"/><path d="m1119.04895 33.16267v36.54092h-89.03687v47.58516h79.82654v36.23357h-79.82654v55.269h89.03687v36.22673h-132.02197v-211.85538z" fill="#cc1c1c"/><g fill="#838383"><path d="m252.82765 316.82266c-.07855-6.78909-3.14867-9.8558-9.28891-9.8558-7.43112 0-12.44099 4.84253-14.78371 16.88397l-1.37285 7.11011c-2.26416 11.87067.80595 16.88394 8.24049 16.88394 6.37929 0 10.17682-3.07352 12.92592-9.8558h9.1284c-4.03998 13.00448-12.60489 18.01092-23.66962 18.01092-12.11998 0-19.23009-8.15512-15.99605-25.03906l1.37285-7.11011c3.39113-17.53284 12.68346-25.0459 25.76988-25.0459 11.06815 0 17.28693 6.94617 16.72345 18.01773z"/><path d="m283.51862 355.88388c-10.41928 0-16.10193-7.10327-13.39722-20.97516l1.15088-5.95584c2.84131-14.67783 10.48758-20.96832 21.58304-20.96832 10.48761 0 16.10535 7.03497 13.39722 20.96832l-1.15088 5.95584c-2.84131 14.68466-10.14951 20.97516-21.58304 20.97516zm-5.54944-20.97516c-1.96024 10.08118.6796 14.14508 6.90179 14.14508 6.22562 0 10.41928-4.0639 12.38293-14.14508l1.15085-5.95584c1.96024-10.08118-.67618-14.13824-6.90179-14.13824s-10.41928 4.05707-12.38293 14.13824z"/><path d="m338.91739 335.6532 18.74173-27.06076h7.91946l-9.06693 46.68356h-7.57797l6.08902-31.26126-15.02277 22.25922h-5.54602l-6.22562-22.05432-6.02072 31.05637h-7.57797l9.06693-46.68356h7.035z"/><path d="m383.01578 338.22815-3.31601 17.04785h-7.84775l9.06693-46.68356h15.90042c8.93033 0 14.68124 4.66492 14.68124 12.64929 0 10.14951-7.17157 16.98642-20.43558 16.98642zm8.52392-6.76862c8.79715 0 11.97656-3.79071 11.97656-9.74652 0-3.98877-2.63983-6.2905-8.86203-6.2905h-7.2399l-3.1145 16.03702z"/><path d="m432.19235 355.88388c-10.41928 0-16.10193-7.10327-13.39722-20.97516l1.15088-5.95584c2.84131-14.67783 10.48758-20.96832 21.58304-20.96832 10.48761 0 16.10193 7.03497 13.39722 20.96832l-1.15088 5.95584c-2.84131 14.68466-10.1495 20.97516-21.58304 20.97516zm-5.54944-20.97516c-1.96024 10.08118.67618 14.14508 6.90179 14.14508s10.41928-4.0639 12.38293-14.14508l1.15085-5.95584c1.96024-10.08118-.67618-14.13824-6.90179-14.13824s-10.41928 4.05707-12.38293 14.13824z"/><path d="m505.92987 308.59244-9.06693 46.68356h-6.70032l-13.05911-31.86914-6.2222 31.86914h-7.57797l9.06693-46.68356h6.5603l13.12741 32.34042 6.29391-32.34042z"/><path d="m549.89166 308.59244-1.35236 6.83008h-20.77026l-2.37006 12.31461h18.74176l-1.28406 6.76862h-18.74176l-2.77637 14.00168h20.77368l-1.28748 6.76859h-28.61804l9.06689-46.68356h28.61806z"/><path d="m595.95715 308.59244-9.06695 46.68356h-6.70032l-13.05908-31.86914-6.22223 31.86914h-7.57794l9.06689-46.68356h6.5603l13.12744 32.34042 6.29388-32.34042z"/><path d="m641.34302 308.59244-1.35236 6.83008h-13.39722l-7.71112 39.85349h-7.8512l7.7146-39.85349h-13.46552l1.35577-6.83008z"/><path d="m710.93127 299.53574-1.6153 8.15512h-24.80005l-2.82764 14.70517h22.37872l-1.53674 8.07996h-22.37872l-3.31262 16.72003h24.80341l-1.53674 8.07999h-34.1709l10.82568-55.74026h34.1709z"/><path d="m756.70306 308.59244-9.06696 46.68356h-6.70032l-13.05908-31.86914-6.22223 31.86914h-7.57794l9.06689-46.68356h6.5603l13.12744 32.34042 6.29388-32.34042z"/><path d="m800.33014 331.32294-.67615 3.72238c-2.70471 14.75296-9.94458 20.83856-21.24493 20.83856-10.41931 0-16.03705-7.23987-13.39722-20.97516l1.08258-5.61432c2.90961-15.01935 10.62415-21.30984 21.65131-21.30984 9.47333 0 14.4798 6.0173 14.00513 15.08765h-7.578c-.06488-5.41626-2.50323-8.25757-7.77948-8.25757-6.22559 0-10.41925 4.05707-12.38293 14.13824l-1.15082 5.95584c-1.96027 10.08118.67615 14.14508 6.90179 14.14508 5.95581 0 9.60992-3.51749 11.57013-10.89398h-9.26843l1.28406-6.83688z"/><path d="m817.70245 355.276h-7.84772l9.06689-46.68356h7.84778z"/><path d="m876.29089 308.59244-9.06696 46.68356h-6.70026l-13.05914-31.86914-6.22217 31.86914h-7.578l9.06696-46.68356h6.56024l13.12744 32.34042 6.29388-32.34042z"/><path d="m920.25269 308.59244-1.35236 6.83008h-20.77026l-2.37006 12.31461h18.74176l-1.28406 6.76862h-18.74176l-2.77643 14.00168h20.77368l-1.28741 6.76859h-28.61804l9.06689-46.68356h28.61805z"/><path d="m961.38 308.59244-1.35236 6.83008h-20.77026l-2.37006 12.31461h18.74176l-1.28406 6.76862h-18.74176l-2.77643 14.00168h20.77368l-1.28741 6.76859h-28.61804l9.06689-46.68356h28.61805z"/><path d="m990.93378 355.276-5.34454-18.94662h-9.26843l-3.65411 18.94662h-7.84772l9.06689-46.68356h15.90045c8.9986 0 14.81787 4.39856 14.81787 11.97311 0 7.2399-3.85901 12.24634-11.23212 14.61636l6.02075 20.09409zm-5.75092-25.7084c7.98431 0 11.43695-2.37003 11.43695-8.59225 0-4.06387-2.90961-5.55283-8.72888-5.55283h-7.50964l-2.70813 14.14508z"/><path d="m1019.74304 355.276h-7.84778l9.06696-46.68356h7.84772z"/><path d="m1078.33142 308.59244-9.06689 46.68356h-6.70032l-13.05908-31.86914-6.22229 31.86914h-7.57788l9.06689-46.68356h6.5603l13.12744 32.34042 6.29382-32.34042z"/><path d="m1121.9552 331.32294-.67627 3.72238c-2.70471 14.75296-9.94458 20.83856-21.24487 20.83856-10.41931 0-16.03711-7.23987-13.39722-20.97516l1.08252-5.61432c2.90967-15.01935 10.62427-21.30984 21.65137-21.30984 9.47339 0 14.47974 6.0173 14.00513 15.08765h-7.578c-.06836-5.41626-2.50317-8.25757-7.77942-8.25757-6.22571 0-10.41931 4.05707-12.38293 14.13824l-1.15088 5.95584c-1.96033 10.08118.67957 14.14508 6.90173 14.14508 5.95581 0 9.60999-3.51749 11.57019-10.89398h-9.26843l1.28406-6.83688z"/></g></svg>