<svg height="48" viewBox="0 0 48 48" width="48" xmlns="http://www.w3.org/2000/svg"><path d="m29 4h-17a4 4 0 0 0 -4 4v32a4 4 0 0 0 4 4h24a4 4 0 0 0 4-4v-25z" fill="#555"/><path d="m32 14h4.17l-6.17-6.17v4.17a2 2 0 0 0 2 2z" fill="#fff"/><path d="m32 16a4 4 0 0 1 -4-4v-6h-16a2 2 0 0 0 -2 2v32a2 2 0 0 0 2 2h24a2 2 0 0 0 2-2v-24z" fill="#fff"/><path d="m8 20h32v14h-32z" fill="#f57c00"/><g fill="#fff"><path d="m20 26v6h2v-2h4v2h2v-6a4 4 0 0 0 -4-4 4 4 0 0 0 -4 4zm6 2h-4v-2a2 2 0 0 1 2-2 2 2 0 0 1 2 2z"/><path d="m30 22v10h3a5 5 0 0 0 5-5 5 5 0 0 0 -5-5zm3 8h-1v-6h1a3 3 0 0 1 3 3 3 3 0 0 1 -3 3z"/><path d="m14 22a4 4 0 0 0 -4 4v2a4 4 0 0 0 4 4 4 4 0 0 0 4-4h-2a2 2 0 0 1 -2 2 2 2 0 0 1 -2-2v-2a2 2 0 0 1 2-2 2 2 0 0 1 2 2h2a4 4 0 0 0 -4-4z"/></g></svg>