<svg enable-background="new 0 0 48 48" height="48" viewBox="0 0 48 48" width="48" xmlns="http://www.w3.org/2000/svg"><path d="m33.3 18c-5.9 0-10.7 4.8-10.7 10.7 0 1.7.4 3.3 1.1 4.8l-3.7 8.5 8.6-3.8c1.5.8 3.1 1.1 4.8 1.1 5.9 0 10.7-4.8 10.7-10.7s-4.9-10.6-10.8-10.6z" fill="#d7e1fe"/><g fill="#303f9f"><path d="m32 34v-6.7h2.7v6.7z"/><path d="m32 26v-2.7h2.7v2.7z"/><path d="m20.7 30h-8.5c-3.4 0-6.2-2.7-6.2-6 0-2.9 2.1-5.4 5.1-5.9l1.7-.3v-1.7-.1c0-1.7 1.5-3.1 3.3-3.1.7 0 1.3.2 1.8.5l1.6 1.1 1.1-1.6c1.2-1.8 3.3-2.9 5.6-2.9 3.5 0 6.4 2.7 6.6 6h.6c.5 0 .9 0 1.4.1-.2-4.5-4-8.1-8.7-8.1-3 0-5.7 1.5-7.2 3.8-.8-.5-1.8-.9-2.9-.9-2.9 0-5.3 2.3-5.3 5.1v.1c-3.8.7-6.7 4-6.7 7.9 0 4.4 3.7 8 8.2 8h8.9c-.2-.7-.3-1.3-.4-2z"/></g></svg>