<svg enable-background="new 0 0 48 48" height="48" viewBox="0 0 48 48" width="48" xmlns="http://www.w3.org/2000/svg"><path d="m42 31.7h-2.3c-1.1 0-2 .6-2.4 1.7l-1.7 4.8-3.6-12.9c-.2-.8-.9-1.3-1.6-1.3s-1.4.5-1.6 1.2l-2.4 6.6h-2.4v2.6h2.2c1.1 0 2-.6 2.4-1.7l1.8-4.8 3.6 12.9c.2.8.9 1.3 1.6 1.3s1.4-.5 1.6-1.2l2.4-6.6h2.4z" fill="#303f9f"/><path d="m18.8 19.8h-7.6l-1.6 4.2h-3.6l7.5-18h3.1l7.4 18h-3.6zm-6.7-2.5h5.7l-2.8-7.5z" fill="#303f9f"/><g fill="#78909c"><path d="m36 17c0-3.1 0-9-12-9v2c10 0 10 4 10 7h-3l4 6 4-6z"/><path d="m12 31c0 3.1 0 9 12 9v-2c-10 0-10-4-10-7h3l-4-6-4 6z"/></g></svg>