<svg enable-background="new 0 0 48 48" height="48" viewBox="0 0 48 48" width="48" xmlns="http://www.w3.org/2000/svg"><path d="m36 32.4v-4.8h-3.4c-.2-.7-.5-1.4-.8-2l2.3-2.3-3.4-3.4-2.3 2.4c-.7-.4-1.3-.7-2-.8v-3.5h-4.8v3.4c-.7.2-1.4.5-2 .8l-2.3-2.4-3.4 3.4 2.3 2.3c-.4.7-.7 1.3-.8 2h-3.4v4.8h3.4c.2.7.5 1.4.8 2l-2.4 2.3 3.4 3.4 2.3-2.3c.7.4 1.3.7 2 .8v3.5h4.8v-3.4c.7-.2 1.4-.5 2-.8l2.3 2.3 3.4-3.4-2.4-2.3c.4-.7.7-1.3.8-2z" fill="#505060"/><path d="m21 27.9v.3 6.6h-1.8l.6-9.6h2.4l.1 1.7-1.1.8z" fill="#fff"/><path d="m28.8 34.8h-7.2v-6.6l2.4-1.8v1.8l2.4-1.8v1.8l2.4-1.8z" fill="#fff"/><path d="m36.7 14.5v-.2c0-4.6-3.9-8.4-8.6-8.4-3 0-5.7 1.5-7.2 3.8-.8-.5-1.8-.9-2.9-.9-2.9 0-5.3 2.3-5.3 5.1v.1c-3.8.8-6.7 4.1-6.7 8 0 2.9 1.6 5.5 4 6.8v-1.2c0-1.1.9-2 2-2h1.4l-1-1c-.8-.8-.8-2 0-2.8l3.4-3.4c.4-.4.9-.6 1.4-.6.5 0 1 .2 1.4.6l.9 1v-1.4c0-1.1.9-2 2-2h4.8c1.1 0 2 .9 2 2v1.4l.9-1c.4-.4.9-.6 1.4-.6.5 0 1.1.2 1.4.6l3.4 3.4c.8.8.8 2 0 2.8l-1 1h1.6c1.1 0 2 .9 2 2v1.3c2.4-1.4 4-3.9 4-6.8 0-3.5-2.2-6.4-5.3-7.6z" fill="#90caf9"/></svg>