<svg enable-background="new 0 0 48 48" height="48" viewBox="0 0 48 48" width="48" xmlns="http://www.w3.org/2000/svg"><g fill="#fff"><path d="m24 18c-5.5 0-10 4.5-10 10s4.5 10 10 10 10-4.5 10-10-4.5-10-10-10zm0 16c-3.3 0-6-2.7-6-6s2.7-6 6-6 6 2.7 6 6-2.7 6-6 6z"/><path d="m31.4 33.3h4.2v8.5h-4.2z" transform="matrix(.7071 -.7071 .7071 .7071 -16.7046 34.6716)"/><path d="m36.7 14.5v-.2c0-4.6-3.9-8.4-8.6-8.4-3 0-5.7 1.5-7.2 3.8-.8-.5-1.8-.9-2.9-.9-2.9 0-5.3 2.3-5.3 5.1v.1c-3.8.8-6.7 4.1-6.7 8 0 2.9 1.6 5.5 4 6.8h2c0-.3 0-.5 0-.8 0-6.6 5.4-12 12-12s12 5.4 12 12v.9h2c2.4-1.4 4-3.9 4-6.8 0-3.5-2.2-6.4-5.3-7.6z"/></g></svg>