<svg enable-background="new 0 0 48 48" height="48" viewBox="0 0 48 48" width="48" xmlns="http://www.w3.org/2000/svg"><path d="m12 36h4v4h-4z" fill="#4b4b68"/><path d="m18 36h18v2h-18z" fill="#777a9c"/><path d="m12 28h4v4h-4z" fill="#4b4b68"/><path d="m18 28h18v2h-18z" fill="#777a9c"/><path d="m12 8h4v4h-4z" fill="#4b4b68"/><path d="m18 8h18v2h-18z" fill="#777a9c"/><path d="m22 18h14v2h-14z" fill="#182bfb"/><path d="m8 14v12h12v-12z" fill="#182bfb"/><path d="m8 4v8h2v-6h28v36h-28v-14h-2v16h32v-40z" fill="#4b4b68"/><path d="m9 20 2-2 2 2 4-4 2 2-6 6z" fill="#fff"/></svg>