<svg enable-background="new 0 0 48 48" height="48" viewBox="0 0 48 48" width="48" xmlns="http://www.w3.org/2000/svg"><path d="m24 16-4 6h-6v20h20v-20h-6z" fill="#182bfb"/><path d="m24 19.606 2.93 4.394h5.07v16h-16v-16h5.07z" fill="#fff"/><g fill="#777a9c"><path d="m10 10h4v4h-4z"/><path d="m16 10h4v4h-4z"/><path d="m28 10h4v4h-4z"/><path d="m34 10h4v4h-4z"/></g><path d="m23 11h2v2h-2z" fill="#182bfb"/><path d="m26 10h-4v4h4z" fill="#182bfb"/><path d="m18 26h12v12h-12z" fill="#4b4b68"/><path d="m6 6v12h14.263l1.333-2h-13.596v-8h32v8h-13.596l1.333 2h14.263v-12z" fill="#4b4b68"/></svg>