<svg enable-background="new 0 0 48 48" height="48" viewBox="0 0 48 48" width="48" xmlns="http://www.w3.org/2000/svg"><path d="m4 12h40v26h-40z" fill="#4b4b68"/><path d="m6 14h36v22h-36z" fill="#fff"/><path d="m22 8h2v4h-2z" fill="#afb3c5"/><path d="m8 28h8v6h-8z" fill="#182bfb"/><path d="m22 28h2v2h-2z" fill="#777a9c"/><path d="m18 28h2v2h-2z" fill="#777a9c"/><path d="m26 28h2v2h-2z" fill="#777a9c"/><path d="m30 28h2v2h-2z" fill="#777a9c"/><path d="m34 28h6v2h-6z" fill="#777a9c"/><path d="m10 20h2v2h-2z" fill="#777a9c"/><path d="m14 20h2v2h-2z" fill="#777a9c"/><path d="m18 20h6v6h-6z" fill="#182bfb"/><path d="m20 22h2v2h-2z" fill="#eee"/><g fill="#777a9c"><path d="m26 20h2v2h-2z"/><path d="m30 20h2v2h-2z"/><path d="m34 20h2v2h-2z"/><path d="m38 20h2v2h-2z"/><path d="m8 16h2v2h-2z"/><path d="m12 16h2v2h-2z"/><path d="m16 16h2v2h-2z"/><path d="m20 16h2v2h-2z"/><path d="m24 16h2v2h-2z"/><path d="m28 16h2v2h-2z"/><path d="m32 16h2v2h-2z"/><path d="m36 16h4v2h-4z"/><path d="m8 24h2v2h-2z"/><path d="m12 24h2v2h-2z"/><path d="m28 24h2v2h-2z"/><path d="m32 24h2v2h-2z"/><path d="m18 32h16v2h-16z"/><path d="m36 32h4v2h-4z"/><path d="m36 24h4v2h-4z"/><path d="m6 10h4v2h-4z"/><path d="m38 10h4v2h-4z"/></g><path d="m10 30h4v2h-4z" fill="#eee"/></svg>