<svg enable-background="new 0 0 48 48" height="48" viewBox="0 0 48 48" width="48" xmlns="http://www.w3.org/2000/svg"><path d="m20 10h8v40h-8z" fill="#777a9c" transform="matrix(.00000695 1 -1 .00000695 53.9999 5.9997)"/><path d="m20-2h8v40h-8z" fill="#777a9c" transform="matrix(.00000695 1 -1 .00000695 41.9998 -6.0001)"/><path d="m42 8h-36v32h36z" fill="#182bfb"/><path d="m40 10v28h-32v-28z" fill="#fff"/><path d="m32 14h-8c-2.209 0-4 1.791-4 4s1.791 4 4 4h8c2.209 0 4-1.791 4-4s-1.791-4-4-4zm0 6h-2c-1.105 0-2-.895-2-2s.895-2 2-2h2c1.105 0 2 .895 2 2s-.895 2-2 2z" fill="#4b4b68"/><path d="m32 26h-8c-2.209 0-4 1.791-4 4s1.791 4 4 4h8c2.209 0 4-1.791 4-4s-1.791-4-4-4zm-6 6h-2c-1.105 0-2-.895-2-2s.895-2 2-2h2c1.105 0 2 .895 2 2s-.895 2-2 2z" fill="#4b4b68"/><path d="m16 10v28h-8v-28z" fill="#afb3c5"/><g fill="#4b4b68"><path d="m10 14h4v4h-4z" transform="matrix(-1 0 0 -1 24 32)"/><path d="m10 22h4v4h-4z" transform="matrix(-1 0 0 -1 24 48)"/><path d="m10 30h4v4h-4z" transform="matrix(-1 0 0 -1 24 64)"/></g></svg>