<svg enable-background="new 0 0 48 48" height="48" viewBox="0 0 48 48" width="48" xmlns="http://www.w3.org/2000/svg"><path d="m8 16v8h32v-8z" fill="#182bfb"/><path d="m8 4v10h2v-8h28v8h2v-10z" fill="#4b4b68"/><path d="m38 42h-28v-16h-2v18h32v-18h-2z" fill="#4b4b68"/><path d="m12 18h4v4h-4z" fill="#fff"/><path d="m18 18h18v2h-18z" fill="#fff"/><path d="m12 36h4v4h-4z" fill="#4b4b68"/><path d="m18 36h18v2h-18z" fill="#777a9c"/><path d="m12 28h4v4h-4z" fill="#4b4b68"/><path d="m18 28h18v2h-18z" fill="#777a9c"/><path d="m12 8h4v4h-4z" fill="#4b4b68"/><path d="m18 8h18v2h-18z" fill="#777a9c"/></svg>