<svg enable-background="new 0 0 48 48" height="48" viewBox="0 0 48 48" width="48" xmlns="http://www.w3.org/2000/svg"><path d="m6 22v2h36v-2z" fill="#182bfb"/><g fill="#4b4b68"><path d="m8 4v16h2v-14h28v14h2v-16z"/><path d="m38 42h-28v-16h-2v18h32v-18h-2z"/><path d="m12 36h4v4h-4z"/></g><path d="m18 36h18v2h-18z" fill="#777a9c"/><path d="m12 28h4v4h-4z" fill="#4b4b68"/><path d="m18 28h18v2h-18z" fill="#777a9c"/><path d="m12 8h4v4h-4z" fill="#4b4b68"/><path d="m18 8h18v2h-18z" fill="#777a9c"/><path d="m12 16h4v4h-4z" fill="#4b4b68"/><path d="m18 16h18v2h-18z" fill="#777a9c"/></svg>