<svg enable-background="new 0 0 48 48" height="48" viewBox="0 0 48 48" width="48" xmlns="http://www.w3.org/2000/svg"><path d="m24 17.1 6 3.45v6.9l-6 3.45-6-3.45v-6.9zm0-4.1c-.556 0-1.167.111-1.667.444l-6.667 3.833c-1 .556-1.667 1.667-1.667 2.889v7.667c0 1.222.667 2.333 1.667 2.889l6.667 3.833c.5.278 1.111.445 1.667.445s1.167-.111 1.667-.444l6.667-3.833c1-.556 1.667-1.667 1.667-2.889v-7.667c0-1.222-.667-2.333-1.667-2.889l-6.667-3.833c-.5-.278-1.111-.445-1.667-.445z" fill="#182bfb"/><path d="m40 12v24h-32v-24zm4-4h-40v32h40z" fill="#4b4b68"/></svg>