<svg enable-background="new 0 0 48 48" height="48" viewBox="0 0 48 48" width="48" xmlns="http://www.w3.org/2000/svg"><g fill="#777a9c"><path d="m10 38v-5l5 5z"/><path d="m10 10h5l-5 5z"/><path d="m38 10v5l-5-5z"/><path d="m38 38h-5l5-5z"/></g><path d="m18 18h-5l5-5z" fill="#afb3c5"/><path d="m18 30v5l-5-5z" fill="#afb3c5"/><path d="m30 30h5l-5 5z" fill="#afb3c5"/><path d="m30 18v-5l5 5z" fill="#afb3c5"/><path d="m22 14h4v6h-4z" fill="#4b4b68"/><path d="m22 28h4v6h-4z" fill="#4b4b68"/><path d="m29 21h4v6h-4z" fill="#4b4b68" transform="matrix(0 1 -1 0 55 -7)"/><path d="m15 21h4v6h-4z" fill="#4b4b68" transform="matrix(0 1 -1 0 41 7)"/><path d="m24 8 16 16-16 16-16-16zm0-4-20 20 20 20 20-20z" fill="#182bfb"/></svg>