<svg enable-background="new 0 0 48 48" height="48" viewBox="0 0 48 48" width="48" xmlns="http://www.w3.org/2000/svg"><path d="m20 34.833v-7.667c0-2.651 1.414-5.088 3.694-6.369l6.56-3.772c1.069-.671 2.36-1.025 3.746-1.025 1.227 0 2.509.337 3.609.948l.026.014.026.015 2.339 1.345v-6.322h-32v24h12.102c-.061-.383-.102-.771-.102-1.167z" fill="#fff"/><path d="m10 18h4v16h-4z" fill="#4b4b68"/><path d="m10 14h28v2h-28z" fill="#4b4b68"/><path d="m34 20c-.556 0-1.167.111-1.667.444l-6.667 3.833c-1 .556-1.667 1.667-1.667 2.889v7.667c0 1.222.667 2.333 1.667 2.889l6.667 3.833c.5.278 1.111.445 1.667.445s1.167-.111 1.667-.444l6.667-3.833c1-.556 1.667-1.667 1.667-2.889v-7.667c0-1.222-.667-2.333-1.667-2.889l-6.667-3.833c-.5-.278-1.111-.445-1.667-.445z" fill="#303f9f"/><path d="m23.694 20.798 4.306-2.476v-.322h-12v6h4.729c.633-1.33 1.648-2.462 2.965-3.202z" fill="#777a9c"/><path d="m20 27.167c0-.396.041-.784.102-1.167h-4.102v8h4z" fill="#afb3c5"/><path d="m4 8v32h18.12c-1.068-1.077-1.775-2.476-2.019-4h-12.101v-24h32v6.322l4 2.3v-12.622z" fill="#182bfb"/></svg>