<svg enable-background="new 0 0 48 48" height="48" viewBox="0 0 48 48" width="48" xmlns="http://www.w3.org/2000/svg"><g fill="#afb3c5"><path d="m8 12h24v18h-24z"/><path d="m34 12h6v18h-6z"/><path d="m8 32h32v4h-32z"/></g><path d="m24 14h-14v14h14z" fill="#182bfb"/><path d="m6 10h8v-2h-10v10h2z" fill="#4b4b68"/><path d="m20 8v2h22v28h-36v-14h-2v16h40v-32z" fill="#4b4b68"/><path d="m22 16v10h-10v-10z" fill="#fff"/><path d="m16 8h2v26h-2z" fill="#182bfb"/><path d="m16 8h2v26h-2z" fill="#182bfb" transform="matrix(0 1 -1 0 38 4)"/></svg>