<svg enable-background="new 0 0 48 48" height="48" viewBox="0 0 48 48" width="48" xmlns="http://www.w3.org/2000/svg"><g fill="#303f9f"><path d="m16 26 4 2.3v4.6l-4 2.3-4-2.3v-4.6zm0-2c-.333 0-.7.067-1 .267l-4 2.3c-.6.333-1 1-1 1.733v4.6c0 .733.4 1.4 1 1.733l4 2.3c.3.167.667.267 1 .267s.7-.067 1-.267l4-2.3c.6-.333 1-1 1-1.733v-4.6c0-.733-.4-1.4-1-1.733l-4-2.3c-.3-.167-.667-.267-1-.267z"/><path d="m32 26 4 2.3v4.6l-4 2.3-4-2.3v-4.6zm0-2c-.333 0-.7.067-1 .267l-4 2.3c-.6.333-1 1-1 1.733v4.6c0 .733.4 1.4 1 1.733l4 2.3c.3.167.667.267 1 .267s.7-.067 1-.267l4-2.3c.6-.333 1-1 1-1.733v-4.6c0-.733-.4-1.4-1-1.733l-4-2.3c-.3-.167-.667-.267-1-.267z"/><path d="m24 12.8 4 2.3v4.6l-4 2.3-4-2.3v-4.6zm0-2c-.333 0-.7.067-1 .267l-4 2.3c-.6.333-1 1-1 1.733v4.6c0 .733.4 1.4 1 1.733l4 2.3c.3.167.667.267 1 .267s.7-.067 1-.267l4-2.3c.6-.333 1-1 1-1.733v-4.6c0-.733-.4-1.4-1-1.733l-4-2.3c-.3-.167-.667-.267-1-.267z"/></g><path d="m4 8v32h40v-32zm36 20.3v4.6 3.1h-1.47c-.167.135-.343.261-.533.367l-3.956 2.275c-.579.365-1.282.558-2.041.558-.67 0-1.37-.184-1.997-.533l-3.974-2.285c-.198-.11-.38-.241-.553-.382h-2.946c-.167.135-.343.261-.533.367l-3.956 2.275c-.579.365-1.282.558-2.041.558-.67 0-1.37-.184-1.997-.533l-3.974-2.285c-.199-.111-.38-.242-.553-.382h-1.476v-3.1-4.6-16.3h9.47c.167-.135.343-.261.533-.367l3.956-2.275c.579-.365 1.282-.558 2.041-.558.67 0 1.37.184 1.997.533l3.974 2.286c.198.11.38.241.553.382h9.476z" fill="#182bfb"/></svg>