<svg enable-background="new 0 0 48 48" height="48" viewBox="0 0 48 48" width="48" xmlns="http://www.w3.org/2000/svg"><path d="m38 6h-30v28h-4v8h30v-2h-2v-20h2v-6h4z" fill="#4b4b68"/><path d="m10 8v26h18v2h2v4h4v-20h-2v-12z" fill="#fff"/><g fill="#777a9c"><path d="m14 12h14v2h-14z"/><path d="m14 18h14v2h-14z"/><path d="m14 24h14v2h-14z"/><path d="m14 30h10v2h-10z"/></g><path d="m6 36h22v4h-22z" fill="#afb3c5"/><path d="m34 8h2v4h-2z" fill="#afb3c5"/><g fill="#182bfb"><path d="m30 26h8v8h-8z"/><path d="m32 22h4v16h-4z"/><path d="m26 28h16v4h-16z"/><path d="m40 18h2v6h-2z"/><path d="m38 20h6v2h-6z"/><path d="m40 36h2v6h-2z"/><path d="m38 38h6v2h-6z"/></g></svg>