<svg enable-background="new 0 0 48 48" height="48" viewBox="0 0 48 48" width="48" xmlns="http://www.w3.org/2000/svg"><path d="m40 10h-18.515c1.571 1.902 2.515 4.341 2.515 7 0 6.075-4.925 11-11 11-2.659 0-5.098-.944-7-2.515v10.515c0 2.209 1.791 4 4 4h30c2.209 0 4-1.791 4-4v-22c0-2.209-1.791-4-4-4z" fill="#555"/><path d="m40 12h-19.518c-1.614-2.411-4.362-4-7.482-4-4.971 0-9 4.029-9 9 0 3.12 1.589 5.868 4 7.482v11.518c0 1.105.895 2 2 2h30c1.105 0 2-.895 2-2v-22c0-1.105-.895-2-2-2z" fill="#fff"/><path d="m24 14h16v2h-16z" fill="#00796b"/><path d="m24 18h12v2h-12z" fill="#26a69a"/><path d="m24 22h7v2h-7z" fill="#80cbc4"/><path d="m28.148 34.912-8.148-4.073-7.665 3.832-.67-1.342 8.335-4.168 7.852 3.927 7.618-7.618 1.06 1.06z" fill="#42a5f5"/><circle cx="36" cy="26" fill="#0d47a1" r="2"/><circle cx="20" cy="30" fill="#1976d2" r="2"/><circle cx="12" cy="34" fill="#0d47a1" r="2"/><circle cx="28" cy="34" fill="#1976d2" r="2"/><path d="m14 8.059v6.527l4.614-4.614c-1.295-1.035-2.879-1.721-4.614-1.913z" fill="#006064"/><path d="m14.414 17 5.614 5.614c1.231-1.54 1.972-3.489 1.972-5.614s-.741-4.074-1.972-5.614z" fill="#26c6da"/><path d="m12 17.414v-9.355c-4.499.498-8 4.309-8 8.941 0 4.971 4.029 9 9 9 2.125 0 4.074-.741 5.614-1.972z" fill="#0097a7"/></svg>