<svg enable-background="new 0 0 48 48" height="48" viewBox="0 0 48 48" width="48" xmlns="http://www.w3.org/2000/svg"><g fill="#707070"><path d="m16 23h-4c-1.105 0-2-.895-2-2v-4c0-1.105.895-2 2-2h4c1.105 0 2 .895 2 2v4c0 1.105-.895 2-2 2z"/><path d="m31 17h-8c-.552 0-1-.448-1-1 0-.552.448-1 1-1h8c.552 0 1 .448 1 1 0 .552-.448 1-1 1z"/><path d="m27 21h-4c-.552 0-1-.448-1-1 0-.552.448-1 1-1h4c.552 0 1 .448 1 1 0 .552-.448 1-1 1z"/><path d="m42 23h2c0-2.209-1.791-4-4-4v2c1.103 0 2 .897 2 2z"/><path d="m42 35c0 1.103-.897 2-2 2v2c2.209 0 4-1.791 4-4z"/><path d="m14 37c-1.103 0-2-.897-2-2h-2c0 2.209 1.791 4 4 4z"/><path d="m31.342 27.061-11-4c-.363-.132-.773-.042-1.049.233-.275.274-.366.684-.233 1.049l4 11c.142.39.509.651.924.658h.016c.408 0 .776-.248.929-.629l1.841-4.602 4.602-1.841c.386-.154.636-.53.629-.944-.008-.416-.27-.783-.659-.924z"/><path d="m34 9h-26c-2.209 0-4 1.791-4 4v12c0 2.209 1.791 4 4 4h10.626l-.727-2h-9.899c-1.103 0-2-.897-2-2v-12c0-1.103.897-2 2-2h26c1.103 0 2 .897 2 2v12c0 1.103-.897 2-2 2h-.178c.108.302.172.621.178.951.006.364-.063.716-.182 1.049h.182c2.209 0 4-1.791 4-4v-12c0-2.209-1.791-4-4-4z"/><path d="m16 37h4v2h-4z"/><path d="m22 37h4v2h-4z"/><path d="m28 37h4v2h-4z"/><path d="m34 37h4v2h-4z"/><path d="m41.5 30.5h3v2h-3z" transform="matrix(0 1 -1 0 74.5 -11.5)"/><path d="m10 31h2v2h-2z" transform="matrix(0 1 -1 0 43 21)"/><path d="m41.5 25.5h3v2h-3z" transform="matrix(0 1 -1 0 69.5 -16.5)"/></g></svg>