<svg enable-background="new 0 0 48 48" height="48" viewBox="0 0 48 48" width="48" xmlns="http://www.w3.org/2000/svg"><path d="m6.359 18c.417 0 .781-.26.936-.648 2.65-6.64 9.13-11.352 16.705-11.352s14.055 4.712 16.706 11.352c.154.388.518.648.935.648.718 0 1.21-.728.944-1.395-2.94-7.385-10.152-12.605-18.585-12.605s-15.645 5.22-18.586 12.605c-.265.667.227 1.395.945 1.395z" fill="#004d40"/><path d="m41.641 30c-.417 0-.781.26-.936.648-2.65 6.64-9.13 11.352-16.705 11.352s-14.055-4.712-16.706-11.352c-.154-.388-.518-.648-.935-.648-.718 0-1.21.728-.944 1.395 2.94 7.385 10.152 12.605 18.585 12.605s15.645-5.22 18.586-12.605c.265-.667-.227-1.395-.945-1.395z" fill="#004d40"/><path d="m26 10-9.044 14.47c-.416.666.063 1.53.848 1.53h6.196l-2 12 9.044-14.47c.416-.666-.063-1.53-.848-1.53h-6.196z" fill="#004d40"/><g fill="#00796b"><path d="m9 18h2v12h-2z"/><path d="m9 18h2v12h-2z" transform="matrix(.5 -.866 .866 .5 -15.7846 20.6603)"/><path d="m9 18h2v12h-2z" transform="matrix(-.5 -.866 .866 -.5 -5.7846 44.6603)"/><path d="m37 18h2v12h-2z"/><path d="m37 18h2v12h-2z" transform="matrix(.5 -.866 .866 .5 -1.7846 44.909)"/><path d="m37 18h2v12h-2z" transform="matrix(-.5 -.866 .866 -.5 36.2154 68.909)"/></g></svg>