<svg enable-background="new 0 0 48 48" height="48" viewBox="0 0 48 48" width="48" xmlns="http://www.w3.org/2000/svg"><path d="m39 19h5v10h-5z" fill="#1976d2"/><path d="m11 19h-2l-5 5 5 5h2z" fill="#0d47a1"/><path d="m26 10-9.044 14.47c-.416.666.063 1.53.848 1.53h6.196l-2 12 9.044-14.47c.416-.666-.063-1.53-.848-1.53h-6.196z" fill="#0d47a1"/><g fill="#42a5f5"><path d="m21.639 28h-3.835c-1.09 0-2.096-.592-2.624-1.546-.528-.953-.498-2.12.08-3.044l2.756-4.41h-5.016v10h8.472z"/><path d="m26.528 19-.167 1h3.835c1.09 0 2.096.592 2.624 1.546.528.953.498 2.12-.08 3.044l-2.757 4.41h7.017v-10z"/><path d="m6.98 18.192c2.424-7.08 9.129-12.192 17.02-12.192 7.444 0 13.847 4.542 16.583 11h2.132c-2.84-7.588-10.136-13-18.715-13-9.992 0-18.247 7.335-19.737 16.909z"/><path d="m40.583 31c-2.736 6.458-9.139 11-16.583 11-7.891 0-14.597-5.112-17.02-12.192l-2.717-2.717c1.489 9.574 9.745 16.909 19.737 16.909 8.579 0 15.875-5.412 18.716-13z"/></g></svg>