<svg enable-background="new 0 0 48 48" height="48" viewBox="0 0 48 48" width="48" xmlns="http://www.w3.org/2000/svg"><path d="m18.902 6.465c.275.663.98 1.041 1.682.894 1.104-.232 2.244-.359 3.416-.359s2.312.127 3.416.359c.703.147 1.407-.23 1.682-.894.36-.87-.155-1.864-1.077-2.054-1.299-.268-2.643-.411-4.021-.411s-2.722.143-4.021.411c-.922.19-1.438 1.184-1.077 2.054z" fill="#66bb6a"/><path d="m41 24c0 1.172-.127 2.312-.359 3.416-.147.703.23 1.407.894 1.682.87.36 1.864-.155 2.054-1.077.268-1.299.411-2.643.411-4.021s-.143-2.722-.411-4.021c-.19-.922-1.184-1.437-2.054-1.077-.663.275-1.041.98-.894 1.682.232 1.103.359 2.244.359 3.416z" fill="#26a69a"/><path d="m33.331 9.807c1.932 1.274 3.588 2.93 4.862 4.862.39.592 1.154.809 1.809.538l.003-.001c.872-.361 1.208-1.433.688-2.22-1.49-2.254-3.424-4.188-5.678-5.678-.787-.52-1.859-.184-2.22.688l-.001.003c-.272.654-.055 1.418.537 1.808z" fill="#90e249"/><path d="m9.807 14.669c1.274-1.932 2.93-3.588 4.862-4.862.592-.39.809-1.154.538-1.809l-.001-.003c-.361-.872-1.433-1.208-2.22-.688-2.254 1.49-4.188 3.424-5.678 5.678-.52.787-.184 1.859.688 2.22l.003.001c.654.272 1.418.055 1.808-.537z" fill="#303f9f"/><path d="m7 24c0-1.172.127-2.313.359-3.416.147-.703-.23-1.407-.894-1.682-.87-.36-1.864.155-2.054 1.077-.268 1.299-.411 2.643-.411 4.021s.143 2.722.411 4.021c.19.922 1.184 1.437 2.054 1.077.663-.275 1.041-.98.894-1.682-.232-1.103-.359-2.244-.359-3.416z" fill="#26a69a"/><path d="m38.193 33.331c-1.274 1.932-2.93 3.588-4.862 4.862-.592.39-.809 1.154-.538 1.809l.001.003c.361.872 1.433 1.208 2.22.688 2.254-1.49 4.188-3.424 5.678-5.678.52-.787.184-1.859-.688-2.22l-.003-.001c-.654-.272-1.418-.055-1.808.537z" fill="#303f9f"/><path d="m14.669 38.193c-1.932-1.274-3.588-2.93-4.862-4.862-.39-.592-1.154-.809-1.809-.538l-.003.001c-.872.361-1.208 1.433-.688 2.22 1.49 2.254 3.424 4.188 5.678 5.678.787.52 1.859.184 2.22-.688l.001-.003c.272-.654.055-1.418-.537-1.808z" fill="#90e249"/><path d="m29.098 41.535c-.275-.663-.98-1.041-1.682-.894-1.103.232-2.244.359-3.416.359s-2.313-.127-3.416-.359c-.703-.147-1.407.23-1.682.894-.36.87.155 1.864 1.077 2.054 1.299.268 2.643.411 4.021.411s2.722-.143 4.021-.411c.922-.19 1.438-1.184 1.077-2.054z" fill="#66bb6a"/><path d="m26 10-9.044 14.47c-.416.666.063 1.53.848 1.53h6.196l-2 12 9.044-14.47c.416-.666-.063-1.53-.848-1.53h-6.196z" fill="#004d40"/><g fill="#00796b"><path d="m20.732 33.441c-3.912-1.359-6.732-5.072-6.732-9.441 0-4.398 2.857-8.133 6.81-9.469l2.82-4.512c-7.559.198-13.63 6.374-13.63 13.981 0 6.365 4.252 11.729 10.067 13.43z"/><path d="m27.933 10.57-.665 3.989c3.912 1.359 6.732 5.072 6.732 9.441 0 4.398-2.857 8.133-6.81 9.469l-2.82 4.512c7.559-.198 13.63-6.374 13.63-13.981 0-6.365-4.252-11.729-10.067-13.43z"/></g></svg>