<svg enable-background="new 0 0 48 48" height="48" viewBox="0 0 48 48" width="48" xmlns="http://www.w3.org/2000/svg"><g fill="#004d40"><path d="m26 10-9.044 14.47c-.416.666.063 1.53.848 1.53h6.196l-2 12 9.044-14.47c.416-.666-.063-1.53-.848-1.53h-6.196z"/><path d="m6.359 18c.417 0 .781-.26.936-.648 2.65-6.64 9.13-11.352 16.705-11.352s14.055 4.712 16.706 11.352c.154.388.518.648.935.648.718 0 1.21-.728.944-1.395-2.94-7.385-10.152-12.605-18.585-12.605s-15.645 5.22-18.586 12.605c-.265.667.227 1.395.945 1.395z"/><path d="m41.641 30c-.417 0-.781.26-.936.648-2.65 6.64-9.13 11.352-16.705 11.352s-14.055-4.712-16.706-11.352c-.154-.388-.518-.648-.935-.648-.718 0-1.21.728-.944 1.395 2.94 7.385 10.152 12.605 18.585 12.605s15.645-5.22 18.586-12.605c.265-.667-.227-1.395-.945-1.395z"/></g><path d="m18 34-6.25-10 6.25-10h-3.337c-1.034 0-1.996.533-2.544 1.41l-5.369 8.59 5.369 8.59c.548.877 1.51 1.41 2.544 1.41z" fill="#00796b"/><path d="m30 14 6.25 10-6.25 10h3.337c1.034 0 1.996-.533 2.544-1.41l5.369-8.59-5.369-8.59c-.548-.877-1.51-1.41-2.544-1.41z" fill="#00796b"/></svg>