<svg enable-background="new 0 0 48 48" height="48" viewBox="0 0 48 48" width="48" xmlns="http://www.w3.org/2000/svg"><path d="m24 6c9.925 0 18 8.075 18 18s-8.075 18-18 18-18-8.075-18-18 8.075-18 18-18m0-2c-11.046 0-20 8.954-20 20s8.954 20 20 20 20-8.954 20-20-8.954-20-20-20z" fill="#9fa8da"/><path d="m26 10-9.044 14.47c-.416.666.063 1.53.848 1.53h6.196l-2 12 9.044-14.47c.416-.666-.063-1.53-.848-1.53h-6.196z" fill="#1a237e"/><g fill="#303f9f"><path d="m20.027 37.671.677-4.063-6.377-3.666-.025-.014-.025-.014c-.107-.06-.277-.261-.277-.548v-10.733c0-.287.17-.489.277-.548l.025-.014.025-.014 6.679-3.84 3.298-5.277c.07-.112.158-.206.246-.299-.186-.024-.37-.039-.55-.039-.778 0-1.634.155-2.334.622l-9.333 5.366c-1.399.777-2.333 2.332-2.333 4.043v10.733c0 1.711.934 3.266 2.334 4.044l7.682 4.416c.004-.052.003-.103.011-.155z"/><path d="m35.666 14.59-7.682-4.416c-.005.052-.003.103-.012.155l-.677 4.063 6.377 3.666.025.014.025.014c.108.06.278.261.278.548v10.733c0 .287-.17.489-.277.548l-.025.014-.025.014-6.679 3.84-3.298 5.277c-.07.112-.158.206-.246.299.185.024.37.039.55.039.778 0 1.634-.155 2.334-.622l9.333-5.366c1.4-.778 2.334-2.334 2.334-4.044v-10.732c-.001-1.71-.935-3.266-2.335-4.044z"/></g></svg>