<svg enable-background="new 0 0 48 48" height="48" viewBox="0 0 48 48" width="48" xmlns="http://www.w3.org/2000/svg"><path d="m6.185 26.438c-.109-.8-.185-1.609-.185-2.438 0-9.925 8.075-18 18-18 .896 0 1.77.087 2.631.214l.329-1.972c-.969-.143-1.952-.242-2.96-.242-11.046 0-20 8.954-20 20 0 .984.095 1.944.232 2.89z" fill="#66bb6a"/><path d="m41.815 21.562c.109.8.185 1.609.185 2.438 0 9.925-8.075 18-18 18-.896 0-1.77-.087-2.631-.214l-.329 1.972c.969.143 1.952.242 2.96.242 11.046 0 20-8.954 20-20 0-.984-.095-1.944-.232-2.89z" fill="#66bb6a"/><path d="m14.025 24.622c-.013-.206-.025-.413-.025-.622 0-4.398 2.857-8.133 6.81-9.469l2.82-4.512c-7.559.198-13.63 6.374-13.63 13.981 0 .519.038 1.028.093 1.533z" fill="#00796b"/><path d="m33.975 23.378c.013.206.025.412.025.622 0 4.398-2.857 8.133-6.81 9.469l-2.82 4.512c7.559-.198 13.63-6.374 13.63-13.981 0-.519-.038-1.028-.093-1.533z" fill="#00796b"/><path d="m26 10-9.044 14.47c-.416.666.063 1.53.848 1.53h6.196l-2 12 9.044-14.47c.416-.666-.063-1.53-.848-1.53h-6.196z" fill="#004d40"/><path d="m41.44 19.624 2.923-.677c-1.864-7.529-7.775-13.442-15.303-15.308l-.495 2.97c6.32 1.661 11.281 6.669 12.875 13.015z" fill="#42a5f5"/><path d="m6.56 28.376-2.923.677c1.863 7.529 7.774 13.442 15.302 15.308l.495-2.97c-6.319-1.661-11.28-6.669-12.874-13.015z" fill="#42a5f5"/><g fill="#0d47a1"><path d="m27.409 13.547c3.526 1.153 6.264 4.043 7.217 7.655l3.896-.902c-1.317-5.182-5.321-9.28-10.45-10.726z"/><path d="m20.591 34.453c-3.527-1.153-6.264-4.043-7.217-7.655l-3.895.902c1.317 5.182 5.321 9.281 10.45 10.726z"/></g></svg>