<svg enable-background="new 0 0 48 48" height="48" viewBox="0 0 48 48" width="48" xmlns="http://www.w3.org/2000/svg"><g fill="#fff"><path d="m12 10h2v2h-2z"/><path d="m20 10h2v2h-2z"/><path d="m16 10h2v2h-2z"/><path d="m39.879 20.464h4.243v7.071h-4.243z" transform="matrix(.7071 -.7071 .7071 .7071 -4.669 36.7279)"/><path d="m29 42-5-5-2 2v5h5z"/><path d="m25.015 28.964h16.971v7.071h-16.971z" transform="matrix(.7071 -.7071 .7071 .7071 -13.169 33.2071)"/><path d="m20 39c0-.53.211-1.039.586-1.414l2.443-2.443c-.008-.049-.029-.092-.029-.143 0-.552-.448-1-1-1h-5c-.552 0-1-.448-1-1s-.448-1-1-1h-2c-.552 0-1-.448-1-1s.448-1 1-1h4c.552 0 1-.448 1-1s.448-1 1-1h2c.552 0 1-.448 1-1v-2c0-.552.448-1 1-1h.986c1.259 1.673 2.014 3.746 2.014 6 0 .86-.112 1.694-.318 2.489l2.308-2.308c.002-.061.01-.12.01-.181 0-2.516-.777-4.849-2.101-6.778l3.539-3.539c.48.204 1.008.317 1.562.317 2.209 0 4-1.791 4-4s-1.791-4-4-4-4 1.791-4 4c0 .554.113 1.082.317 1.562l-3.419 3.419c-2.112-1.851-4.87-2.981-7.898-2.981-6.627 0-12 5.373-12 12s5.373 12 12 12c1.405 0 2.747-.254 4-.697zm-6 .799c-4.564-.927-8-4.961-8-9.799h1c.552 0 1 .448 1 1s.448 1 1 1 1 .448 1 1v2c0 .552.448 1 1 1h2c.552 0 1 .448 1 1z"/><path d="m40 10v8.277c.309-.18.653-.277 1-.277s.691.097 1 .277v-8.277c0-2.209-1.791-4-4-4h-26c-2.209 0-4 1.791-4 4v8.527c.63-.441 1.3-.823 2-1.157v-7.37c0-1.105.895-2 2-2h26c1.105 0 2 .895 2 2z"/></g></svg>