<svg enable-background="new 0 0 48 48" height="48" viewBox="0 0 48 48" width="48" xmlns="http://www.w3.org/2000/svg"><g fill="#4b4b68"><path d="m34 14h4v2h-4z"/><path d="m34 18h4v2h-4z"/><path d="m34 22h4v2h-4z"/><path d="m34 26h4v2h-4z"/><path d="m34 30h4v2h-4z"/><path d="m42 10h-12v-4l-24 3.8v28.5l24 3.7v-4h12zm-19.1 22.7-4.1-5.8c-.3-.4-.5-.7-.7-1.1-.2.4-.5.8-.8 1.2l-4.1 5h-2.7l6.3-7.8-5.6-7.8h2.6l3 4.2c.5.6.9 1.3 1.3 2 .4-.6.8-1.2 1.3-1.9l3.3-5.3h2.4l-5.7 8.7 6.2 8.6zm17.1 3.3h-10v-4h2v-2h-2v-2h2v-2h-2v-2h2v-2h-2v-2h2v-2h-2v-2h2v-2h-2v-2h10z"/></g></svg>