<svg enable-background="new 0 0 48 48" height="48" viewBox="0 0 48 48" width="48" xmlns="http://www.w3.org/2000/svg"><g fill="#4b4b68"><path d="m10 8c1.103 0 2 .897 2 2s-.897 2-2 2-2-.897-2-2 .897-2 2-2m0-3c-2.761 0-5 2.239-5 5s2.239 5 5 5 5-2.239 5-5-2.239-5-5-5z"/><path d="m10 36c1.103 0 2 .897 2 2s-.897 2-2 2-2-.897-2-2 .897-2 2-2m0-3c-2.761 0-5 2.239-5 5s2.239 5 5 5 5-2.239 5-5-2.239-5-5-5z"/><path d="m10 22c1.103 0 2 .897 2 2s-.897 2-2 2-2-.897-2-2 .897-2 2-2m0-3c-2.761 0-5 2.239-5 5s2.239 5 5 5 5-2.239 5-5-2.239-5-5-5z"/><path d="m40 12h-20c-1.105 0-2-.895-2-2 0-1.105.895-2 2-2h20c1.105 0 2 .895 2 2 0 1.105-.895 2-2 2z"/><path d="m40 26h-20c-1.105 0-2-.895-2-2 0-1.105.895-2 2-2h20c1.105 0 2 .895 2 2 0 1.105-.895 2-2 2z"/><path d="m40 40h-20c-1.105 0-2-.895-2-2 0-1.105.895-2 2-2h20c1.105 0 2 .895 2 2 0 1.105-.895 2-2 2z"/></g></svg>