<svg enable-background="new 0 0 48 48" height="48" viewBox="0 0 48 48" width="48" xmlns="http://www.w3.org/2000/svg"><path d="m38 30h-2v-4c0-2.209-1.791-4-4-4h-6v-4h2c2.209 0 4-1.791 4-4v-4c0-2.209-1.791-4-4-4h-8c-2.209 0-4 1.791-4 4v4c0 2.209 1.791 4 4 4h2v4h-6c-2.209 0-4 1.791-4 4v4h-2c-2.209 0-4 1.791-4 4v4c0 2.209 1.791 4 4 4h8c2.209 0 4-1.791 4-4v-4c0-2.209-1.791-4-4-4h-2v-4h16v4h-2c-2.209 0-4 1.791-4 4v4c0 2.209 1.791 4 4 4h8c2.209 0 4-1.791 4-4v-4c0-2.209-1.791-4-4-4zm-18-16v-4h8v4zm-2 20v4h-8v-4zm20 4h-8v-4h8z" fill="#4b4b68"/></svg>