<svg enable-background="new 0 0 48 48" height="48" viewBox="0 0 48 48" width="48" xmlns="http://www.w3.org/2000/svg"><g fill="#4b4b68"><path d="m4 16c0-1.105.895-2 2-2h8c1.105 0 2 .895 2 2 0 1.105-.895 2-2 2h-8c-1.105 0-2-.895-2-2z"/><path d="m4 32c0-1.105.895-2 2-2h12c1.105 0 2 .895 2 2 0 1.105-.895 2-2 2h-12c-1.105 0-2-.895-2-2z"/><path d="m22 32c0-1.105.895-2 2-2h8c1.105 0 2 .895 2 2 0 1.105-.895 2-2 2h-8c-1.105 0-2-.895-2-2z"/><path d="m30 24c0-1.105.895-2 2-2h10c1.105 0 2 .895 2 2 0 1.105-.895 2-2 2h-10c-1.105 0-2-.895-2-2z"/><path d="m18 16c0-1.105.895-2 2-2h18c1.105 0 2 .895 2 2 0 1.105-.895 2-2 2h-18c-1.105 0-2-.895-2-2z"/><path d="m4 24c0-1.105.895-2 2-2h20c1.105 0 2 .895 2 2 0 1.105-.895 2-2 2h-20c-1.105 0-2-.895-2-2z"/></g></svg>