<svg enable-background="new 0 0 48 48" height="48" viewBox="0 0 48 48" width="48" xmlns="http://www.w3.org/2000/svg"><g fill="#4b4b68"><path d="m6 6v6h4v-2h4v12h-4v4h12v-4h-4v-12h4v2h4v-6z"/><path d="m40 42h-30c-1.105 0-2-.895-2-2 0-1.105.895-2 2-2h30c1.105 0 2 .895 2 2 0 1.105-.895 2-2 2z"/><path d="m40 34h-30c-1.105 0-2-.895-2-2 0-1.105.895-2 2-2h30c1.105 0 2 .895 2 2 0 1.105-.895 2-2 2z"/><path d="m40 26h-12c-1.105 0-2-.895-2-2 0-1.105.895-2 2-2h12c1.105 0 2 .895 2 2 0 1.105-.895 2-2 2z"/><path d="m40 18h-12c-1.105 0-2-.895-2-2 0-1.105.895-2 2-2h12c1.105 0 2 .895 2 2 0 1.105-.895 2-2 2z"/></g></svg>