<svg enable-background="new 0 0 48 48" height="48" viewBox="0 0 48 48" width="48" xmlns="http://www.w3.org/2000/svg"><g fill="#4b4b68"><path d="m6 14v24c0 2.209 1.791 4 4 4h28c2.209 0 4-1.791 4-4v-24zm32 4v4h-4v-4zm-8 12h-4v-4h4zm4-4h4v4h-4zm-12 4h-4v-4h4zm-8 0h-4v-4h4zm-4 4h4v4h-4zm8 0h4v4h-4zm8 0h4v4h-4zm8 0h4v4h-4zm-4-16v4h-4v-4zm-8 0v4h-4v-4zm-8 0v4h-4v-4z"/><path d="m38 6h-4c0-1.105-.895-2-2-2s-2 .895-2 2h-12c0-1.105-.895-2-2-2s-2 .895-2 2h-4c-2.209 0-4 1.791-4 4v2h36v-2c0-2.209-1.791-4-4-4z"/></g></svg>