<svg enable-background="new 0 0 48 48" height="48" viewBox="0 0 48 48" width="48" xmlns="http://www.w3.org/2000/svg"><g fill="#4b4b68"><path d="m33 18.832-9-5.175-9 5.175v10.336l9 5.175 9-5.175z"/><path d="m24 9.2c.092 0 .351.054.553.161l11.955 6.874.032.018.032.018c.213.118.428.441.428.829v13.8c0 .388-.215.711-.428.829l-.032.018-.032.018-12 6.9-.143.082-.038.025c-.061.013-.172.028-.327.028-.092 0-.351-.054-.553-.161l-11.955-6.874-.032-.018-.032-.018c-.213-.118-.428-.441-.428-.829v-13.8c0-.388.215-.711.428-.829l.032-.018.032-.018 12-6.9.143-.082.038-.025c.061-.013.172-.028.327-.028m0-5c-1 0-2.1.2-3 .8l-12 6.9c-1.8 1-3 3-3 5.2v13.8c0 2.2 1.2 4.2 3 5.2l12 6.9c.9.5 2 .8 3 .8s2.1-.2 3-.8l12-6.9c1.8-1 3-3 3-5.2v-13.8c0-2.2-1.2-4.2-3-5.2l-12-6.9c-.9-.5-2-.8-3-.8z"/></g></svg>