<svg enable-background="new 0 0 48 48" height="48" viewBox="0 0 48 48" width="48" xmlns="http://www.w3.org/2000/svg"><g fill="#4b4b68"><path d="m16.21 42h-1.975c-1.192 0-2.119-1.036-1.988-2.221l3.556-32c.112-1.013.968-1.779 1.987-1.779h1.975c1.192 0 2.119 1.036 1.988 2.221l-3.556 32c-.112 1.013-.968 1.779-1.987 1.779z"/><path d="m30.21 42h-1.975c-1.192 0-2.119-1.036-1.988-2.221l3.556-32c.112-1.013.968-1.779 1.987-1.779h1.975c1.192 0 2.119 1.036 1.988 2.221l-3.556 32c-.112 1.013-.968 1.779-1.987 1.779z"/><path d="m39.877 14h-29.976c-1.019 0-1.875.766-1.988 1.779l-.222 2c-.131 1.185.796 2.221 1.988 2.221h29.975c1.019 0 1.875-.766 1.988-1.779l.222-2c.132-1.185-.795-2.221-1.987-2.221z"/><path d="m38.321 28h-29.975c-1.019 0-1.875.766-1.988 1.779l-.222 2c-.132 1.185.795 2.221 1.987 2.221h29.975c1.019 0 1.875-.766 1.988-1.779l.222-2c.132-1.185-.795-2.221-1.987-2.221z"/></g></svg>