<svg enable-background="new 0 0 48 48" height="48" viewBox="0 0 48 48" width="48" xmlns="http://www.w3.org/2000/svg"><g fill="#4b4b68"><path d="m12.051 23h2.009c.282-2.777 1.71-5.401 4.1-7.117l-.999-1.73c-2.857 1.99-4.806 5.187-5.11 8.847z"/><path d="m16.152 12.406-2.993-5.183c-5.573 3.597-8.803 9.544-9.121 15.777h6.013c.312-4.406 2.649-8.252 6.101-10.594z"/><path d="m24 10c2.194 0 4.261.519 6.109 1.418l3.006-5.206c-5.557-2.841-12.322-3.017-18.224.011l2.999 5.195c1.849-.899 3.916-1.418 6.11-1.418z"/><path d="m24 12c-1.827 0-3.554.423-5.106 1.156l.997 1.727c2.681-1.212 5.667-1.137 8.213.008l1.002-1.735c-1.552-.733-3.279-1.156-5.106-1.156z"/><path d="m37.95 23h6.012c-.151-3.071-.998-6.154-2.641-9s-3.889-5.121-6.473-6.788l-2.999 5.194c3.451 2.342 5.788 6.188 6.101 10.594z"/><path d="m30.84 14.153-1.002 1.735c1.117.803 2.09 1.843 2.822 3.111.732 1.269 1.147 2.631 1.283 4h2.006c-.304-3.659-2.253-6.856-5.109-8.846z"/><path d="m35.949 25h-2.009c-.282 2.777-1.71 5.401-4.1 7.117l.999 1.73c2.857-1.99 4.806-5.187 5.11-8.847z"/><path d="m37.95 25c-.312 4.406-2.649 8.252-6.101 10.594l2.993 5.183c5.573-3.597 8.803-9.543 9.122-15.777z"/><path d="m24 38c-2.194 0-4.261-.519-6.109-1.418l-3.006 5.206c5.557 2.841 12.322 3.017 18.224-.011l-2.999-5.195c-1.849.899-3.916 1.418-6.11 1.418z"/><path d="m29.106 34.844-.997-1.727c-2.681 1.212-5.667 1.137-8.213-.008l-1.002 1.735c1.552.733 3.279 1.156 5.106 1.156s3.554-.423 5.106-1.156z"/><path d="m17.16 33.847 1.002-1.735c-1.117-.803-2.09-1.843-2.822-3.111-.732-1.269-1.147-2.631-1.283-4h-2.006c.304 3.659 2.253 6.856 5.109 8.846z"/><path d="m10.05 25h-6.012c.151 3.071.998 6.154 2.642 9 1.643 2.846 3.889 5.121 6.473 6.788l2.999-5.194c-3.452-2.342-5.789-6.188-6.102-10.594z"/></g></svg>