<svg enable-background="new 0 0 22 22" height="22" viewBox="0 0 22 22" width="22" xmlns="http://www.w3.org/2000/svg"><path d="m13.2 3.3h-6.6c-1.21 0-2.2.99-2.2 2.2v11c0 1.21.99 2.2 2.2 2.2h8.8c1.21 0 2.2-.99 2.2-2.2v-8.8z" fill="var(--icon-color, #0303b0)"/><g fill="var(--icon-background-color, #e2e6f3)"><path d="m13.2 4.84 2.86 2.86h-1.76c-.66 0-1.1-.44-1.1-1.1z"/><path d="m16.5 16.5c0 .66-.44 1.1-1.1 1.1h-8.8c-.66 0-1.1-.44-1.1-1.1v-11c0-.66.44-1.1 1.1-1.1h5.5v2.2c0 1.21.99 2.2 2.2 2.2h2.2z"/></g></svg>