<svg enable-background="new 0 0 48 48" height="48" viewBox="0 0 48 48" width="48" xmlns="http://www.w3.org/2000/svg"><g fill="#4b4b68"><path d="m30 40h-2c-1.105 0-2-.895-2-2v-28c0-1.105.895-2 2-2h2c1.105 0 2 .895 2 2v28c0 1.105-.895 2-2 2z"/><path d="m40 40h-2c-1.105 0-2-.895-2-2v-28c0-1.105.895-2 2-2h2c1.105 0 2 .895 2 2v28c0 1.105-.895 2-2 2z"/><path d="m10 40h-2c-1.105 0-2-.895-2-2v-28c0-1.105.895-2 2-2h2c1.105 0 2 .895 2 2v28c0 1.105-.895 2-2 2z"/><path d="m20 40h-2c-1.105 0-2-.895-2-2v-28c0-1.105.895-2 2-2h2c1.105 0 2 .895 2 2v28c0 1.105-.895 2-2 2z"/></g></svg>