<svg enable-background="new 0 0 48 48" height="48" viewBox="0 0 48 48" width="48" xmlns="http://www.w3.org/2000/svg"><path d="m43.032 20.464-8.876-7.397c-.742-.618-1.819-.618-2.561 0l-2.876 2.397c-.96.8-.96 2.273 0 3.073l4.157 3.463-4.156 3.464c-.96.8-.96 2.273 0 3.073l2.876 2.397c.742.618 1.819.618 2.561 0l8.876-7.397c.959-.8.959-2.274-.001-3.073z" fill="#388e3c"/><path d="m28 40.604v-6.934c0-.967-.691-1.795-1.642-1.968l-1.5-.273c-1.228-.223-2.358.72-2.358 1.968v3.103l-3.142-.571c-1.228-.224-2.358.72-2.358 1.967v1.434c0 .967.691 1.795 1.642 1.968l7 1.273c1.228.224 2.358-.72 2.358-1.967z" fill="#388e3c"/><path d="m16.929 33.757.475.475c.489-.214 1.026-.336 1.592-.336.24 0 .482.022.72.065l.784.143v-.707c0-.505.101-.991.278-1.447l-1.02-1.02c-1.134-1.134-1.758-2.641-1.758-4.243v-2.687h9.369c.026-.022.044-.051.07-.073l2.313-1.927-2.313-1.927c-.026-.022-.045-.05-.07-.073h-9.369c-2.209 0-4-1.791-4-4v-10h-8v10c0 4.418 3.582 8 8 8v2.687c0 2.67 1.041 5.182 2.929 7.07z" fill="#707070"/></svg>