<svg enable-background="new 0 0 134 48" height="48" viewBox="0 0 134 48" width="134" xmlns="http://www.w3.org/2000/svg"><path d="m123.601 0-6.082 38.4h-9.6l6.082-38.4h-9.6l-6.082 38.4h-9.6l6.082-38.4h-9.6l-6.082 38.4h-9.6l6.082-38.4h-48l-3.041 19.2h-9.6l3.041-19.2h-9.6l-7.602 48h9.6l3.041-19.2h9.6l-3.041 19.2h9.6l6.082-38.4h28.8l-1.52 9.6h-19.2l-4.562 28.8h86.4l7.602-48zm-73.282 38.4 1.52-9.6h9.6l-1.52 9.6z" fill="#555"/><path d="m5 0h124v48h-124z" fill="none"/><g fill="#fff"><path d="m6.589 21.425c.283-3.169 2.264-4.698 6.169-4.698 2.094 0 3.679.453 4.754 1.415 1.019.849 1.358 1.981 1.358 4.018v6.339c0 1.472.057 1.698.509 2.377h-4.13c-.17-.453-.17-.566-.283-1.075-1.358 1.132-2.32 1.472-3.962 1.472-3.057 0-5.094-1.698-5.094-4.302s1.641-3.962 5.49-4.584l2.207-.34c.906-.113 1.245-.34 1.245-.906 0-.736-.792-1.245-2.094-1.245-1.472 0-2.264.509-2.434 1.641zm8.376 2.943c-.396.17-.792.283-1.472.396l-1.472.283c-1.472.34-2.094.792-2.094 1.641 0 .906.736 1.472 2.037 1.472 1.358 0 2.32-.566 3-1.755v-2.037z"/><path d="m26.51 17.123-.113 2.434c.792-2.264 1.811-2.83 4.754-2.83v3.849c-.453-.057-.679-.057-1.019-.057-1.415 0-2.547.623-3 1.641-.396.906-.509 2.207-.509 4.867v3.905h-4.074v-13.809z"/><path d="m33.02 21.425c.283-3.169 2.264-4.698 6.169-4.698 2.094 0 3.679.453 4.754 1.415 1.019.849 1.358 1.981 1.358 4.018v6.339c0 1.472.057 1.698.509 2.377h-4.132c-.17-.453-.17-.566-.283-1.075-1.358 1.132-2.32 1.472-3.962 1.472-3.056 0-5.094-1.698-5.094-4.301s1.641-3.962 5.49-4.584l2.207-.34c.906-.113 1.245-.34 1.245-.906 0-.736-.792-1.245-2.094-1.245-1.472 0-2.264.509-2.434 1.641zm8.376 2.943c-.396.17-.792.283-1.472.396l-1.472.283c-1.472.34-2.094.792-2.094 1.641 0 .906.736 1.472 2.038 1.472 1.358 0 2.32-.566 3-1.755z"/><path d="m56.62 21.255c-.17-1.019-1.019-1.585-2.32-1.585-1.189 0-1.924.453-1.924 1.132 0 .509.396.736 1.698 1.075l2.547.509c1.698.34 2.547.679 3.169 1.358.623.623 1.019 1.641 1.019 2.773 0 2.886-2.377 4.754-6.226 4.754s-6.226-1.811-6.452-4.867h3.792c.226 1.302 1.075 1.924 2.717 1.924 1.302 0 2.094-.509 2.094-1.358 0-.623-.453-1.019-1.528-1.245l-2.49-.566c-3.056-.623-4.188-1.755-4.188-3.962-.057-2.773 2.151-4.471 5.886-4.471 3.566 0 5.716 1.585 6.056 4.528z"/><path d="m67.728 40h-1.454l3.878-23.273h1.455z"/><path d="m66.273 31.273h-1.455l3.879-23.273h1.454z"/><path d="m76.454 13.818-2.909 17.455h51.636l2.909-17.455zm11.671 14.551h-1.976l-4.54-7.208v7.208h-2.245v-11.647h1.958l4.558 7.31v-7.31h2.245zm9.796 0-.709-2.212h-3.899l-.709 2.212h-2.532l4.051-11.647h2.262l4.051 11.647zm8.396.153c-2.042 0-3.46-.558-4.49-1.908l1.806-1.249c.625.777 1.333 1.164 2.532 1.164 1.35 0 1.806-.591 1.806-1.299 0-.811-.489-1.266-2.38-1.757-2.295-.607-3.444-1.704-3.444-3.629 0-1.84 1.216-3.275 3.984-3.275 1.857 0 3.258.625 4.085 1.908l-1.772 1.266c-.506-.793-1.114-1.181-2.295-1.181-1.064 0-1.638.489-1.638 1.282 0 .911.743 1.317 2.296 1.704 2.431.609 3.528 1.52 3.528 3.579 0 1.909-1.283 3.395-4.018 3.395zm15.384-.153h-2.363v-5.031h-4.034v5.031h-2.363v-11.647h2.363v4.625h4.034v-4.625h2.363z"/><path d="m93.938 24.166h2.633l-1.317-4.101z"/></g><path d="m0 0h134v48h-134z" fill="none"/></svg>