<svg enable-background="new 0 0 12 12" height="12" viewBox="0 0 12 12" width="12" xmlns="http://www.w3.org/2000/svg"><g fill="var(--icon-color, #555)"><path d="m10 3c.542-.042.958.375 1 .917v3.083c.042.542-.375.958-.917 1h-5.083c-.542.042-.958-.375-1-.917v-3.083c-.042-.542.375-.958.917-1zm0-3h-5c-1.083 0-2 .917-2 2v5c0 1.083.917 2 2 2h5c1.083 0 2-.917 2-2v-5c0-1.083-.917-2-2-2z"/><path d="m7 11h-5c-.542.042-.958-.375-1-.917v-5.083c-.042-.542.375-.958.917-1h.083v-1c-1.083 0-2 .917-2 2v5c0 1.083.917 2 2 2h5c1.083 0 2-.917 2-2h-1c.042.542-.375.958-.917 1z"/></g></svg>