<svg enable-background="new 0 0 48 48" height="48" viewBox="0 0 48 48" width="48" xmlns="http://www.w3.org/2000/svg"><g fill="#144717"><path d="m41.65 22.291c.594-.89.382-2.089-.48-2.722l-3.472-2.549c-.451-.331-.743-.837-.804-1.393l-.472-4.281c-.117-1.063-1.05-1.846-2.117-1.777l-4.298.279c-.559.036-1.107-.163-1.512-.55l-3.113-2.976c-.773-.739-1.991-.739-2.764 0l-3.113 2.976c-.405.387-.953.586-1.512.55l-4.298-.279c-1.067-.069-2 .714-2.117 1.777l-.472 4.281c-.061.556-.353 1.062-.804 1.393l-3.472 2.549c-.862.633-1.074 1.832-.48 2.722l2.391 3.583c.311.466.412 1.04.279 1.584l-1.021 4.184c-.254 1.039.355 2.094 1.382 2.394l4.134 1.208c.537.157.984.532 1.232 1.034l1.908 3.862c.474.959 1.618 1.375 2.597.945l3.944-1.732c.513-.225 1.096-.225 1.609 0l3.944 1.732c.979.43 2.124.014 2.597-.945l1.908-3.862c.248-.502.695-.877 1.232-1.034l4.134-1.208c1.027-.3 1.636-1.355 1.382-2.394l-1.021-4.184c-.133-.544-.031-1.118.279-1.584zm-17.65 12.709c-6.075 0-11-4.925-11-11s4.925-11 11-11 11 4.925 11 11-4.925 11-11 11z"/><path d="m20 18v12l10-6z"/></g></svg>