<svg id="svg" version="1.1" xmlns="http://www.w3.org/2000/svg" xmlns:xlink="http://www.w3.org/1999/xlink" width="400" height="400" viewBox="0, 0, 400,400"><g id="svgg"><path id="path0" d="M147.385 25.299 C 147.280 25.575,147.241 57.930,147.297 97.200 L 147.400 168.600 264.200 168.600 L 381.000 168.600 381.000 96.800 L 381.000 25.000 264.288 24.899 C 171.128 24.819,147.537 24.900,147.385 25.299 M180.389 44.348 C 182.772 46.621,182.795 46.863,182.798 69.300 C 182.799 80.615,182.955 89.600,183.150 89.600 C 183.342 89.600,184.854 88.025,186.509 86.100 C 188.164 84.175,189.852 82.234,190.259 81.787 C 191.260 80.688,195.958 75.293,197.200 73.818 C 197.750 73.164,199.013 71.723,200.007 70.615 C 201.000 69.507,202.977 67.250,204.399 65.600 C 205.821 63.950,207.078 62.510,207.193 62.400 C 207.411 62.190,211.886 57.054,213.600 55.046 C 214.150 54.402,215.430 52.958,216.445 51.837 C 217.460 50.717,219.308 48.596,220.550 47.124 C 224.966 41.894,229.077 41.068,232.307 44.763 C 234.871 47.697,234.366 51.137,230.791 55.075 C 230.026 55.917,228.230 57.955,226.800 59.603 C 225.371 61.252,224.107 62.690,223.991 62.800 C 223.876 62.910,222.076 64.980,219.991 67.400 C 217.906 69.820,216.104 71.890,215.988 72.000 C 215.871 72.110,213.264 75.080,210.196 78.600 C 207.127 82.120,204.522 85.090,204.408 85.200 C 204.293 85.310,203.030 86.750,201.600 88.400 C 200.170 90.050,198.908 91.490,198.795 91.600 C 197.982 92.390,190.800 100.763,190.800 100.920 C 190.800 101.030,195.975 101.200,202.300 101.299 C 217.190 101.532,220.554 102.541,226.606 108.594 C 232.649 114.637,233.668 118.020,233.900 132.811 C 234.147 148.579,233.057 151.343,226.854 150.676 C 221.895 150.142,221.437 148.876,221.200 135.072 L 221.000 123.400 219.888 121.136 C 216.741 114.727,215.031 114.200,197.400 114.200 L 183.000 114.200 182.798 130.000 C 182.569 147.976,182.587 147.879,179.193 149.948 C 176.216 151.763,172.148 150.478,170.494 147.201 L 169.588 145.406 169.694 96.203 C 169.796 48.805,169.828 46.954,170.554 45.754 C 172.627 42.331,177.539 41.629,180.389 44.348 M289.000 42.787 C 300.493 44.170,308.970 52.448,310.820 64.095 C 312.421 74.178,306.315 85.328,296.800 89.696 C 292.279 91.771,292.721 91.723,276.600 91.873 C 268.240 91.950,260.995 92.104,260.500 92.214 L 259.600 92.415 259.600 119.213 C 259.600 139.908,259.486 146.215,259.100 146.905 C 256.210 152.077,250.190 152.077,247.300 146.905 C 246.908 146.203,246.800 135.413,246.800 96.741 L 246.800 47.470 247.813 45.742 C 248.869 43.940,249.784 43.258,251.800 42.771 C 253.487 42.364,285.601 42.377,289.000 42.787 M355.200 43.163 C 362.123 47.059,358.700 55.314,350.000 55.702 L 347.800 55.800 347.690 96.000 C 347.630 118.110,347.678 136.605,347.798 137.100 C 347.997 137.926,348.244 138.000,350.782 138.000 C 358.861 138.000,362.001 146.530,355.199 150.001 C 352.760 151.245,329.471 151.229,327.254 149.981 C 320.906 146.408,323.647 138.485,331.400 138.000 L 334.600 137.800 334.702 96.700 L 334.804 55.600 332.102 55.589 C 323.241 55.552,320.470 44.018,329.000 42.678 C 332.075 42.195,354.208 42.604,355.200 43.163 M259.600 67.422 L 259.600 79.245 274.500 79.122 C 289.050 79.003,289.443 78.979,291.217 78.095 C 297.651 74.890,300.017 66.655,296.134 60.979 C 294.535 58.642,291.841 56.400,290.632 56.400 C 290.310 56.400,289.936 56.220,289.800 56.000 C 289.642 55.745,284.129 55.600,274.576 55.600 L 259.600 55.600 259.600 67.422 M105.600 295.400 L 105.600 374.800 112.200 374.800 L 118.800 374.800 118.800 295.400 L 118.800 216.000 112.200 216.000 L 105.600 216.000 105.600 295.400 M266.800 300.800 L 266.800 374.800 273.400 374.800 L 280.000 374.800 280.000 300.800 L 280.000 226.800 273.400 226.800 L 266.800 226.800 266.800 300.800 M158.899 307.500 L 159.000 375.000 165.800 375.000 L 172.600 375.000 172.701 307.500 L 172.802 240.000 165.800 240.000 L 158.798 240.000 158.899 307.500 " stroke="none" fill="#58cbf3" fill-rule="evenodd"></path><path id="path1" d="M51.200 274.767 C 51.200 329.529,51.309 374.619,51.443 374.967 C 51.651 375.511,52.668 375.600,58.643 375.600 L 65.600 375.600 65.600 275.400 L 65.600 175.200 58.400 175.200 L 51.200 175.200 51.200 274.767 M212.800 335.000 L 212.800 375.200 219.600 375.200 L 226.400 375.200 226.400 335.000 L 226.400 294.800 219.600 294.800 L 212.800 294.800 212.800 335.000 " stroke="none" fill="#fbb779" fill-rule="evenodd"></path><path id="path2" d="M138.000 11.600 C 138.000 11.820,137.775 12.000,137.500 12.000 C 136.725 12.001,134.800 13.816,134.800 14.547 C 134.800 14.906,134.620 15.200,134.400 15.200 C 134.135 15.200,134.000 42.604,134.000 96.611 L 134.000 178.021 135.789 179.811 L 137.579 181.600 264.389 181.600 C 348.663 181.600,391.200 181.466,391.200 181.200 C 391.200 180.980,391.393 180.800,391.629 180.800 C 392.423 180.800,394.000 178.543,394.000 177.405 C 394.000 177.072,394.180 176.800,394.400 176.800 C 394.954 176.800,394.954 16.943,394.400 16.600 C 394.180 16.464,394.000 15.997,394.000 15.563 C 394.000 14.753,392.031 12.592,390.480 11.700 C 389.359 11.055,138.000 10.955,138.000 11.600 M9.427 22.124 C 7.893 23.068,6.000 25.190,6.000 25.963 C 6.000 26.397,5.820 26.864,5.600 27.000 C 5.045 27.343,5.045 383.057,5.600 383.400 C 5.820 383.536,6.000 384.003,6.000 384.437 C 6.000 385.247,7.969 387.408,9.520 388.300 C 10.642 388.945,388.000 389.045,388.000 388.400 C 388.000 388.180,388.288 388.000,388.640 388.000 C 389.588 388.000,391.600 385.660,391.600 384.558 C 391.600 384.031,391.780 383.600,392.000 383.600 C 392.220 383.600,392.400 382.801,392.400 381.824 C 392.400 380.847,392.220 379.936,392.000 379.800 C 391.780 379.664,391.600 379.132,391.600 378.618 C 391.600 377.594,389.011 375.022,388.376 375.415 C 388.169 375.543,388.000 375.457,388.000 375.224 C 388.000 374.928,373.813 374.800,341.000 374.800 L 294.000 374.800 294.000 296.600 C 294.000 244.733,293.865 218.400,293.600 218.400 C 293.380 218.400,293.200 217.860,293.200 217.200 C 293.200 216.540,293.020 216.000,292.800 216.000 C 292.580 216.000,292.399 215.775,292.399 215.500 C 292.398 215.225,291.859 214.640,291.200 214.200 C 290.541 213.760,290.002 213.265,290.001 213.100 C 290.001 212.935,282.530 212.800,273.400 212.800 C 262.600 212.800,256.800 212.940,256.800 213.200 C 256.800 213.420,256.530 213.600,256.200 213.600 C 255.870 213.600,255.600 213.780,255.600 214.000 C 255.600 214.220,255.330 214.400,255.000 214.400 C 254.667 214.400,254.400 214.756,254.400 215.200 C 254.400 215.640,254.220 216.000,254.000 216.000 C 253.780 216.000,253.600 216.360,253.600 216.800 C 253.600 217.240,253.420 217.600,253.200 217.600 C 252.935 217.600,252.800 244.067,252.800 296.200 L 252.800 374.800 246.600 374.800 L 240.400 374.800 240.400 330.600 C 240.400 305.610,240.248 286.400,240.050 286.400 C 239.857 286.400,239.595 285.874,239.466 285.231 C 239.217 283.985,237.794 282.400,236.925 282.400 C 236.636 282.400,236.400 282.220,236.400 282.000 C 236.400 281.740,230.594 281.600,219.781 281.600 L 203.162 281.600 201.381 283.356 C 200.046 284.672,199.600 285.417,199.600 286.332 C 199.600 287.004,199.420 287.664,199.200 287.800 C 198.937 287.962,198.800 302.937,198.800 331.424 L 198.800 374.800 192.600 374.800 L 186.400 374.800 186.400 302.779 L 186.400 230.758 185.440 229.345 C 184.912 228.567,183.608 227.490,182.542 226.951 L 180.605 225.970 165.709 226.018 C 152.109 226.062,150.682 226.130,149.307 226.803 C 147.782 227.549,146.400 228.881,146.400 229.605 C 146.400 229.822,146.220 230.000,146.000 230.000 C 145.735 230.000,145.600 254.400,145.600 302.400 L 145.600 374.800 139.000 374.800 L 132.400 374.800 132.400 290.547 C 132.400 209.585,132.372 206.269,131.672 205.647 C 131.272 205.291,130.828 204.685,130.685 204.300 C 130.542 203.915,130.149 203.600,129.813 203.600 C 129.476 203.600,129.200 203.420,129.200 203.200 C 129.200 202.980,128.660 202.800,128.000 202.800 C 127.340 202.800,126.800 202.620,126.800 202.400 C 126.800 202.141,121.733 202.000,112.400 202.000 C 103.067 202.000,98.000 202.141,98.000 202.400 C 98.000 202.620,97.364 202.800,96.587 202.800 C 94.554 202.800,92.635 204.812,92.046 207.561 C 91.726 209.051,91.600 233.016,91.600 292.220 L 91.600 374.800 85.400 374.800 L 79.200 374.800 79.200 271.800 C 79.200 203.400,79.066 168.800,78.800 168.800 C 78.580 168.800,78.400 167.990,78.400 167.000 C 78.400 166.010,78.263 165.200,78.095 165.200 C 77.927 165.200,77.612 164.795,77.395 164.300 C 77.178 163.805,76.595 163.222,76.100 163.005 C 75.605 162.788,75.200 162.473,75.200 162.305 C 75.200 161.748,42.499 161.937,41.517 162.500 C 40.152 163.282,38.800 164.705,38.800 165.358 C 38.800 165.685,38.620 166.064,38.400 166.200 C 38.135 166.364,38.000 201.604,38.000 270.624 L 38.000 374.800 28.600 374.800 L 19.200 374.800 19.200 200.200 C 19.200 84.067,19.066 25.600,18.800 25.600 C 18.580 25.600,18.400 25.322,18.400 24.982 C 18.400 24.193,16.623 22.400,15.842 22.400 C 15.515 22.400,15.136 22.220,15.000 22.000 C 14.658 21.446,10.372 21.541,9.427 22.124 M381.501 96.476 L 381.602 168.752 264.901 168.876 C 200.715 168.944,147.885 168.934,147.500 168.853 C 146.780 168.702,146.350 24.984,147.067 24.266 C 147.214 24.119,199.999 24.044,264.367 24.099 L 381.400 24.200 381.501 96.476 M172.892 44.240 C 170.222 46.344,170.400 42.580,170.400 96.800 C 170.400 150.757,170.248 147.383,172.756 149.168 C 174.214 150.207,177.570 150.299,179.184 149.346 C 181.786 147.809,181.780 147.850,182.000 130.000 L 182.200 113.800 197.400 113.800 L 212.600 113.800 214.600 114.865 C 220.646 118.086,221.328 119.988,221.604 134.400 C 221.763 142.733,221.979 146.496,222.337 147.207 C 223.882 150.275,228.672 151.033,231.433 148.645 L 233.000 147.291 233.000 133.945 C 233.000 117.343,232.425 115.231,226.202 108.991 C 220.085 102.858,218.190 102.295,202.732 102.019 C 188.211 101.760,188.898 102.002,192.200 98.303 C 193.080 97.318,194.719 95.451,195.841 94.155 C 199.669 89.739,206.971 81.401,207.186 81.200 C 207.304 81.090,208.571 79.653,210.000 78.006 C 211.430 76.360,213.074 74.470,213.654 73.806 C 214.234 73.143,216.198 70.890,218.018 68.800 C 221.216 65.128,224.238 61.687,228.000 57.432 C 233.777 50.898,234.642 48.191,231.906 45.200 C 228.186 41.133,225.645 42.111,218.491 50.361 C 215.706 53.573,213.148 56.470,212.806 56.800 C 212.464 57.130,211.670 58.030,211.042 58.800 C 210.414 59.570,208.863 61.370,207.596 62.800 C 206.329 64.230,203.253 67.740,200.760 70.600 C 198.268 73.460,196.132 75.890,196.014 76.000 C 195.896 76.110,194.630 77.549,193.200 79.197 C 191.770 80.846,190.208 82.646,189.728 83.197 C 189.249 83.749,188.529 84.579,188.128 85.043 C 184.221 89.565,183.025 90.800,182.552 90.800 C 182.089 90.800,182.000 87.298,182.000 69.180 C 182.000 45.337,182.090 46.225,179.463 44.221 C 177.589 42.791,174.719 42.799,172.892 44.240 M250.166 43.956 C 249.473 44.378,248.551 45.516,248.066 46.550 L 247.200 48.391 247.200 96.536 C 247.200 130.318,247.331 145.086,247.638 146.040 C 249.243 151.024,256.329 151.445,258.583 146.691 C 259.110 145.579,259.209 141.677,259.298 118.600 L 259.400 91.800 275.000 91.583 C 290.411 91.369,291.138 91.308,294.700 89.945 C 299.277 88.192,303.191 85.244,305.665 81.687 C 307.307 79.326,309.200 75.659,309.200 74.839 C 309.200 74.466,309.412 73.948,309.670 73.690 C 310.877 72.483,310.111 60.208,308.730 58.620 C 308.549 58.411,308.400 58.016,308.400 57.741 C 308.400 54.163,299.652 46.082,294.000 44.440 C 293.010 44.152,291.787 43.755,291.281 43.558 C 289.239 42.762,251.525 43.126,250.166 43.956 M326.892 44.240 C 321.816 48.240,324.375 54.341,331.283 54.706 C 333.681 54.832,334.739 55.057,335.100 55.517 C 335.626 56.186,335.866 135.566,335.348 137.500 C 335.126 138.330,334.877 138.400,332.172 138.400 C 324.701 138.400,321.310 145.857,327.199 149.336 C 328.762 150.259,353.387 150.344,355.120 149.432 C 361.326 146.165,358.114 138.599,350.400 138.312 L 347.400 138.200 347.290 97.400 C 347.163 50.312,346.866 54.800,350.110 54.800 C 356.029 54.800,359.584 51.313,357.858 47.200 C 356.198 43.243,356.014 43.199,341.105 43.204 L 328.200 43.209 326.892 44.240 M290.600 55.587 C 302.363 61.255,300.972 76.418,288.400 79.576 C 287.188 79.881,282.154 79.991,273.000 79.914 L 259.400 79.800 259.294 67.804 C 259.236 61.207,259.279 55.570,259.391 55.278 C 259.701 54.472,288.884 54.760,290.600 55.587 M65.748 175.700 C 66.117 177.076,66.034 374.528,65.664 375.110 C 65.418 375.498,63.679 375.593,58.370 375.510 L 51.400 375.400 51.298 275.600 C 51.241 220.710,51.281 175.575,51.385 175.300 C 51.786 174.243,65.460 174.624,65.748 175.700 M118.701 215.452 L 119.602 215.694 119.501 295.747 L 119.400 375.800 113.000 375.914 C 109.480 375.977,106.195 375.929,105.700 375.807 L 104.800 375.585 104.800 295.622 C 104.800 219.803,104.836 215.649,105.500 215.476 C 106.566 215.197,117.675 215.178,118.701 215.452 M280.600 300.800 L 280.600 375.800 274.200 375.914 C 270.680 375.977,267.395 375.929,266.900 375.807 L 266.000 375.585 266.000 300.859 C 266.000 259.760,266.124 226.009,266.276 225.858 C 266.427 225.706,269.712 225.631,273.576 225.691 L 280.600 225.800 280.600 300.800 M173.501 307.492 L 173.602 375.584 172.701 375.806 C 172.206 375.928,168.830 375.977,165.200 375.914 L 158.600 375.800 158.497 308.000 C 158.441 270.710,158.482 239.971,158.588 239.691 C 158.737 239.299,160.462 239.207,166.091 239.291 L 173.400 239.400 173.501 307.492 M226.400 335.000 L 226.400 375.200 219.600 375.200 L 212.800 375.200 212.800 335.000 L 212.800 294.800 219.600 294.800 L 226.400 294.800 226.400 335.000 " stroke="none" fill="#5c246c" fill-rule="evenodd"></path><path id="path3" d="M151.900 24.698 C 154.155 24.770,157.845 24.770,160.100 24.698 C 162.355 24.627,160.510 24.569,156.000 24.569 C 151.490 24.569,149.645 24.627,151.900 24.698 M261.300 42.700 C 266.085 42.763,273.915 42.763,278.700 42.700 C 283.485 42.636,279.570 42.584,270.000 42.584 C 260.430 42.584,256.515 42.636,261.300 42.700 M335.500 42.699 C 338.635 42.767,343.765 42.767,346.900 42.699 C 350.035 42.632,347.470 42.576,341.200 42.576 C 334.930 42.576,332.365 42.632,335.500 42.699 M182.491 68.876 C 182.441 80.248,182.535 89.636,182.700 89.738 C 182.973 89.907,182.968 74.622,182.690 55.600 C 182.630 51.530,182.540 57.504,182.491 68.876 M266.925 55.499 C 270.624 55.566,276.564 55.565,280.125 55.499 C 283.686 55.433,280.660 55.379,273.400 55.379 C 266.140 55.379,263.226 55.433,266.925 55.499 M330.300 55.489 C 331.015 55.578,332.185 55.578,332.900 55.489 C 333.615 55.401,333.030 55.328,331.600 55.328 C 330.170 55.328,329.585 55.401,330.300 55.489 M347.861 55.500 C 347.759 55.665,348.603 55.748,349.738 55.684 C 353.147 55.494,353.563 55.312,350.724 55.254 C 349.252 55.225,347.964 55.335,347.861 55.500 M334.993 96.600 C 334.993 119.040,335.041 128.161,335.100 116.869 C 335.159 105.578,335.159 87.218,335.100 76.069 C 335.041 64.921,334.993 74.160,334.993 96.600 M310.920 67.200 C 310.920 68.410,310.995 68.905,311.087 68.300 C 311.178 67.695,311.178 66.705,311.087 66.100 C 310.995 65.495,310.920 65.990,310.920 67.200 M298.101 67.400 C 298.105 68.280,298.187 68.593,298.283 68.095 C 298.379 67.598,298.375 66.878,298.275 66.495 C 298.175 66.113,298.096 66.520,298.101 67.400 M195.676 101.499 C 198.468 101.567,203.148 101.568,206.076 101.499 C 209.004 101.431,206.720 101.375,201.000 101.374 C 195.280 101.374,192.884 101.430,195.676 101.499 M182.582 114.501 C 182.477 114.777,182.437 121.752,182.495 130.001 L 182.601 145.000 182.800 129.500 C 182.910 120.975,182.949 114.000,182.887 114.000 C 182.826 114.000,182.688 114.226,182.582 114.501 M233.775 134.600 C 233.775 140.540,233.831 143.026,233.899 140.124 C 233.967 137.222,233.967 132.362,233.899 129.324 C 233.831 126.286,233.775 128.660,233.775 134.600 M105.076 215.858 C 104.547 216.386,104.750 374.590,105.280 375.120 C 106.301 376.141,119.146 375.759,119.402 374.700 C 119.521 374.205,119.570 338.250,119.509 294.800 L 119.400 215.800 112.376 215.691 C 108.512 215.631,105.227 215.706,105.076 215.858 M118.800 295.400 L 118.800 374.800 112.200 374.800 L 105.600 374.800 105.600 295.400 L 105.600 216.000 112.200 216.000 L 118.800 216.000 118.800 295.400 M266.499 300.700 L 266.600 375.400 273.500 375.509 L 280.400 375.619 280.400 300.809 L 280.400 226.000 273.399 226.000 L 266.398 226.000 266.499 300.700 M280.000 300.800 L 280.000 374.800 273.400 374.800 L 266.800 374.800 266.800 300.800 L 266.800 226.800 273.400 226.800 L 280.000 226.800 280.000 300.800 M162.520 239.898 C 164.455 239.972,167.515 239.971,169.320 239.897 C 171.124 239.823,169.540 239.763,165.800 239.764 C 162.060 239.764,160.584 239.825,162.520 239.898 M172.799 307.600 L 172.600 375.000 166.000 375.215 L 159.400 375.430 165.851 375.515 C 170.874 375.581,172.402 375.480,172.752 375.058 C 173.083 374.659,173.175 356.663,173.101 307.358 L 172.999 240.200 172.799 307.600 " stroke="none" fill="#54959d" fill-rule="evenodd"></path><path id="path4" d="M146.985 24.499 C 146.880 24.775,146.841 57.400,146.898 97.000 L 147.002 169.000 147.101 96.943 C 147.180 39.708,147.303 24.856,147.700 24.743 C 147.975 24.664,200.625 24.656,264.699 24.724 L 381.198 24.849 381.301 96.924 L 381.403 169.000 381.402 96.600 L 381.400 24.200 264.288 24.099 C 170.808 24.019,147.137 24.100,146.985 24.499 M172.759 43.705 C 169.580 45.823,169.813 41.871,169.693 95.600 C 169.621 127.988,169.722 144.057,170.008 145.436 C 170.416 147.404,172.806 150.527,173.428 149.905 C 173.560 149.773,173.283 149.459,172.813 149.207 C 170.237 147.828,170.403 151.441,170.401 96.880 C 170.400 42.459,170.215 46.297,172.937 44.221 C 175.570 42.213,179.375 43.099,181.238 46.155 C 181.655 46.840,181.998 47.158,181.999 46.862 C 182.007 43.658,175.941 41.586,172.759 43.705 M224.520 43.366 C 224.037 43.634,222.618 45.011,221.368 46.427 C 220.118 47.842,218.534 49.632,217.848 50.403 C 217.161 51.175,215.430 53.154,214.000 54.800 C 212.570 56.446,210.838 58.425,210.150 59.197 C 207.726 61.920,194.579 76.951,193.000 78.806 C 187.376 85.413,183.054 90.014,182.754 89.714 C 182.563 89.523,182.359 79.925,182.300 68.384 L 182.193 47.400 182.096 69.100 C 182.015 87.333,182.088 90.800,182.552 90.800 C 183.025 90.800,184.221 89.565,188.128 85.043 C 188.529 84.579,189.249 83.749,189.728 83.197 C 190.208 82.646,191.770 80.846,193.200 79.197 C 194.630 77.549,195.896 76.110,196.014 76.000 C 196.132 75.890,198.268 73.460,200.760 70.600 C 203.253 67.740,206.329 64.230,207.596 62.800 C 208.863 61.370,210.414 59.570,211.042 58.800 C 211.670 58.030,212.464 57.130,212.806 56.800 C 213.148 56.470,215.706 53.573,218.491 50.361 C 225.645 42.111,228.186 41.133,231.906 45.200 C 234.642 48.191,233.777 50.898,228.000 57.432 C 224.238 61.687,221.216 65.128,218.018 68.800 C 216.198 70.890,214.234 73.143,213.654 73.806 C 213.074 74.470,211.430 76.360,210.000 78.006 C 208.571 79.653,207.304 81.090,207.186 81.200 C 206.971 81.401,199.669 89.739,195.841 94.155 C 194.719 95.451,193.080 97.318,192.200 98.303 C 188.898 102.002,188.211 101.760,202.732 102.017 C 214.130 102.218,215.154 102.295,217.176 103.107 C 218.373 103.588,219.433 103.900,219.532 103.802 C 219.759 103.575,217.981 102.868,215.400 102.159 C 213.926 101.754,210.431 101.608,202.100 101.605 C 192.986 101.601,190.800 101.497,190.800 101.070 C 190.800 100.550,194.135 96.635,206.843 82.235 C 207.636 81.336,210.404 78.170,212.992 75.200 C 215.581 72.230,218.729 68.630,219.988 67.200 C 234.299 50.941,233.596 51.890,233.599 48.838 C 233.602 44.300,228.444 41.191,224.520 43.366 M250.600 43.267 C 250.160 43.510,249.379 44.090,248.865 44.555 C 246.711 46.502,246.800 44.247,246.801 96.949 C 246.803 151.337,246.598 147.096,249.337 149.291 C 250.856 150.508,250.986 150.048,249.505 148.700 C 247.104 146.516,247.200 148.684,247.200 96.536 L 247.200 48.391 248.066 46.550 C 249.706 43.059,248.727 43.203,270.881 43.201 C 281.596 43.201,290.776 43.361,291.281 43.558 C 291.787 43.755,293.010 44.152,294.000 44.440 C 299.652 46.082,308.400 54.163,308.400 57.741 C 308.400 58.016,308.549 58.411,308.730 58.620 C 309.713 59.750,310.199 62.897,310.179 68.000 C 310.163 72.110,310.240 72.970,310.504 71.600 C 312.847 59.397,304.558 46.568,292.280 43.399 C 289.342 42.640,251.947 42.522,250.600 43.267 M327.023 43.581 C 321.387 47.297,323.798 54.687,330.786 55.116 C 332.444 55.218,334.115 55.465,334.500 55.665 C 335.245 56.052,335.621 136.318,334.883 137.480 C 334.710 137.752,333.373 138.021,331.789 138.101 L 329.000 138.243 332.053 138.322 C 334.913 138.395,335.122 138.343,335.348 137.500 C 335.866 135.566,335.626 56.186,335.100 55.517 C 334.739 55.057,333.681 54.832,331.283 54.706 C 324.356 54.340,321.789 48.147,326.937 44.221 L 328.276 43.200 341.143 43.200 C 355.902 43.200,355.866 43.192,357.625 46.712 C 358.034 47.530,358.375 47.930,358.383 47.600 C 358.407 46.571,356.866 44.429,355.504 43.598 C 353.516 42.386,328.858 42.371,327.023 43.581 M357.855 50.644 C 357.214 53.359,354.528 54.800,350.110 54.800 C 346.866 54.800,347.163 50.312,347.290 97.400 L 347.400 138.200 350.600 138.237 L 353.800 138.274 350.800 138.037 L 347.800 137.800 347.800 96.600 L 347.800 55.400 351.200 55.187 C 355.605 54.911,358.854 52.586,358.304 50.104 C 358.199 49.629,358.053 49.804,357.855 50.644 M259.391 55.278 C 259.279 55.570,259.236 61.207,259.294 67.804 L 259.400 79.800 273.000 79.914 C 282.154 79.991,287.188 79.881,288.400 79.576 C 300.972 76.418,302.363 61.255,290.600 55.587 C 288.884 54.760,259.701 54.472,259.391 55.278 M291.200 56.464 C 300.321 60.757,300.629 72.635,291.755 77.851 L 289.800 79.000 274.700 79.118 L 259.600 79.236 259.600 67.451 C 259.600 58.407,259.716 55.616,260.100 55.447 C 260.375 55.326,266.990 55.273,274.800 55.328 L 289.000 55.429 291.200 56.464 M309.467 73.867 C 309.320 74.013,309.200 74.445,309.200 74.826 C 309.200 75.657,307.318 79.310,305.665 81.687 C 303.674 84.550,299.840 87.739,296.800 89.059 C 291.486 91.366,291.608 91.352,275.000 91.583 L 259.400 91.800 259.298 118.600 C 259.185 148.099,259.285 146.929,256.692 148.973 C 255.247 150.112,255.480 150.359,257.037 149.339 C 259.671 147.613,259.600 148.458,259.600 118.848 L 259.600 92.064 275.500 91.902 C 291.394 91.739,291.401 91.739,294.011 90.723 C 300.467 88.211,305.193 84.177,307.935 78.840 C 309.736 75.335,310.509 72.825,309.467 73.867 M221.774 105.158 C 221.923 105.399,222.416 105.795,222.871 106.038 C 223.462 106.354,223.620 106.356,223.426 106.042 C 223.277 105.801,222.784 105.405,222.329 105.162 C 221.738 104.846,221.580 104.844,221.774 105.158 M224.000 106.542 C 224.000 106.665,225.044 107.809,226.320 109.083 C 227.597 110.357,229.142 112.269,229.756 113.331 C 230.369 114.394,230.958 115.176,231.064 115.069 C 231.315 114.819,229.408 111.774,227.948 110.093 C 226.635 108.582,224.000 106.211,224.000 106.542 M182.267 113.867 C 182.120 114.013,182.000 121.234,182.000 129.912 C 182.000 149.269,181.945 149.459,176.200 150.011 C 174.090 150.215,173.939 150.283,174.948 150.577 C 176.776 151.109,179.505 150.056,180.963 148.255 L 182.200 146.727 182.400 130.463 L 182.600 114.200 196.800 113.992 L 211.000 113.785 196.767 113.692 C 188.938 113.642,182.413 113.720,182.267 113.867 M213.487 114.844 C 216.869 116.144,220.023 119.779,220.911 123.400 C 221.086 124.114,221.112 124.101,221.154 123.284 C 221.314 120.123,215.269 113.929,212.113 114.021 C 211.721 114.032,212.339 114.403,213.487 114.844 M231.401 116.300 C 231.558 116.685,231.879 117.630,232.114 118.400 C 232.352 119.180,232.605 119.526,232.685 119.181 C 232.837 118.521,231.750 115.600,231.352 115.600 C 231.221 115.600,231.243 115.915,231.401 116.300 M233.000 133.659 L 233.000 147.290 231.433 148.645 C 229.996 149.888,229.804 150.611,231.209 149.487 C 233.643 147.541,233.602 147.808,233.572 134.046 C 233.556 127.091,233.421 121.091,233.272 120.713 C 233.122 120.336,233.000 126.161,233.000 133.659 M221.282 134.916 C 221.205 145.003,221.248 145.726,222.016 147.232 C 223.306 149.759,226.909 151.451,228.926 150.477 C 229.658 150.123,229.447 150.050,227.625 150.027 C 222.327 149.961,221.861 148.817,221.586 135.200 L 221.364 124.200 221.282 134.916 M354.200 138.800 C 354.336 139.020,354.675 139.200,354.954 139.200 C 355.673 139.200,357.025 140.757,357.732 142.400 C 358.064 143.170,358.349 143.557,358.367 143.260 C 358.434 142.162,357.026 139.883,355.832 139.154 C 354.474 138.326,353.819 138.184,354.200 138.800 M325.450 140.414 C 324.406 141.654,324.036 142.672,324.800 142.200 C 325.020 142.064,325.200 141.760,325.200 141.523 C 325.200 141.287,325.589 140.757,326.064 140.344 C 326.539 139.932,326.832 139.498,326.714 139.381 C 326.596 139.263,326.027 139.728,325.450 140.414 M324.168 144.730 C 324.476 150.175,326.234 150.800,341.236 150.800 C 355.366 150.800,357.319 150.270,358.204 146.200 C 358.402 145.290,358.362 145.145,358.038 145.600 C 357.804 145.930,357.609 146.423,357.606 146.695 C 357.597 147.419,356.362 148.778,355.120 149.432 C 353.402 150.336,328.764 150.260,327.216 149.346 C 325.772 148.493,324.695 146.643,324.335 144.400 C 324.047 142.601,324.047 142.601,324.168 144.730 M251.600 150.400 C 251.930 150.613,252.650 150.788,253.200 150.788 C 253.750 150.788,254.470 150.613,254.800 150.400 C 255.227 150.124,254.766 150.012,253.200 150.012 C 251.634 150.012,251.173 150.124,251.600 150.400 M151.921 169.099 C 154.188 169.170,157.788 169.170,159.921 169.098 C 162.055 169.026,160.200 168.968,155.800 168.968 C 151.400 168.968,149.655 169.027,151.921 169.099 M54.880 175.098 C 56.794 175.171,60.034 175.171,62.080 175.098 C 64.126 175.026,62.560 174.966,58.600 174.965 C 54.640 174.965,52.966 175.024,54.880 175.098 M65.797 275.400 C 65.797 330.180,65.843 352.531,65.900 325.068 C 65.957 297.605,65.957 252.785,65.900 225.468 C 65.843 198.151,65.797 220.620,65.797 275.400 M109.119 215.498 C 110.944 215.572,113.824 215.572,115.519 215.497 C 117.214 215.422,115.720 215.361,112.200 215.362 C 108.680 215.362,107.294 215.424,109.119 215.498 M266.276 225.858 C 266.124 226.009,266.000 259.760,266.000 300.859 L 266.000 375.585 266.900 375.807 C 267.395 375.929,270.680 375.977,274.200 375.914 L 280.600 375.800 280.600 300.800 L 280.600 225.800 273.576 225.691 C 269.712 225.631,266.427 225.706,266.276 225.858 M280.400 300.809 L 280.400 375.619 273.500 375.509 L 266.600 375.400 266.499 300.700 L 266.398 226.000 273.399 226.000 L 280.400 226.000 280.400 300.809 M158.588 239.691 C 158.482 239.971,158.441 270.710,158.497 308.000 L 158.600 375.800 165.200 375.914 C 168.830 375.977,172.206 375.928,172.701 375.806 L 173.602 375.584 173.501 307.492 L 173.400 239.400 166.091 239.291 C 160.462 239.207,158.737 239.299,158.588 239.691 M172.720 240.080 C 173.418 240.778,173.418 374.422,172.720 375.120 C 172.214 375.626,160.670 375.832,159.433 375.357 C 158.772 375.104,158.409 240.525,159.067 239.867 C 159.568 239.365,172.203 239.563,172.720 240.080 M104.800 375.112 C 104.800 376.181,119.222 376.356,119.437 375.290 C 119.494 375.010,119.449 374.965,119.337 375.190 C 119.033 375.803,105.898 375.738,105.280 375.120 C 104.915 374.755,104.800 374.753,104.800 375.112 " stroke="none" fill="#5c67a4" fill-rule="evenodd"></path></g></svg>