<svg enable-background="new 0 0 48 48" height="48" viewBox="0 0 48 48" width="48" xmlns="http://www.w3.org/2000/svg"><path d="m41 24c-1.108 0-2.064.607-2.584 1.5h-5.432l-2.478 6.193-5.078-26.412-7.05 19.975-3.378-3.377-3.621 3.621-7.379 1.5 8.621 1.5 2.379-2.379 4.623 4.623 4.95-14.025 4.921 25.588 5.522-13.807h3.4c.52.893 1.476 1.5 2.584 1.5 1.657 0 3-1.343 3-3s-1.343-3-3-3z" fill="#b71c1c"/><g fill="#b0bec5"><path d="m16 20.156c.147.085.288.183.414.309l1.133 1.133.453-1.282v-2.316h.818l.706-2h-1.524v-4h-2v4h-4v2h4z"/><path d="m29.91 18h2.09v5.771c.295-.168.63-.271.984-.271h1.016v-5.5h4v-2h-4v-4h-2v4h-2.474z"/><path d="m34.97 34h3.03v-2h-2.23z"/><path d="m33.37 38h.63v-1.576z"/><path d="m24.002 24.344-.584 1.656h.582v6h-2.84c-.278.34-.654.595-1.096.695-.147.033-.295.05-.442.05-.524 0-1.035-.207-1.414-.586l-.158-.159h-.05v-.05l-2-2v2.05h-4v2h4v4h2v-4h6v4h2v-3.267z"/></g><path d="m28.756 12h9.244v11.038c.592-.451 1.269-.781 2-.934v-12.104h-11.628z" fill="#263238"/><path d="m10.39 23.66 1.61-1.61v-10.05h8.935l.706-2h-11.641v13.739z" fill="#263238"/><path d="m26.628 38h-14.628v-7.578l-2-.348v9.926h17.013z" fill="#263238"/><path d="m38 30.962v7.038h-4.63l-.8 2h7.43v-8.104c-.731-.152-1.408-.483-2-.934z" fill="#263238"/></svg>