<svg enable-background="new 0 0 48 48" height="48" viewBox="0 0 48 48" width="48" xmlns="http://www.w3.org/2000/svg"><path d="m10.39 23.66 3.195-3.195c.391-.391.902-.586 1.414-.586s1.024.195 1.414.586l1.511 1.511 5.57-12.069c.329-.712 1.04-1.162 1.815-1.162.049 0 .098.002.147.005.831.061 1.537.631 1.773 1.43l4.232 14.389.255-.319c.38-.474.954-.751 1.562-.751h4.167c.93-.944 2.21-1.499 3.555-1.499.263 0 .516.038.768.078.172-1.507.232-2.894.232-4.078 0-7 0-8 0-8-13 0-18-6-18-6s-5 6-18 6v8c0 1.779.131 4.012.587 6.433z" fill="#263238"/><path d="m37.446 30.5h-1.764l-4.747 5.934c-.384.48-.961.751-1.562.751-.128 0-.258-.012-.386-.038-.731-.144-1.322-.683-1.532-1.398l-3.182-10.82-2.996 6.491c-.274.594-.821 1.016-1.465 1.131-.117.021-.234.031-.351.031-.526 0-1.036-.207-1.414-.586l-3.047-3.046-.965.965c-.378.378-.888.586-1.414.586-.114 0-.229-.01-.343-.03l-4.172-.726c2.26 5.7 6.829 11.422 15.894 14.255 8.077-2.524 12.584-7.342 15.069-12.395-.605-.257-1.158-.632-1.623-1.105z" fill="#263238"/><path d="m41 24c-1.108 0-2.064.607-2.584 1.5h-5.137l-2.652 3.315-5.315-18.071-6.772 14.674-3.54-3.539-3.621 3.621-7.379 1.5 8.621 1.5 2.379-2.379 4.46 4.461 5.228-11.327 4.685 15.929 5.348-6.685h3.695c.52.894 1.476 1.501 2.584 1.501 1.657 0 3-1.343 3-3s-1.343-3-3-3z" fill="#b71c1c"/><g fill="#b0bec5"><path d="m28.987 37.147c-.731-.144-1.322-.683-1.532-1.398l-3.182-10.82-2.996 6.491c-.274.594-.821 1.016-1.465 1.131-.117.021-.234.031-.351.031-.526 0-1.036-.207-1.414-.586l-3.047-3.046-.965.965c-.327.327-.754.517-1.202.565 2.077 3.846 5.536 7.255 11.167 9.3 1.971-.716 3.659-1.609 5.133-2.618-.048-.007-.097-.005-.146-.015z"/><path d="m31.463 24.569.255-.319c.38-.474.954-.751 1.562-.751h4.167c.029-.03.066-.051.096-.08.322-1.857.457-3.694.457-5.419v-4.18c-4.43-.409-7.871-1.47-10.481-2.659z"/><path d="m13.586 20.465c.391-.391.902-.586 1.414-.586s1.024.195 1.414.586l1.511 1.511 5.57-12.069c.126-.273.32-.491.54-.677-.01-.007-.024-.015-.035-.023-2.673 1.816-7.184 3.983-14 4.613v4.18c0 1.771.141 3.66.482 5.568z"/></g></svg>