<svg enable-background="new 0 0 48 48" height="48" viewBox="0 0 48 48" width="48" xmlns="http://www.w3.org/2000/svg"><path d="m15 26.9c0-1.1.9-2 2-2h1.6l-1.1-1.1c-.8-.8-.8-2 0-2.8l3.5-3.5c.4-.4.9-.6 1.4-.6.5 0 1.1.2 1.4.6l1 1.1v-1.6c0-1.1.9-2 2-2h.1c-.2-.4-.3-.7-.5-1.1l2.4-2.4-3.3-3.5-2.4 2.5c-.7-.4-1.4-.7-2.1-.8v-3.7h-5v3.5c-.7.2-1.5.5-2.1.8l-2.4-2.5-3.5 3.6 2.4 2.4c-.4.7-.7 1.4-.8 2.1h-3.6v5h3.5c.2.7.5 1.5.8 2.1l-2.5 2.4 3.5 3.5 2.4-2.4c.4.2.8.4 1.2.6v-.2z" fill="#26a69a"/><path d="m15.4 16.3v.3 6.9h-1.9l.6-10h2.5l.1 1.8-1.1.8z" fill="#fff"/><path d="m42 32v-5h-3.5c-.2-.7-.5-1.5-.8-2.1l2.4-2.4-3.6-3.5-2.4 2.5c-.7-.4-1.4-.7-2.1-.8v-3.7h-5v3.5c-.7.2-1.5.5-2.1.8l-2.4-2.5-3.5 3.6 2.4 2.4c-.4.7-.7 1.4-.8 2.1h-3.6v5h3.5c.2.7.5 1.5.8 2.1l-2.5 2.4 3.5 3.5 2.4-2.4c.7.4 1.4.7 2.1.8v3.7h5v-3.5c.7-.2 1.5-.5 2.1-.8l2.4 2.4 3.5-3.5-2.5-2.4c.4-.7.7-1.4.8-2.1h3.9z" fill="#ffa726"/><g fill="#fff"><path d="m26.4 27.3v.3 6.9h-1.9l.6-10h2.5l.1 1.8-1.1.8z"/><path d="m34.5 34.5h-7.5v-6.9l2.5-1.9v1.9l2.5-1.9v1.9l2.5-1.9z"/><path d="m17.6 21 3.5-3.5c.4-.4.9-.6 1.4-.6.3 0 .7.1 1 .3v-2.4l-2.5 1.8v-1.9l-2.5 1.9v-1.9l-2.5 1.9v6.9h1.3c-.5-.8-.4-1.8.3-2.5z"/></g></svg>