<svg enable-background="new 0 0 48 48" height="48" viewBox="0 0 48 48" width="48" xmlns="http://www.w3.org/2000/svg"><path d="m34 6h-20c-4.4 0-8 3.6-8 8v16c0 4.4 3.6 8 8 8h5l10 6v-6h5c4.4 0 8-3.6 8-8v-16c0-4.4-3.6-8-8-8z" fill="#505060"/><path d="m36 24.4v-4.8h-3.4c-.2-.7-.5-1.4-.8-2l2.3-2.3-3.4-3.4-2.3 2.4c-.7-.4-1.3-.7-2-.8v-3.5h-4.8v3.4c-.7.2-1.4.5-2 .8l-2.3-2.4-3.4 3.4 2.3 2.3c-.4.7-.7 1.3-.8 2h-3.4v4.8h3.4c.2.7.5 1.4.8 2l-2.4 2.3 3.4 3.4 2.3-2.3c.7.4 1.3.7 2 .8v3.5h4.8v-3.4c.7-.2 1.4-.5 2-.8l2.3 2.3 3.4-3.4-2.4-2.3c.4-.7.7-1.3.8-2z" fill="#fff"/><g fill="#505060"><path d="m22.2 17.2h-2.4l-.6 9.6h1.8v-6.6-.3l.2-.2 1.1-.8z"/><path d="m26.4 18.4-2.4 1.8v-1.8l-2.4 1.8v6.6h7.2v-8.4l-2.4 1.8z"/></g></svg>