<svg enable-background="new 0 0 48 48" height="48" viewBox="0 0 48 48" width="48" xmlns="http://www.w3.org/2000/svg"><path d="m28 38h-6c-1.1 0-2-.9-2-2v-6c0-1.1.9-2 2-2h6v-6c0-1.1.9-2 2-2h6c1.1 0 2 .9 2 2v6h.4 5.6v-8h-5.6c-.3-1.2-.8-2.3-1.4-3.4l3.9-3.9-5.6-5.7-3.9 4c-1.1-.6-2.2-1.1-3.4-1.4v-5.6h-8v5.6c-1.2.3-2.3.8-3.4 1.4l-3.9-4-5.7 5.7 3.9 3.9c-.6 1.1-1.1 2.2-1.4 3.4h-5.5v8h5.6c.3 1.2.8 2.3 1.4 3.4l-4 3.9 5.7 5.7 3.9-3.9c1.1.6 2.2 1.1 3.4 1.4v5.5h8v-5.6z" fill="#505060"/><path d="m38 38v.2l.2-.2z" fill="#505060"/><path d="m19 20.5v.5 11h-3l1-16h4l.2 2.9-1.8 1.3z" fill="#fff"/><path d="m44 30h-8v-8h-6v8h-8v6h8v8h6v-8h8z" fill="#388e3c"/><path d="m22 28h6v-6c0-1.1.9-2 2-2h2v-2l-4 3v-3l-4 3v-3l-4 3v9c0-1.1.9-2 2-2z" fill="#fff"/></svg>