<svg enable-background="new 0 0 48 48" height="48" viewBox="0 0 48 48" width="48" xmlns="http://www.w3.org/2000/svg"><path d="m12 18v-1l.8-.6 3.6-2.7-.4-5.7h-8l-2 28h6z" fill="#505060"/><path d="m31 24.5-8.9 15.8c-.4.7.1 1.7 1 1.7h17.8c.9 0 1.4-.9 1-1.7l-8.9-15.8c-.4-.8-1.6-.8-2 0z" fill="#ffa726"/><path d="m31 29.4h2v7h-2z" fill="#fff"/><circle cx="32" cy="39" fill="#fff" r="1.5"/><path d="m24.5 32h-.5v-4h2.8l1.1-2h-3.9v-4h4v3.8l1.3-2.2c.2-.4.4-.7.7-.9v-.7h1.3c.2 0 .4-.1.7-.1s.4 0 .7.1h1.3v.7c.3.2.5.5.7.9l3.3 5.8v-17.4l-8 6v-6l-8 6v-6l-8 6v18h8.3zm-2.5 0h-4v-4h4zm0-6h-4v-4h4z" fill="#505060"/></svg>