<svg enable-background="new 0 0 48 48" height="48" viewBox="0 0 48 48" width="48" xmlns="http://www.w3.org/2000/svg"><g fill="#4b4b68"><circle cx="30" cy="8" r="4"/><circle cx="41" cy="24" r="4"/><circle cx="30" cy="40" r="4"/><circle cx="10" cy="34" r="4"/><circle cx="10" cy="14" r="4"/><path d="m18.1 18.6-7.5-5.4-1.2 1.6 7.5 5.4c.4-.6.8-1.1 1.2-1.6z"/><path d="m27.7 16.9 3.2-8.6-1.9-.7-3.2 8.6c.7.2 1.3.4 1.9.7z"/><path d="m17 27.8-7.5 5.4 1.2 1.6 7.5-5.4c-.5-.5-.9-1-1.2-1.6z"/><path d="m25.8 31.8 3.2 8.6 1.9-.7-3.2-8.6c-.6.3-1.2.5-1.9.7z"/><path d="m31.9 23c0 .3.1.7.1 1s0 .7-.1 1h8.1v-2z"/><circle cx="24" cy="24" r="6"/></g></svg>