<svg enable-background="new 0 0 48 48" height="48" viewBox="0 0 48 48" width="48" xmlns="http://www.w3.org/2000/svg"><path d="m36 4v4c-3.3-2.5-7.5-4-12-4-11 0-20 9-20 20 0 2.5.5 4.8 1.3 7h4.3c-1-2.1-1.6-4.5-1.6-7 0-8.8 7.2-16 16-16 4.6 0 8.7 1.9 11.6 5h4.4v-9z" fill="#0097a7"/><path d="m42.7 17h-4.3c1 2.1 1.6 4.5 1.6 7 0 8.8-7.2 16-16 16-4.6 0-8.7-1.9-11.6-5h-4.4v9h4v-4c3.3 2.5 7.5 4 12 4 11 0 20-9 20-20 0-2.5-.5-4.8-1.3-7z" fill="#263238"/><path d="m29.495 26-5.495-2 2.924 5.064 4.983 4.182 2.571-3.065z" fill="#455a64"/><path d="m26.924 29.064-2.924-5.064-1.015 5.759 1.129 6.406 3.939-.695z" fill="#006064"/><path d="m22.985 29.759 1.015-5.759-4.48 3.759-3.252 5.633 3.464 2z" fill="#ef5350"/><path d="m19.521 27.759 4.479-3.759h-5.848l-6.112 2.225 1.368 3.759z" fill="#263238"/><path d="m18.152 24h5.848l-4.48-3.759-6.112-2.225-1.368 3.759z" fill="#26c6da"/><path d="m19.521 20.241 4.479 3.759-1.015-5.759-3.253-5.633-3.464 2z" fill="#d32f2f"/><path d="m22.985 18.241 1.015 5.759 2.924-5.064 1.129-6.406-3.939-.695z" fill="#78909c"/><path d="m26.924 18.936-2.924 5.064 5.495-2 4.983-4.181-2.571-3.065z" fill="#0097a7"/><path d="m29.495 22-5.495 2 5.495 2h6.505v-4z" fill="#b71c1c"/><g fill="#78909c"><path d="m25 24s-.448 0-1 0-1 0-1 0 .448 0 1 0 1 0 1 0z"/><path d="m26 25c0-.552 0-1 0-1s0 .448 0 1 0 1 0 1 0-.448 0-1z"/></g></svg>