<svg enable-background="new 0 0 48 48" height="48" viewBox="0 0 48 48" width="48" xmlns="http://www.w3.org/2000/svg"><path d="m36 4v4c-3.3-2.5-7.5-4-12-4-11 0-20 9-20 20 0 2.5.5 4.8 1.3 7h4.3c-1-2.1-1.6-4.5-1.6-7 0-8.8 7.2-16 16-16 4.6 0 8.7 1.9 11.6 5h4.4v-9z" fill="#0097a7"/><path d="m42.7 17h-4.3c1 2.1 1.6 4.5 1.6 7 0 8.8-7.2 16-16 16-4.6 0-8.7-1.9-11.6-5h-4.4v9h4v-4c3.3 2.5 7.5 4 12 4 11 0 20-9 20-20 0-2.5-.5-4.8-1.3-7z" fill="#263238"/><path d="m35.1 22.4-2.3-.3c-.2-.8-.5-1.6-.8-2.3l1.6-1.7c.3-.4.4-.9 0-1.3l-.8-.9c-.3-.4-.9-.5-1.3-.2l-2 1.3c-.6-.5-1.3-.9-2.1-1.2l.1-2.3c0-.5-.3-.9-.8-1l-1.2-.2c-.5-.1-1 .2-1.1.7l-.7 2c-.8 0-1.6.2-2.4.4l-1.4-1.9c-.3-.4-.9-.5-1.3-.3l-1.1.6c-.4.3-.6.8-.4 1.3l.9 2.2c-.6.5-1.1 1.2-1.6 1.9l-2.3-.5c-.5-.1-1 .2-1.2.6l-.4 1.2c-.2.5 0 1 .5 1.2l2.1 1.1c-.1.4-.1.8-.1 1.2s0 .8.1 1.2l-2.1 1.1c-.4.2-.7.8-.5 1.2l.4 1.2c.2.5.7.7 1.2.6l2.3-.5c.4.7 1 1.3 1.6 1.9l-1 2.1c-.2.5 0 1 .4 1.3l1.1.6c.4.3 1 .1 1.3-.3l1.4-1.9c.8.2 1.6.4 2.4.4l.7 2.3c.1.5.6.8 1.1.7l1.2-.2c.5-.1.9-.5.8-1l-.1-2.3c.8-.3 1.5-.7 2.1-1.2l2 1.3c.4.3 1 .2 1.3-.2l.8-.9c.3-.4.3-1 0-1.3l-1.5-1.9c.4-.7.7-1.5.8-2.3l2.3-.3c.5-.1.9-.5.9-1v-1.2c0-.5-.4-.9-.9-1z" fill="#455a64"/><path d="m21.4 28.5 7.7-3.6c.8-.4.8-1.4 0-1.8l-7.7-3.6c-.7-.3-1.4.2-1.4.9v7.2c0 .8.8 1.2 1.4.9z" fill="#fff"/></svg>