<svg enable-background="new 0 0 48 48" height="48" viewBox="0 0 48 48" width="48" xmlns="http://www.w3.org/2000/svg"><g fill="#4b4b68"><path d="m14 19.4v-11.4c0-1.1-.9-2-2-2s-2 .9-2 2v11.4c-1.8.8-3 2.6-3 4.6s1.2 3.8 3 4.6v11.4c0 1.1.9 2 2 2s2-.9 2-2v-11.4c1.8-.8 3-2.5 3-4.6s-1.2-3.8-3-4.6zm-2 7.6c-1.7 0-3-1.3-3-3s1.3-3 3-3 3 1.3 3 3-1.3 3-3 3z"/><path d="m26 27.4v-19.4c0-1.1-.9-2-2-2s-2 .9-2 2v19.4c-1.8.8-3 2.5-3 4.6s1.2 3.8 3 4.6v3.4c0 1.1.9 2 2 2s2-.9 2-2v-3.4c1.8-.8 3-2.5 3-4.6s-1.2-3.8-3-4.6zm-2 7.6c-1.7 0-3-1.3-3-3s1.3-3 3-3 3 1.3 3 3-1.3 3-3 3z"/><path d="m38 11.4v-3.4c0-1.1-.9-2-2-2s-2 .9-2 2v3.4c-1.8.8-3 2.5-3 4.6s1.2 3.8 3 4.6v19.4c0 1.1.9 2 2 2s2-.9 2-2v-19.4c1.8-.8 3-2.5 3-4.6s-1.2-3.8-3-4.6zm-2 7.6c-1.7 0-3-1.3-3-3s1.3-3 3-3 3 1.3 3 3-1.3 3-3 3z"/></g></svg>