<svg enable-background="new 0 0 48 48" height="48" viewBox="0 0 48 48" width="48" xmlns="http://www.w3.org/2000/svg"><circle cx="24" cy="24" fill="#b71c1c" r="4"/><path d="m26.828 26.828c-.755.756-1.76 1.172-2.828 1.172-1.069 0-2.074-.416-2.828-1.171-.756-.756-1.172-1.76-1.172-2.829s.416-2.073 1.172-2.828l4.893-4.893c-.66-.176-1.35-.279-2.065-.279-4.418 0-8 3.582-8 8s3.582 8 8 8 8-3.582 8-8c0-.715-.103-1.405-.279-2.065z" fill="#ffebee"/><path d="m34.82 18.837-3.099 3.099c.176.659.279 1.349.279 2.064 0 4.418-3.582 8-8 8s-8-3.582-8-8 3.582-8 8-8c.715 0 1.405.103 2.065.279l3.099-3.099c-1.566-.748-3.313-1.18-5.164-1.18-6.627 0-12 5.373-12 12s5.373 12 12 12 12-5.373 12-12c0-1.851-.431-3.598-1.18-5.163z" fill="#ef5350"/><path d="m44 10h-6v-6l-5 5v3.172l-10.414 10.414c-.781.781-.781 2.047 0 2.828.39.391.902.586 1.414.586s1.023-.195 1.414-.586l10.414-10.414h3.172z" fill="#4a148c"/><path d="m40.414 16.414-.586.586h-.828-.633c1.037 2.115 1.633 4.485 1.633 7 0 8.837-7.163 16-16 16s-16-7.163-16-16 7.163-16 16-16c2.515 0 4.885.596 7 1.633v-.633-.828l.586-.586 1.425-1.425c-2.71-1.373-5.766-2.161-9.011-2.161-11.046 0-20 8.954-20 20s8.954 20 20 20 20-8.954 20-20c0-3.245-.788-6.301-2.161-9.01z" fill="#d32f2f"/><path d="m36.656 17-1.837 1.837c.75 1.565 1.181 3.312 1.181 5.163 0 6.627-5.373 12-12 12s-12-5.373-12-12 5.373-12 12-12c1.851 0 3.598.432 5.163 1.18l1.837-1.837v-1.71c-2.115-1.037-4.485-1.633-7-1.633-8.837 0-16 7.163-16 16s7.163 16 16 16 16-7.163 16-16c0-2.515-.596-4.885-1.633-7z" fill="#ffebee"/><path d="m38 4-5 5v6l5-5z" fill="#7b1fa2"/><path d="m44 10h-6l-5 5h6z" fill="#ab47bc"/></svg>