<svg enable-background="new 0 0 48 48" height="48" viewBox="0 0 48 48" width="48" xmlns="http://www.w3.org/2000/svg"><path d="m24 4s-5 6-18 6v8s2 21 18 26c16-5 18-19 18-26s0-8 0-8c-13 0-18-6-18-6z" fill="#263238"/><path d="m24 9.207c2.673 1.816 7.184 3.983 14 4.613v4.18c0 7.695-2.466 17.591-14 21.78-11.534-4.189-14-14.085-14-21.78v-4.18c6.816-.63 11.327-2.797 14-4.613" fill="#eceff1"/><path d="m34.658 22.886-1.827-.609c-.08-.41-.191-.808-.325-1.197l1.281-1.445c.143-.161.167-.395.059-.582l-.64-1.108c-.108-.186-.322-.283-.533-.24l-1.893.387c-.271-.311-.563-.603-.874-.874l.387-1.893c.043-.211-.053-.426-.24-.533l-1.108-.64c-.186-.108-.421-.084-.582.059l-1.445 1.281c-.388-.133-.786-.245-1.197-.325l-.609-1.827c-.066-.202-.257-.34-.472-.34h-1.28c-.215 0-.406.138-.474.342l-.609 1.827c-.41.08-.808.191-1.197.325l-1.445-1.281c-.161-.143-.395-.167-.582-.059l-1.108.64c-.186.108-.283.322-.24.533l.387 1.893c-.311.271-.603.563-.874.874l-1.893-.387c-.211-.043-.426.053-.533.24l-.64 1.108c-.108.186-.084.421.059.582l1.281 1.445c-.133.388-.245.786-.325 1.197l-1.827.609c-.202.066-.34.257-.34.472v1.279c0 .215.138.406.342.474l1.827.609c.08.41.191.808.325 1.197l-1.281 1.445c-.143.161-.167.395-.059.582l.64 1.108c.108.186.322.283.533.24l1.893-.387c.271.311.563.602.874.874l-.387 1.893c-.043.211.053.426.24.533l1.108.64c.186.108.421.084.582-.059l1.444-1.281c.388.133.786.245 1.197.325l.609 1.827c.067.203.258.341.473.341h1.279c.215 0 .406-.138.474-.342l.609-1.827c.41-.08.808-.191 1.197-.325l1.444 1.281c.161.143.395.167.582.059l1.108-.64c.186-.108.283-.322.24-.533l-.387-1.893c.311-.271.602-.563.874-.874l1.893.387c.211.043.426-.053.533-.24l.64-1.108c.108-.186.084-.421-.059-.582l-1.281-1.445c.133-.388.245-.786.325-1.197l1.827-.609c.204-.066.342-.257.342-.472v-1.28c0-.215-.138-.406-.342-.474zm-11.399 8.072c-.577-.065-.949-.65-.799-1.211l.018-.068c.128-.476.59-.757 1.08-.704.145.016.292.025.442.025 2.026 0 3.756-1.211 4.538-2.945.194-.431.667-.661 1.123-.538l.08.022c.567.152.884.778.644 1.314-1.091 2.443-3.536 4.147-6.385 4.147-.251 0-.498-.014-.741-.042zm6.482-8.496-.08.021c-.457.122-.929-.107-1.123-.538-.782-1.734-2.512-2.945-4.538-2.945-.15 0-.297.009-.442.024-.49.053-.953-.228-1.08-.704l-.018-.068c-.15-.561.222-1.146.799-1.211.243-.027.49-.041.741-.041 2.849 0 5.294 1.704 6.386 4.147.239.537-.078 1.163-.645 1.315zm-9.814 4.439c.279.391.252.919-.087 1.258l-.05.05c-.411.411-1.107.38-1.45-.09-.843-1.155-1.34-2.579-1.34-4.119s.497-2.964 1.34-4.12c.343-.47 1.038-.501 1.45-.09l.05.05c.339.339.366.868.087 1.258-.583.819-.927 1.82-.927 2.902s.344 2.083.927 2.901zm1.073-2.901c0-1.657 1.343-3 3-3s3 1.343 3 3-1.343 3-3 3-3-1.343-3-3z" fill="#b71c1c"/></svg>