<svg height="48" viewBox="0 0 48 48" width="48" xmlns="http://www.w3.org/2000/svg"><path d="m8.43 35.517 2.472-.707c.697.846 1.462 1.609 2.287 2.289l-.707 2.47c-.126.441.064.912.461 1.141l2.112 1.219c.397.229.9.159 1.219-.171l1.774-1.835c1.018.38 2.071.662 3.143.842l.619 2.476c.112.447.512.759.971.759h2.438c.459 0 .859-.312.97-.757l.623-2.493c1.054-.177 2.099-.455 3.125-.839l1.787 1.848c.319.33.822.4 1.219.171l2.112-1.219c.397-.229.588-.7.461-1.141l-.707-2.472c.846-.697 1.609-1.462 2.289-2.287l2.47.707c.441.126.912-.064 1.141-.461l1.219-2.112c.229-.397.159-.9-.171-1.219l-1.835-1.774c.38-1.018.662-2.071.842-3.143l2.476-.619c.448-.112.76-.512.76-.971v-2.438c0-.459-.312-.859-.757-.97l-2.493-.623c-.177-1.054-.455-2.099-.839-3.125l1.848-1.787c.33-.319.4-.822.171-1.219l-1.219-2.112c-.229-.397-.7-.588-1.141-.461l-2.472.707c-.697-.846-1.462-1.609-2.287-2.29l.707-2.47c.126-.441-.064-.912-.461-1.141l-2.113-1.22c-.397-.229-.9-.159-1.219.171l-1.774 1.835c-1.018-.38-2.071-.662-3.143-.842l-.619-2.476c-.111-.446-.511-.758-.97-.758h-2.439c-.459 0-.859.312-.97.757l-.623 2.493c-1.054.177-2.099.455-3.126.839l-1.787-1.848c-.319-.33-.822-.4-1.219-.171l-2.112 1.219c-.397.229-.588.7-.461 1.141l.707 2.472c-.846.697-1.609 1.462-2.29 2.287l-2.47-.707c-.441-.126-.912.064-1.141.461l-1.218 2.113c-.229.397-.159.9.171 1.219l1.835 1.774c-.38 1.018-.662 2.071-.842 3.143l-2.476.619c-.446.111-.758.511-.758.97v2.438c0 .459.312.859.757.97l2.493.623c.177 1.054.455 2.099.839 3.126l-1.848 1.787c-.33.319-.4.821-.171 1.219l1.219 2.112c.23.397.7.587 1.141.461zm14.578-1.566c2.013.202 4.106-.203 5.992-1.291 1.886-1.089 3.283-2.699 4.114-4.543.393-.872 1.386-1.304 2.31-1.056l.003.001c1.187.318 1.821 1.629 1.312 2.748-1.166 2.563-3.114 4.799-5.739 6.315s-5.535 2.084-8.338 1.813c-1.224-.119-2.042-1.323-1.724-2.51l.001-.003c.248-.925 1.118-1.569 2.069-1.474zm-4.204-6.951c-1.657-2.87-.674-6.539 2.196-8.196s6.539-.674 8.196 2.196.674 6.539-2.196 8.196-6.539.674-8.196-2.196zm3.872-16.925c5.284-.502 10.621 2.028 13.448 6.925.227.392.43.792.612 1.196.504 1.12-.129 2.426-1.315 2.744l-.002.001c-.949.254-1.93-.223-2.336-1.118-.126-.278-.267-.553-.423-.823-2.024-3.506-5.849-5.313-9.631-4.944-.959.094-1.838-.538-2.088-1.469-.318-1.191.507-2.395 1.735-2.512zm-10.073 5.816c.715-1.005 2.17-1.118 3.043-.246.681.681.789 1.759.228 2.542-2.211 3.091-2.558 7.307-.534 10.813.156.27.324.529.501.777.571.799.494 1.887-.2 2.582l-.002.002c-.868.868-2.316.763-3.034-.233-.259-.36-.503-.735-.73-1.128-2.827-4.897-2.349-10.784.728-15.109z" fill="#b71c1c"/></svg>