<svg height="48" viewBox="0 0 48 48" width="48" xmlns="http://www.w3.org/2000/svg"><rect fill="#555" height="40" rx="4" width="32" x="8" y="4"/><path d="m18 0h14a0 0 0 0 1 0 0v28a0 0 0 0 1 0 0h-14a2 2 0 0 1 -2-2v-24a2 2 0 0 1 2-2z" fill="#fff" transform="matrix(0 1 -1 0 38 -10)"/><path d="m15 19h16a2 2 0 0 1 2 2v24a2 2 0 0 1 -2 2h-16a0 0 0 0 1 0 0v-28a0 0 0 0 1 0 0z" fill="#fff" transform="matrix(0 1 -1 0 57 9)"/><path d="m23 10-4-2.3a2.2 2.2 0 0 0 -1-.27 1.77 1.77 0 0 0 -1 .27l-4 2.3a2 2 0 0 0 -1 1.73v4.6a2 2 0 0 0 1 1.67l4 2.3a2.2 2.2 0 0 0 1 .27 1.77 1.77 0 0 0 1-.27l4-2.3a2 2 0 0 0 1-1.73v-4.57a2 2 0 0 0 -1-1.7z" fill="#7b1fa2"/><path d="m35 29-4-2.3a2.2 2.2 0 0 0 -1-.27 1.77 1.77 0 0 0 -1 .27l-4 2.3a2 2 0 0 0 -1 1.73v4.6a2 2 0 0 0 1 1.67l4 2.3a2.2 2.2 0 0 0 1 .27 1.77 1.77 0 0 0 1-.27l4-2.3a2 2 0 0 0 1-1.73v-4.57a2 2 0 0 0 -1-1.7z" fill="#ab47bc"/><path d="m26 10h10v2h-10z" fill="#7b1fa2"/><path d="m26 14h6v2h-6z" fill="#7b1fa2"/><g fill="#ab47bc"><path d="m12 34h8v2h-8z"/><path d="m12 30h10v2h-10z"/></g></svg>