<svg enable-background="new 0 0 48 48" height="48" viewBox="0 0 48 48" width="48" xmlns="http://www.w3.org/2000/svg"><g fill="#4b4b68"><path d="m19.1 9.5 3.4-1.9h.1l.1-.1c.3-.2.8-.3 1.3-.3s1.1.2 1.5.4l3.4 1.9 1.5-2.6-3.4-1.9c-.9-.5-2-.8-3-.8s-2.1.2-3 .8l-3.4 1.9z"/><path d="m9 21v-3.9c0-1.1.6-2.1 1.5-2.6l3.4-2-1.5-2.6-3.4 2c-1.8 1-3 3-3 5.2v3.9z"/><path d="m34.1 12.5 3.5 2c.8.5 1.4 1.5 1.4 2.6v3.9h3v-3.9c0-2.2-1.2-4.2-3-5.2l-3.4-2z"/><path d="m13.9 35.5-3.5-2c-.8-.5-1.4-1.5-1.4-2.6v-3.9h-3v3.9c0 2.2 1.2 4.2 3 5.2l3.4 2z"/><path d="m28.9 38.5-3.4 1.9h-.1l-.1.1c-.3.2-.8.3-1.3.3s-1.1-.2-1.5-.4l-3.4-1.9-1.5 2.6 3.4 1.9c.9.5 2 .8 3 .8s2.1-.2 3-.8l3.4-1.9z"/><path d="m39 27v3.9c0 1.1-.6 2.1-1.5 2.6l-3.4 2 1.5 2.6 3.4-2c1.8-1 3-3 3-5.2v-3.9z"/><path d="m15 21h18v6h-18z"/></g></svg>