<svg enable-background="new 0 0 48 48" height="48" viewBox="0 0 48 48" width="48" xmlns="http://www.w3.org/2000/svg"><path d="m14 6c-4.418 0-8 3.582-8 8s3.582 8 8 8 8-3.582 8-8-3.582-8-8-8zm0 12c-2.209 0-4-1.791-4-4s1.791-4 4-4 4 1.791 4 4-1.791 4-4 4z" fill="#555"/><g fill="#303f9f"><circle cx="35" cy="35" r="7"/><path d="m35 20c2.816 0 5.332 1.302 6.983 3.333.005-.111.017-.221.017-.333 0-3.866-3.134-7-7-7s-7 3.134-7 7c0 .112.012.222.017.333 1.651-2.031 4.167-3.333 6.983-3.333z"/><path d="m35 26c2.816 0 5.332 1.302 6.983 3.333.005-.111.017-.221.017-.333 0-3.866-3.134-7-7-7s-7 3.134-7 7c0 .112.012.222.017.333 1.651-2.031 4.167-3.333 6.983-3.333z"/></g><path d="m20 34h-3c-1.103 0-2-.897-2-2v-4h5v2l6-3-6-3v2h-5v-6h-2v12c0 2.206 1.794 4 4 4h3v2l6-3-6-3z" fill="#555"/></svg>