<svg enable-background="new 0 0 48 48" height="48" viewBox="0 0 48 48" width="48" xmlns="http://www.w3.org/2000/svg"><path d="m26 40-8-5v3h-6c-1.103 0-2-.897-2-2v-8h-4v8c0 3.309 2.691 6 6 6h6v3z" fill="#455a64"/><path d="m28.846 6.632-1.69-.976c-.318-.183-.72-.127-.975.137l-1.419 1.468c-.814-.304-1.657-.53-2.514-.674l-.495-1.981c-.091-.356-.411-.606-.778-.606h-1.951c-.367 0-.687.25-.776.606l-.498 1.994c-.843.142-1.679.364-2.501.671l-1.43-1.478c-.255-.264-.658-.32-.975-.137l-1.69.975c-.318.183-.47.56-.369.913l.566 1.978c-.677.558-1.287 1.17-1.832 1.83l-1.976-.566c-.353-.101-.73.051-.913.369l-.974 1.69c-.183.318-.127.72.137.975l1.468 1.419c-.304.814-.53 1.657-.674 2.514l-1.981.495c-.356.09-.606.41-.606.777v1.95c0 .367.25.687.606.776l1.994.499c.142.843.364 1.679.671 2.501l-1.295 1.252c.008-.001.016-.003.024-.003h4c.068 0 .133.013.2.02.074-.188.162-.37.273-.538-.934-1.614-1.473-3.483-1.473-5.482 0-2.59.898-4.968 2.398-6.846.653-.818 1.937-.699 2.46.207.306.531.256 1.192-.125 1.671-1.023 1.288-1.651 2.901-1.719 4.657l.885-1.535c.498-.864 1.428-1.4 2.425-1.4.26 0 .519.036.77.108l.034.01c.222-.275.47-.523.745-.745l-.009-.031c-.357-1.239.174-2.554 1.291-3.198l1.514-.874c-.281.012-.564.022-.837.064-.606.092-1.204-.198-1.51-.729-.521-.902.007-2.075 1.036-2.234.535-.081 1.083-.125 1.642-.125 2 0 3.872.537 5.486 1.47.446-.294.973-.47 1.538-.47h1.951c.075 0 .147.013.221.019-.182-.167-.358-.341-.548-.498l.566-1.976c.101-.353-.051-.73-.368-.913z" fill="#78909c"/><path d="m43.394 26.249-1.994-.499c-.142-.843-.364-1.679-.671-2.5l1.478-1.43c.264-.255.32-.658.137-.975l-.975-1.69c-.183-.318-.56-.47-.913-.369l-1.978.566c-.558-.677-1.17-1.287-1.83-1.832l.566-1.976c.101-.353-.051-.73-.369-.913l-1.69-.976c-.318-.183-.72-.127-.975.137l-1.419 1.468c-.814-.304-1.657-.53-2.514-.674l-.495-1.981c-.09-.355-.41-.605-.777-.605h-1.951c-.367 0-.687.25-.776.606l-.498 1.994c-.843.142-1.679.364-2.501.671l-1.43-1.478c-.255-.264-.658-.32-.975-.137l-1.69.975c-.318.183-.47.56-.369.913l.566 1.978c-.677.558-1.287 1.17-1.832 1.83l-1.976-.566c-.353-.101-.73.051-.913.369l-.974 1.69c-.183.318-.127.72.137.975l1.468 1.419c-.304.814-.53 1.657-.674 2.514l-1.981.495c-.356.09-.606.41-.606.777v.975.975c0 .367.25.687.606.776l1.994.499c.142.843.364 1.679.671 2.501l-1.478 1.43c-.264.255-.32.657-.137.975l.488.844h1.856v-1c0-.727.395-1.397 1.03-1.749.303-.168.636-.251.97-.251.078 0 .153.023.23.032-.781-1.508-1.23-3.216-1.23-5.032 0-2.59.898-4.968 2.398-6.846.653-.818 1.937-.699 2.46.207.306.531.256 1.192-.125 1.671-1.084 1.365-1.733 3.09-1.733 4.968s.649 3.603 1.732 4.968c.381.48.432 1.141.125 1.671-.061.105-.134.197-.213.281l3.51 2.194c.031-.161.079-.322.167-.474.307-.531.904-.821 1.51-.729.382.058.772.089 1.169.089 3.374 0 6.253-2.092 7.427-5.048.228-.573.775-.952 1.391-.952 1.048 0 1.795 1.055 1.411 2.031-1.607 4.08-5.578 6.969-10.229 6.969-.095 0-.187-.008-.281-.011.178.303.281.649.281 1.011 0 .69-.355 1.331-.94 1.696l-1.069.668.257 1.029c.09.357.41.607.777.607h1.95c.367 0 .687-.25.776-.606l.499-1.994c.843-.142 1.679-.364 2.5-.671l1.43 1.478c.255.264.658.32.975.137l1.69-.975c.318-.183.47-.56.369-.913l-.566-1.978c.677-.558 1.287-1.17 1.831-1.83l1.976.566c.353.101.73-.051.913-.369l.975-1.69c.183-.318.127-.72-.137-.975l-1.468-1.419c.304-.814.53-1.657.674-2.514l1.981-.495c.357-.09.607-.41.607-.777v-1.95c0-.367-.25-.687-.606-.776zm-15.394 6.751c-2.761 0-5-2.239-5-5s2.239-5 5-5 5 2.239 5 5-2.239 5-5 5zm8.818-7c-.616 0-1.163-.38-1.39-.952-1.175-2.956-4.054-5.048-7.428-5.048-.397 0-.787.031-1.168.089-.606.092-1.204-.198-1.51-.729-.521-.902.007-2.075 1.036-2.234.535-.082 1.083-.126 1.642-.126 4.651 0 8.622 2.889 10.229 6.969.384.976-.363 2.031-1.411 2.031z" fill="#b71c1c"/></svg>