<svg enable-background="new 0 0 48 48" height="48" viewBox="0 0 48 48" width="48" xmlns="http://www.w3.org/2000/svg"><g fill="#4b4b68"><path d="m36 4h-8.013v2h8.013c1.105 0 2 .895 2 2v32c0 1.105-.895 2-2 2h-24c-1.105 0-2-.895-2-2v-28c-1.229 0-2 0-2 0v28c0 2.209 1.791 4 4 4h24c2.209 0 4-1.791 4-4v-32c0-2.209-1.791-4-4-4z"/><path d="m14 36h20v2h-20z"/><path d="m14 32h20v2h-20z"/><path d="m28 12h4v16h-4z"/><path d="m22 16h4v12h-4z"/><path d="m16 20h4v8h-4z"/><path d="m22 10h-14v-2c0-2.209 1.791-4 4-4h14v2c0 2.209-1.791 4-4 4z"/></g></svg>