<svg enable-background="new 0 0 48 48" height="48" viewBox="0 0 48 48" width="48" xmlns="http://www.w3.org/2000/svg"><path d="m18 4h18c2.209 0 4 1.791 4 4h-22z" fill="#80deea"/><path d="m18 8h22v4h-22z" fill="#0097a7"/><path d="m18 12h22v4h-22z" fill="#80deea"/><path d="m18 16h22c0 2.209-1.791 4-4 4h-18z" fill="#0097a7"/><path d="m18 24h18c2.209 0 4 1.791 4 4h-22z" fill="#80deea"/><path d="m18 32h22v4h-22z" fill="#80deea"/><path d="m18 28h22v4h-22z" fill="#0097a7"/><path d="m18 36h22v4h-22z" fill="#0097a7"/><path d="m18 40h22c0 2.209-1.791 4-4 4h-18z" fill="#80deea"/><path d="m14 4h2v16h-2z" fill="#3c5e1e"/><path d="m14 24h2v20h-2z" fill="#08316b"/><path d="m8 16v-8c0-2.209 1.791-4 4-4h2v16h-2c-2.209 0-4-1.791-4-4z" fill="#4eb600"/><path d="m8 40v-12c0-2.209 1.791-4 4-4h2v20h-2c-2.209 0-4-1.791-4-4z" fill="#1976d2"/></svg>