<svg enable-background="new 0 0 48 48" height="48" viewBox="0 0 48 48" width="48" xmlns="http://www.w3.org/2000/svg"><path d="m38 4h-28c-2.209 0-4 1.791-4 4v6c0 1.061.421 2.078 1.172 2.828l10.828 10.829v12.343c0 1.618.975 3.076 2.469 3.696.495.204 1.015.304 1.53.304 1.041 0 2.064-.406 2.829-1.172l4-4c.751-.75 1.172-1.767 1.172-2.828v-8.343l10.828-10.828c.751-.751 1.172-1.768 1.172-2.829v-6c0-2.209-1.791-4-4-4z" fill="#006064"/><path d="m38 8v6l-12 12v10l-4 4v-14l-12-12v-6z" fill="#e0f2f1"/><path d="m34.464 14h-24.464l2 2h20.464z" fill="#0d47a1"/><path d="m30.464 18h-16.464l2 2h12.464z" fill="#0097a7"/><path d="m26.464 22h-8.464l2 2h4.464z" fill="#90e249"/></svg>