<svg enable-background="new 0 0 48 48" height="48" viewBox="0 0 48 48" width="48" xmlns="http://www.w3.org/2000/svg"><path d="m20 40v-32c0-2.209 1.791-4 4-4h12c2.209 0 4 1.791 4 4v32c0 2.209-1.791 4-4 4h-12c-2.209 0-4-1.791-4-4z" fill="#0d47a1"/><path d="m20 24h20v12h-20z" fill="#e0f2f1" transform="matrix(0 1 -1 0 60 0)"/><path d="m24 8h12v8h-12z" fill="#90e249"/><path d="m12 40v-20h6v-4h-6v-8h6c0-1.537.586-2.937 1.541-4h-7.541c-2.209 0-4 1.791-4 4v32c0 2.209 1.791 4 4 4h7.541c-.955-1.063-1.541-2.463-1.541-4z" fill="#555"/></svg>