<svg enable-background="new 0 0 48 48" height="48" viewBox="0 0 48 48" width="48" xmlns="http://www.w3.org/2000/svg"><path d="m42 10.5c0-2.485-1.791-4.5-4-4.5h-28c-2.209 0-4 2.015-4 4.5v3.5h36z" fill="#0d47a1"/><path d="m8 12v-2c0-1.105.895-2 2-2h28c1.105 0 2 .895 2 2v2z" fill="#90caf9"/><path d="m6 14v24c0 2.209 1.791 4 4 4h28c2.209 0 4-1.791 4-4v-24z" fill="#006064"/><path d="m34 12h4v8h-4z" fill="#e0f7fa" transform="matrix(0 1 -1 0 52 -20)"/><path d="m9 13h10v12h-10z" fill="#80deea" transform="matrix(0 1 -1 0 33 5)"/><path d="m9 25h10v12h-10z" fill="#80deea" transform="matrix(0 1 -1 0 45 17)"/><path d="m8 38h32c0 1.105-.895 2-2 2h-28c-1.105 0-2-.895-2-2z" fill="#90e249"/><g fill="#e0f7fa"><path d="m34 18h4v8h-4z" transform="matrix(0 1 -1 0 58 -14)"/><path d="m34 24h4v8h-4z" transform="matrix(0 1 -1 0 64 -8)"/><path d="m34 30h4v8h-4z" transform="matrix(0 1 -1 0 70 -2)"/><path d="m24 12h4v8h-4z" transform="matrix(0 1 -1 0 42 -10)"/><path d="m24 18h4v8h-4z" transform="matrix(0 1 -1 0 48 -4)"/><path d="m24 24h4v8h-4z" transform="matrix(0 1 -1 0 54 2)"/><path d="m24 30h4v8h-4z" transform="matrix(0 1 -1 0 60 8)"/></g></svg>