<svg enable-background="new 0 0 48 48" height="48" viewBox="0 0 48 48" width="48" xmlns="http://www.w3.org/2000/svg"><path d="m36 4h-8.013v8h-19.987v28c0 2.209 1.791 4 4 4h24c2.209 0 4-1.791 4-4v-32c0-2.209-1.791-4-4-4z" fill="#555"/><path d="m36 6h-8.013c0 3.308-2.692 6-6 6h-11.987v28c0 1.105.895 2 2 2h24c1.105 0 2-.895 2-2v-32c0-1.105-.895-2-2-2z" fill="#fff"/><path d="m33 10h-6.553c-1.099 1.224-2.688 2-4.459 2h-7.988v17c0 .552.448 1 1 1h18c.552 0 1-.448 1-1v-18c0-.552-.448-1-1-1z" fill="#e0f2f1"/><path d="m14 36h16v2h-16z" fill="#0097a7"/><path d="m14 32h16v2h-16z" fill="#0097a7"/><path d="m30 36h4v2h-4z" fill="#0d47a1"/><path d="m30 32h4v2h-4z" fill="#0d47a1"/><g fill="#006064"><path d="m28 14h4v14h-4z"/><path d="m22 18h4v10h-4z"/><path d="m16 22h4v6h-4z"/></g><path d="m28 12h4v2h-4z" fill="#90e249"/><path d="m22 16h4v2h-4z" fill="#90e249"/><path d="m16 20h4v2h-4z" fill="#90e249"/><path d="m22 10h-14v-2c0-2.209 1.791-4 4-4h14v2c0 2.209-1.791 4-4 4z" fill="#0d47a1"/></svg>