<svg height="512pt" viewBox="0 -15 512 511" width="512pt" xmlns="http://www.w3.org/2000/svg"><path d="m435.972656 347.628906v67.042969h-359.945312v-67.042969c0-6.628906-5.375-12.003906-12.003906-12.003906h-42.019532c-6.628906 0-12.003906 5.375-12.003906 12.003906v81.558594c0 23.15625 18.769531 41.925781 41.925781 41.925781h408.148438c23.15625 0 41.925781-18.769531 41.925781-41.925781v-81.558594c0-6.628906-5.375-12.003906-12.003906-12.003906h-42.019532c-6.628906 0-12.003906 5.375-12.003906 12.003906zm0 0" fill="#fb0"/><path d="m231.554688 80.605469-49.800782-63.769531c-6.601562-8.449219-19.382812-8.449219-25.980468 0l-49.800782 63.769531c-8.449218 10.820312-.742187 26.625 12.992188 26.625h28.214844v127.257812h43.167968v-127.257812h28.214844c13.734375 0 21.441406-15.804688 12.992188-26.625zm0 0" fill="#3df399"/><path d="m280.445312 164.386719 49.800782 63.765625c6.601562 8.449218 19.382812 8.449218 25.980468 0l49.800782-63.765625c8.449218-10.820313.742187-26.625-12.992188-26.625h-28.214844v-127.261719h-43.167968v127.261719h-28.214844c-13.734375 0-21.441406 15.804687-12.992188 26.625zm0 0" fill="#ff2d83"/><path d="m373.851562 309.980469h-235.703124c-10.785157 0-19.53125-8.746094-19.53125-19.53125 0-10.785157 8.746093-19.527344 19.53125-19.527344h235.703124c10.785157 0 19.53125 8.742187 19.53125 19.527344 0 10.789062-8.746093 19.53125-19.53125 19.53125zm0 0" fill="#c5e8ff"/><path d="m373.851562 382.539062h-235.703124c-10.785157 0-19.53125-8.742187-19.53125-19.527343 0-10.789063 8.746093-19.53125 19.53125-19.53125h235.703124c10.785157 0 19.53125 8.742187 19.53125 19.53125 0 10.785156-8.746093 19.527343-19.53125 19.527343zm0 0" fill="#00b8ff"/><path d="m489.996094 325.625h-42.019532c-12.132812 0-22.003906 9.871094-22.003906 22.003906v57.042969h-339.945312v-57.042969c0-12.132812-9.871094-22.003906-22.003906-22.003906h-42.019532c-12.132812 0-22.003906 9.871094-22.003906 22.003906v81.558594c0 28.632812 23.292969 51.925781 51.925781 51.925781h408.148438c28.632812 0 51.925781-23.292969 51.925781-51.925781v-81.558594c0-12.132812-9.871094-22.003906-22.003906-22.003906zm2.003906 103.5625c0 17.605469-14.320312 31.925781-31.925781 31.925781h-408.148438c-17.605469 0-31.925781-14.320312-31.925781-31.925781v-81.558594c0-1.105468.898438-2.003906 2.003906-2.003906h42.019532c1.105468 0 2.003906.898438 2.003906 2.003906v67.042969c0 5.523437 4.476562 10 10 10h359.945312c5.523438 0 10-4.476563 10-10v-67.042969c0-1.105468.898438-2.003906 2.003906-2.003906h42.019532c1.105468 0 2.003906.898438 2.003906 2.003906zm0 0"/><path d="m118.960938 117.230469h18.214843v117.257812c0 5.523438 4.476563 10 10 10h43.171875c5.523438 0 10-4.476562 10-10v-117.257812h18.214844c10.207031 0 19.328125-5.699219 23.800781-14.871094 4.476563-9.171875 3.351563-19.867187-2.929687-27.910156l-49.800782-63.765625c-5.054687-6.472656-12.660156-10.183594-20.871093-10.183594-8.210938 0-15.816407 3.710938-20.871094 10.183594l-49.800781 63.765625c-6.28125 8.042969-7.402344 18.738281-2.929688 27.910156 4.476563 9.171875 13.597656 14.871094 23.800782 14.871094zm-5.105469-30.472657 49.800781-63.765624c1.691406-2.167969 3.925781-2.492188 5.105469-2.492188 1.183593 0 3.417969.324219 5.109375 2.492188l49.800781 63.765624c2.25 2.882813 1.25 5.738282.71875 6.832032-.535156 1.09375-2.171875 3.640625-5.828125 3.640625h-28.214844c-5.523437 0-10 4.476562-10 10v117.257812h-23.171875v-117.257812c0-5.523438-4.476562-10-10-10h-28.214843c-3.652344 0-5.289063-2.546875-5.824219-3.640625-.535157-1.09375-1.53125-3.949219.71875-6.832032zm0 0"/><path d="m322.367188 234.308594c5.054687 6.46875 12.660156 10.179687 20.871093 10.179687 8.207031 0 15.816407-3.710937 20.871094-10.179687l49.800781-63.769532c6.28125-8.042968 7.402344-18.734374 2.929688-27.910156-4.476563-9.171875-13.597656-14.871094-23.800782-14.871094h-18.214843v-117.257812c0-5.523438-4.476563-10-10-10h-43.171875c-5.523438 0-10 4.476562-10 10v117.261719h-18.214844c-10.207031 0-19.328125 5.695312-23.800781 14.871093-4.476563 9.171876-3.351563 19.863282 2.929687 27.90625zm-34.757813-82.910156c.535156-1.09375 2.171875-3.636719 5.828125-3.636719h28.214844c5.523437 0 10-4.480469 10-10v-117.261719h23.167968v117.261719c0 5.519531 4.480469 10 10 10h28.214844c3.65625 0 5.292969 2.542969 5.828125 3.636719.535157 1.09375 1.53125 3.953124-.71875 6.832031l-49.800781 63.765625c-1.691406 2.167968-3.925781 2.492187-5.105469 2.492187-1.183593 0-3.417969-.324219-5.109375-2.492187l-49.800781-63.765625c-2.25-2.878907-1.25-5.738281-.71875-6.832031zm0 0"/><path d="m373.851562 260.921875h-235.703124c-16.28125 0-29.53125 13.246094-29.53125 29.527344 0 16.285156 13.25 29.53125 29.53125 29.53125h235.703124c16.28125 0 29.53125-13.246094 29.53125-29.53125 0-16.28125-13.25-29.527344-29.53125-29.527344zm0 39.058594h-235.703124c-5.253907 0-9.53125-4.277344-9.53125-9.53125 0-5.253907 4.277343-9.527344 9.53125-9.527344h235.703124c5.253907 0 9.53125 4.273437 9.53125 9.527344 0 5.253906-4.277343 9.53125-9.53125 9.53125zm0 0"/><path d="m138.148438 353.480469h125.089843c5.523438 0 10-4.476563 10-10 0-5.523438-4.476562-10-10-10h-125.089843c-16.28125 0-29.53125 13.246093-29.53125 29.53125 0 16.28125 13.25 29.527343 29.53125 29.527343h235.703124c16.28125 0 29.53125-13.246093 29.53125-29.527343 0-16.285157-13.25-29.53125-29.53125-29.53125h-30.613281c-5.523437 0-10 4.476562-10 10 0 5.523437 4.476563 10 10 10h30.613281c5.253907 0 9.53125 4.273437 9.53125 9.53125 0 5.253906-4.277343 9.527343-9.53125 9.527343h-235.703124c-5.253907 0-9.53125-4.273437-9.53125-9.527343 0-5.257813 4.277343-9.53125 9.53125-9.53125zm0 0"/><path d="m313.261719 343.480469c0-5.523438-4.476563-10-10-10h-.023438c-5.523437 0-9.988281 4.476562-9.988281 10 0 5.523437 4.488281 10 10.011719 10 5.523437 0 10-4.476563 10-10zm0 0"/></svg>