<svg height="512" viewBox="0 0 58 58" width="512" xmlns="http://www.w3.org/2000/svg"><g id="Page-1" fill="none" fill-rule="evenodd"><g id="071---AB-Testing" fill-rule="nonzero" transform="translate(-1)"><path id="Shape" d="m38 48 3 6-11 2-11-2 3-6 8-2z" fill="#2980ba"/><path id="Shape" d="m36.824 0h20.176c1.1530618.05403747 2.0463393 1.02860319 2 2.182v43.636c.0463393 1.1533968-.8469382 2.1279625-2 2.182h-54c-1.15306178-.0540375-2.04633925-1.0286032-2-2.182v-43.636c-.04633925-1.15339681.84693822-2.12796253 2-2.182z" fill="#f0c419"/><path id="Rectangle-path" d="m1 29h29v13h-29z" fill="#f0c419"/><path id="Rectangle-path" d="m30 29h29v13h-29z" fill="#f29c1f"/><path id="Rectangle-path" d="m1 5h29v24h-29z" fill="#ecf0f1"/><path id="Rectangle-path" d="m30 5h29v24h-29z" fill="#d1d4d1"/><path id="Shape" d="m30 0v5h-29v-2.82c-.04521019-1.152631.84774936-2.12595691 2-2.18z" fill="#f0c419"/><path id="Shape" d="m59 2.18v2.82h-29v-5h27c1.1522506.05404309 2.0452102 1.027369 2 2.18z" fill="#f29c1f"/><rect id="Rectangle-path" fill="#3b97d3" height="4" rx="2" width="34" x="13" y="54"/><circle id="Oval" cx="45" cy="17" fill="#3b97d3" r="8"/><path id="Shape" d="m47.6 16.466c.5240535-.9257047.5172014-2.0600458-.017997-2.9793519-.5351984-.9193062-1.5182552-1.4853239-2.582003-1.4866481h-1.5c-.8284271 0-1.5.6715729-1.5 1.5v7c0 .8284271.6715729 1.5 1.5 1.5h2.5c1.6478483-.0215432 2.9784568-1.3521517 3-3-.0012747-1.0288501-.5296892-1.9852803-1.4-2.534zm-2.6-2.466c.5522847 0 1 .4477153 1 1-.0205331.5435526-.4564474.9794669-1 1h-1v-2zm1 6h-2v-2h2c.5522847 0 1 .4477153 1 1-.026603.5408824-.4591176.973397-1 1z" fill="#ecf0f1"/><circle id="Oval" cx="16" cy="17" fill="#e64c3c" r="8"/><g fill="#ecf0f1"><path id="Shape" d="m19.951 19.69-2.051-6.3c-.2612339-.829474-1.030362-1.3936155-1.9-1.3936155s-1.6387661.5641415-1.9 1.3936155l-2.052 6.3c-.1475676.5170805.1401931 1.0582834.65139 1.225095.511197.1668117 1.0627879-.1004975 1.24861-.605095l.428-1.31h3.247l.426 1.31c.1342121.4116142.5180576.6901141.951.69.1052514-.0001295.2098397-.0166612.31-.049.2522608-.0821602.4615341-.261196.5817542-.4976975.12022-.2365016.1415324-.5110828.0592458-.7633025zm-4.925-2.69.974-2.99.972 2.99z"/><rect id="Rectangle-path" height="4" rx="2" width="12" x="10" y="33"/><rect id="Rectangle-path" height="4" rx="2" width="12" x="39" y="33"/></g><path id="Shape" d="m59 42v3.82c.0452102 1.152631-.8477494 2.1259569-2 2.18h-54c-1.15225064-.0540431-2.04521019-1.027369-2-2.18v-3.82z" fill="#3b97d3"/></g></g></svg>