<svg height="512" viewBox="0 0 512 512" width="512" xmlns="http://www.w3.org/2000/svg"><g><g fill="#57a4ff"><path d="m496 76v28h-480v-28a19.994 19.994 0 0 1 20-20h440a19.994 19.994 0 0 1 20 20z"/><path d="m56 144h128v128h-128z"/><path d="m328 288h128v128h-128z"/><path d="m56 144h128v128h-128z"/><path d="m328 288h128v128h-128z"/></g><g fill="#004fac"><path d="m476 48h-440a28.031 28.031 0 0 0 -28 28v360a28.031 28.031 0 0 0 28 28h440a28.031 28.031 0 0 0 28-28v-360a28.031 28.031 0 0 0 -28-28zm12 388a12.01 12.01 0 0 1 -12 12h-440a12.01 12.01 0 0 1 -12-12v-324h464zm0-340h-464v-20a12.01 12.01 0 0 1 12-12h440a12.01 12.01 0 0 1 12 12z"/><path d="m40 88h8a8 8 0 0 0 0-16h-8a8 8 0 0 0 0 16z"/><path d="m72 88h8a8 8 0 0 0 0-16h-8a8 8 0 0 0 0 16z"/><path d="m104 88h8a8 8 0 0 0 0-16h-8a8 8 0 0 0 0 16z"/><path d="m184 136h-128a8 8 0 0 0 -8 8v128a8 8 0 0 0 8 8h128a8 8 0 0 0 8-8v-128a8 8 0 0 0 -8-8zm-8 128h-112v-112h112z"/><path d="m158.46 245.11-31-80a8 8 0 0 0 -7.42-5.11h-.04a8.006 8.006 0 0 0 -7.43 5.03l-32 80a8 8 0 0 0 14.86 5.94l10.79-26.97h26.9l10.42 26.89a8 8 0 1 0 14.92-5.78zm-45.84-37.11 7.26-18.16 7.04 18.16z"/><path d="m456 280h-128a8 8 0 0 0 -8 8v128a8 8 0 0 0 8 8h128a8 8 0 0 0 8-8v-128a8 8 0 0 0 -8-8zm-8 128h-112v-112h112z"/><path d="m406.58 336.12a23.736 23.736 0 0 0 1.42-8.12 24.032 24.032 0 0 0 -24-24h-24a8 8 0 0 0 -8 8v80a8 8 0 0 0 8 8h44a28.031 28.031 0 0 0 28-28v-8a28.043 28.043 0 0 0 -25.42-27.88zm-38.58-16.12h16a8 8 0 0 1 0 16h-16zm48 52a12.01 12.01 0 0 1 -12 12h-36v-32h36a12.01 12.01 0 0 1 12 12z"/><path d="m208 216h176v48a8 8 0 0 0 16 0v-56a8 8 0 0 0 -8-8h-184a8 8 0 0 0 0 16z"/><path d="m304 344h-176v-48a8 8 0 0 0 -16 0v56a8 8 0 0 0 8 8h184a8 8 0 0 0 0-16z"/></g></g></svg>