<svg enable-background="new 0 0 48 48" height="48" viewBox="0 0 48 48" width="48" xmlns="http://www.w3.org/2000/svg"><path d="m4 36v-24c0-2.2 1.8-4 4-4h32c2.2 0 4 1.8 4 4v24c0 2.2-1.8 4-4 4h-32c-2.2 0-4-1.8-4-4z" fill="#555"/><path d="m6 36v-24c0-1.1.9-2 2-2h32c1.1 0 2 .9 2 2v24c0 1.1-.9 2-2 2h-32c-1.1 0-2-.9-2-2z" fill="#fff"/><path d="m8 12h10v24h-10z" fill="#ffcc80"/><g fill="#555"><path d="m20 12h2v24h-2z"/><path d="m10 14h6v2h-6z"/><path d="m10 20h6v2h-6z"/><path d="m10 26h6v2h-6z"/><path d="m10 32h6v2h-6z"/><path d="m24 14h16v2h-16z"/><path d="m24 20h16v2h-16z"/><path d="m24 26h16v2h-16z"/><path d="m24 32h16v2h-16z"/></g></svg>