<svg enable-background="new 0 0 48 48" height="48" viewBox="0 0 48 48" width="48" xmlns="http://www.w3.org/2000/svg"><path d="m35 18.494-10-5.773c-.309-.179-.655-.268-1-.268s-.691.089-1 .268l-10 5.773c-.619.357-1 1.017-1 1.732v11.547c0 .715.381 1.375 1 1.732l10 5.773c.309.179.655.268 1 .268s.691-.089 1-.268l10-5.773c.619-.357 1-1.018 1-1.732v-11.547c0-.714-.381-1.374-1-1.732z" fill="#f57c00"/><path d="m24 15.608 7.5 4.33-7.5 4.33-7.5-4.33z" fill="#fff"/><path d="m15 22.536 7.5 4.33v8.66l-7.5-4.33z" fill="#fff"/><path d="m25.5 35.526v-8.66l7.5-4.33v8.66z" fill="#fff"/><g fill="#707070"><path d="m29 5.793c-1.518-.877-3.247-1.34-5-1.34s-3.482.463-5 1.34l-1.535.887 1.307 1.554 1.228-.709c1.215-.701 2.598-1.072 4-1.072s2.785.371 4 1.072l1.228.709 1.307-1.554z"/><path d="m27 9.257c-.911-.526-1.948-.804-3-.804s-2.089.278-3 .804l-.921.532 1.308 1.555.613-.355c.607-.351 1.299-.536 2-.536s1.393.185 2 .536l.613.354 1.308-1.555z"/><path d="m4 31.773c0 1.753.463 3.482 1.34 5 .876 1.518 2.142 2.784 3.66 3.66l1.535.886.692-1.91-1.227-.707c-1.215-.701-2.227-1.714-2.929-2.928-.7-1.215-1.071-2.598-1.071-4.001v-1.418l-2-.355z"/><path d="m8 31.773c0 1.052.278 2.089.804 3s1.285 1.67 2.196 2.196l.921.532.692-1.91-.613-.353c-.607-.351-1.114-.857-1.464-1.464-.351-.607-.536-1.299-.536-2v-.708l-2-.356z"/><path d="m39 40.434c1.518-.877 2.784-2.142 3.66-3.66s1.34-3.247 1.34-5v-1.774l-2 .355v1.418c0 1.402-.371 2.786-1.072 4-.701 1.215-1.713 2.227-2.928 2.929l-1.228.709.692 1.91z"/><path d="m37 36.97c.911-.526 1.67-1.285 2.196-2.196s.804-1.948.804-3v-1.063l-2 .355v.708c0 .701-.185 1.393-.536 2s-.857 1.113-1.464 1.464l-.613.354.692 1.91z"/></g></svg>