<svg enable-background="new 0 0 48 48" height="48" viewBox="0 0 48 48" width="48" xmlns="http://www.w3.org/2000/svg"><g fill="#4b4b68"><path d="m6 6h6v6h-6z"/><path d="m16 6h26v6h-26z"/><path d="m6 36h6v6h-6z"/><path d="m20.589 37.483 1.489-1.483h-6.078v6h4v-3.1c0-.532.212-1.042.589-1.417z"/><path d="m6 26h6v6h-6z"/><path d="m16 26v6h10.097l6.027-6z"/><path d="m42 32v-.072l-.072.072z"/><path d="m6 16h6v6h-6z"/><path d="m42 16h-26v6h20.142l5.858-5.831z"/></g><path d="m22 44v-5.1l1.3-1.3 5.1 5.1-1.3 1.3z" fill="#424242"/><path d="m38.4 22.5 2.5-2.5 5.1 5.1-2.5 2.5z" fill="#ef5350"/><path d="m24.5 36.4 12.7-12.7 5 5-12.6 12.7z" fill="#f57c00"/></svg>