<svg enable-background="new 0 0 48 48" height="48" viewBox="0 0 48 48" width="48" xmlns="http://www.w3.org/2000/svg"><path d="m39.828 17.19c-2.92-1.525-6.439-2.069-9.835-1.403-1.693.321-3.369.9-4.907 1.781-1.533.885-2.94 2.026-4.145 3.378-2.456 2.685-3.897 6.298-4.189 10.072-.26 3.78.792 7.717 3.025 10.982-2.625-2.952-4.284-6.868-4.525-10.981-.212-4.091.85-8.394 3.314-11.905 1.207-1.763 2.709-3.347 4.444-4.668 1.74-1.316 3.731-2.322 5.841-3.011 4.214-1.405 8.994-1.349 13.323.233l.081.03c1.561.57 2.364 2.298 1.794 3.859s-2.298 2.364-3.859 1.794c-.122-.046-.252-.104-.362-.161z" fill="#d32f2f"/><path d="m15.236 20.882c-.759-.728-1.236-1.747-1.236-2.882v-12h-8v12c0 4.282 3.368 7.769 7.598 7.98.332-1.778.881-3.495 1.638-5.098z" fill="#707070"/><g fill="#aaa"><path d="m28 22h-5.3c-.003.001-.006.002-.009.004-1.104 1.128-1.993 2.491-2.657 3.996h7.966c1.105 0 2-.895 2-2 0-1.105-.895-2-2-2z"/><path d="m37.893 22h-3.893c-1.105 0-2 .895-2 2 0 1.105.895 2 2 2h4c1.215 0 2.176-1.083 1.973-2.336-.16-.983-1.084-1.664-2.08-1.664z"/><path d="m36 42h-3c-.693 0-1.394-.074-2.082-.221-1.081-.229-1.771-1.291-1.541-2.371.229-1.08 1.293-1.776 2.371-1.541.416.088.838.133 1.252.133h3c1.104 0 2 .896 2 2s-.896 2-2 2z"/><path d="m26.363 38.464c-.643 0-1.273-.309-1.66-.882-1.114-1.652-1.703-3.582-1.703-5.582v-2c0-1.104.896-2 2-2s2 .896 2 2v2c0 1.199.353 2.356 1.02 3.346.617.916.376 2.159-.54 2.776-.343.232-.732.342-1.117.342z"/></g></svg>