<svg enable-background="new 0 0 48 48" height="48" viewBox="0 0 48 48" width="48" xmlns="http://www.w3.org/2000/svg"><path d="m32 26.4c-.6 0-1.1.5-1.1 1.1v4.5c0 .6.5 1.1 1.1 1.1h3.3c.6 0 1.1-.5 1.1-1.1s-.5-1.1-1.1-1.1h-2.2v-3.3c0-.7-.5-1.2-1.1-1.2z" fill="#d32f2f"/><path d="m32 22c-5.5 0-10 4.5-10 10h-2.8l4.4 4.4 4.4-4.4h-2.8c0-3.7 3-6.7 6.7-6.7s6.7 3 6.7 6.7-3 6.7-6.7 6.7c-1.8 0-3.5-.7-4.7-2l-2.4 2.4c3.9 3.9 10.2 3.9 14.1 0s3.9-10.2 0-14.1c-1.7-1.9-4.2-3-6.9-3z" fill="#d32f2f"/><circle cx="8" cy="7" fill="#00796b" r="2"/><path d="m12 6h26v2h-26z" fill="#78909c"/><circle cx="12" cy="13" fill="#00796b" r="2"/><path d="m16 12h18v2h-18z" fill="#78909c"/><circle cx="12" cy="25" fill="#00796b" r="2"/><path d="m16 24h6v2h-6z" fill="#78909c"/><circle cx="8" cy="19" fill="#00796b" r="2"/><path d="m12 18h28v2h-28z" fill="#78909c"/><circle cx="8" cy="31" fill="#00796b" r="2"/><path d="m12 30h6v2h-6z" fill="#78909c"/></svg>