<svg enable-background="new 0 0 48 48" height="48" viewBox="0 0 48 48" width="48" xmlns="http://www.w3.org/2000/svg"><g fill="#ccc"><circle cx="6" cy="33" r="2"/><path d="m23 35h2v4h-2z"/><path d="m23 9h2v4h-2z"/><path d="m5 25h8v-2h-8c-.552 0-1 .448-1 1s.448 1 1 1z"/><path d="m43 23h-8v2h8c.552 0 1-.448 1-1s-.448-1-1-1z"/><path d="m14.414 34h-3.414c-.552 0-1-.447-1-1s.448-1 1-1h2.586l.707-.707c.391-.391 1.023-.391 1.414 0s.391 1.023 0 1.414z"/><circle cx="6" cy="15" r="2"/><circle cx="12" cy="8" r="2"/><circle cx="18" cy="11" r="1"/><circle cx="9" cy="28" r="1"/><circle cx="39" cy="20" r="1"/><circle cx="17" cy="5" r="1"/><circle cx="31" cy="5" r="1"/><circle cx="30" cy="37" r="1"/><circle cx="17" cy="43" r="1"/><circle cx="31" cy="43" r="1"/><circle cx="36" cy="8" r="2"/><circle cx="12" cy="40" r="2"/><circle cx="36" cy="40" r="2"/><path d="m14.414 14h-3.414c-.552 0-1 .447-1 1s.448 1 1 1h2.586l.707.707c.391.391 1.023.391 1.414 0s.391-1.023 0-1.414z"/><circle cx="42" cy="15" r="2"/><path d="m33.586 14h3.414c.552 0 1 .447 1 1s-.448 1-1 1h-2.586l-.707.707c-.391.391-1.023.391-1.414 0s-.391-1.023 0-1.414z"/><circle cx="42" cy="33" r="2"/><path d="m33.586 34h3.414c.552 0 1-.447 1-1s-.448-1-1-1h-2.586l-.707-.707c-.391-.391-1.023-.391-1.414 0s-.391 1.023 0 1.414z"/><circle cx="24" cy="7" r="3"/><circle cx="24" cy="41" r="3"/><path d="m24 12c-6.627 0-12 5.373-12 12s5.373 12 12 12 12-5.373 12-12-5.373-12-12-12zm10 12c0 2.253-.754 4.326-2.012 5.998-.546-.007-.988-.45-.988-.998 0-.552-.448-1-1-1h-5c-.552 0-1-.448-1-1s-.448-1-1-1h-2c-.552 0-1-.448-1-1s.448-1 1-1h4c.552 0 1-.448 1-1s.448-1 1-1h2c.552 0 1-.448 1-1v-2c0-.552.448-1 1-1h.986c1.259 1.673 2.014 3.746 2.014 6zm-20 0h1c.552 0 1 .448 1 1s.448 1 1 1 1 .448 1 1v2c0 .552.448 1 1 1h2c.552 0 1 .448 1 1v2.799c-4.564-.927-8-4.961-8-9.799z"/></g></svg>