<svg enable-background="new 0 0 48 48" height="48" viewBox="0 0 48 48" width="48" xmlns="http://www.w3.org/2000/svg"><g fill="#455a64"><path d="m34 26h-4c-3.314 0-6 2.686-6 6v4c0 3.314 2.686 6 6 6h4c3.314 0 6-2.686 6-6v-4c0-3.314-2.686-6-6-6z"/><path d="m16 26h-2c-3.314 0-6 2.686-6 6v2c0 3.314 2.686 6 6 6h2c3.314 0 6-2.686 6-6v-2c0-3.314-2.686-6-6-6z"/><path d="m16 8h-4c-3.314 0-6 2.686-6 6v4c0 3.314 2.686 6 6 6h4c3.314 0 6-2.686 6-6v-4c0-3.314-2.686-6-6-6z"/></g><path d="m36 6h-6c-3.314 0-6 2.686-6 6v6c0 3.314 2.686 6 6 6h6c3.314 0 6-2.686 6-6v-6c0-3.314-2.686-6-6-6z" fill="#0097a7"/><path d="m12 20h4c1.103 0 2-.897 2-2v-4c0-1.103-.897-2-2-2h-4c-1.103 0-2 .897-2 2v4c0 1.103.897 2 2 2z" fill="#ddd"/><path d="m30 20h6c1.103 0 2-.897 2-2v-6c0-1.103-.897-2-2-2h-6c-1.103 0-2 .897-2 2v6c0 1.103.897 2 2 2z" fill="#26c6da"/><path d="m14 36h2c1.103 0 2-.897 2-2v-2c0-1.103-.897-2-2-2h-2c-1.103 0-2 .897-2 2v2c0 1.103.897 2 2 2z" fill="#f7f7f7"/><path d="m30 38h4c1.103 0 2-.897 2-2v-4c0-1.103-.897-2-2-2h-4c-1.103 0-2 .897-2 2v4c0 1.103.897 2 2 2z" fill="#aaa"/></svg>