<svg enable-background="new 0 0 48 48" height="48" viewBox="0 0 48 48" width="48" xmlns="http://www.w3.org/2000/svg"><path d="m38 40h-28c-3.314 0-6-2.686-6-6v-20c0-3.314 2.686-6 6-6h28c3.314 0 6 2.686 6 6v20c0 3.314-2.686 6-6 6z" fill="#455a64"/><path d="m10.286 36h27.429c1.262 0 2.285-.768 2.285-1.714v-20.572c0-.946-1.023-1.714-2.286-1.714h-27.428c-1.263 0-2.286.768-2.286 1.714v20.571c0 .947 1.023 1.715 2.286 1.715z" fill="#f7f7f7"/><path d="m12 16h4v2h-4z" fill="#303f9f"/><path d="m20 16h16v2h-16z" fill="#303f9f"/><path d="m12 22h4v2h-4z" fill="#1976d2"/><path d="m20 22h16v2h-16z" fill="#1976d2"/><g fill="#0097a7"><path d="m12 28h4v2h-4z"/><path d="m20 28h16v2h-16z"/></g></svg>