<svg enable-background="new 0 0 48 48" height="48" viewBox="0 0 48 48" width="48" xmlns="http://www.w3.org/2000/svg"><path d="m27.333 14h-6.667c-3.682 0-6.666 2.984-6.666 6.667v6.667c0 3.682 2.984 6.666 6.667 6.666h6.667c3.682 0 6.666-2.984 6.666-6.667v-6.667c0-3.682-2.984-6.666-6.667-6.666z" fill="#455a64"/><path d="m20.4 30h7.2c1.324 0 2.4-1.076 2.4-2.4v-7.2c0-1.324-1.076-2.4-2.4-2.4h-7.2c-1.324 0-2.4 1.076-2.4 2.4v7.2c0 1.324 1.076 2.4 2.4 2.4z" fill="#ddd"/><circle cx="24" cy="9" fill="#0097a7" r="3"/><circle cx="9" cy="9" fill="#303f9f" r="3"/><circle cx="39" cy="9" fill="#80cbc4" r="3"/><circle cx="24" cy="39" fill="#26c6da" r="3"/><circle cx="9" cy="39" fill="#00796b" r="3"/><circle cx="39" cy="39" fill="#5c6bc0" r="3"/><circle cx="9" cy="24" fill="#42a5f5" r="3"/><circle cx="39" cy="24" fill="#1976d2" r="3"/></svg>