<svg height="512" viewBox="0 0 128 128" width="512" xmlns="http://www.w3.org/2000/svg"><path d="m14.013 127h82.26a4.006 4.006 0 0 0 4.013-4v-108a4.006 4.006 0 0 0 -4.013-4h-82.26a4.006 4.006 0 0 0 -4.013 4v108a4.006 4.006 0 0 0 4.013 4z" fill="#bee6ff"/><path d="m96.775 11.05a3.976 3.976 0 0 0 -.5-.05h-74.718v104.834a5.2 5.2 0 0 0 5.21 5.193h70.008a5.183 5.183 0 0 0 3.511-1.379v-11.692h-3.511z" fill="#aad2ff"/><path d="m17.544 11v100.834a5.2 5.2 0 0 0 5.21 5.193h64.8a5.2 5.2 0 0 0 5.21-5.193v-100.834z" fill="#fffffa"/><path d="m37.086 13a5.008 5.008 0 0 0 5.014 5h30.1a4.989 4.989 0 0 0 4.592-7h-39.283a4.959 4.959 0 0 0 -.423 2z" fill="#f0f0e6"/><path d="m27.963 103.956v7.878a5.2 5.2 0 0 1 -5.21 5.193h68.824a5.2 5.2 0 0 0 5.21-5.193v-7.878z" fill="#f0f0e6"/><rect fill="#b4aaf0" height="10" rx="5" width="40.127" x="35.079" y="6"/><path d="m70.19 6h-5.015a5.008 5.008 0 0 0 -5.016-5h-10.032a5.008 5.008 0 0 0 -5.016 5h-5.011a5 5 0 1 0 0 10h30.1a5 5 0 1 0 0-10z" fill="#b4aaf0"/><path d="m37.086 14a5.008 5.008 0 0 1 5.014-5h5.016a5.008 5.008 0 0 1 5.016-5h10.033a4.992 4.992 0 0 1 2.885.92 5.009 5.009 0 0 0 -4.891-3.92h-10.032a5.008 5.008 0 0 0 -5.016 5h-5.011a4.99 4.99 0 0 0 -2.885 9.08 4.98 4.98 0 0 1 -.129-1.08z" fill="#c8beff"/><path d="m96.775 81.016a13.072 13.072 0 0 1 -4.013-.633v12.775h7.524v-12.632a13.074 13.074 0 0 1 -3.511.49z" fill="#aad2ff"/><path d="m92.762 55.617a12.942 12.942 0 0 1 7.524-.143v-12.632h-7.524z" fill="#aad2ff"/><path d="m83.718 68a13.021 13.021 0 0 1 9.044-12.383v-12.775h-.807v5.4a20.3 20.3 0 0 0 -5.786 2.392l-3.831-3.819-6.818 6.793 3.831 3.819a20.164 20.164 0 0 0 -2.4 5.768h-5.415v9.605h5.416a20.167 20.167 0 0 0 2.4 5.768l-3.832 3.824 6.816 6.795 3.831-3.819a20.3 20.3 0 0 0 5.786 2.392v5.4h.807v-12.777a13.021 13.021 0 0 1 -9.042-12.383z" fill="#f0f0e6"/><path d="m112.584 59.2a20.167 20.167 0 0 0 -2.4-5.768l3.831-3.819-6.815-6.8-3.831 3.819a20.3 20.3 0 0 0 -5.787-2.392v-5.4h-9.64v5.4a20.3 20.3 0 0 0 -5.787 2.392l-3.831-3.819-6.816 6.795 3.831 3.819a20.166 20.166 0 0 0 -2.4 5.768h-5.415v9.605h5.416a20.168 20.168 0 0 0 2.4 5.768l-3.831 3.819 6.816 6.795 3.831-3.819a20.3 20.3 0 0 0 5.787 2.392v5.4h9.64v-5.4a20.3 20.3 0 0 0 5.787-2.392l3.831 3.819 6.816-6.795-3.831-3.819a20.166 20.166 0 0 0 2.4-5.768h5.414v-9.6zm-19.822 17.816a13.016 13.016 0 1 1 13.057-13.016 13.036 13.036 0 0 1 -13.057 13.016z" fill="#e678a0"/><path d="m112.584 59.2a20.167 20.167 0 0 0 -2.4-5.768l3.831-3.819-6.815-6.8-3.831 3.819a20.3 20.3 0 0 0 -5.787-2.392v-5.4h-9.64v5.4a20.3 20.3 0 0 0 -5.787 2.392l-3.831-3.819-6.816 6.795 3.831 3.819a20.166 20.166 0 0 0 -2.4 5.768h-5.415v9.605h5.416a20.168 20.168 0 0 0 2.4 5.768l-3.831 3.819 6.816 6.795 3.831-3.819a20.3 20.3 0 0 0 5.787 2.392v5.4h9.64v-5.4a20.3 20.3 0 0 0 5.787-2.392l3.831 3.819 6.816-6.795-3.831-3.819a20.166 20.166 0 0 0 2.4-5.768h5.414v-9.6zm-19.822 17.816a13.016 13.016 0 1 1 13.057-13.016 13.036 13.036 0 0 1 -13.057 13.016z" fill="#e678a0"/><path d="m24.76 38.734a7.453 7.453 0 0 0 7.465 7.441h7.81a7.453 7.453 0 0 0 7.465-7.441v-7.785a7.453 7.453 0 0 0 -7.465-7.441h-7.81a7.453 7.453 0 0 0 -7.465 7.441z" fill="#f0f0e6"/><path d="m24.76 66.893a7.453 7.453 0 0 0 7.465 7.441h7.81a7.453 7.453 0 0 0 7.465-7.441v-7.786a7.453 7.453 0 0 0 -7.465-7.441h-7.81a7.453 7.453 0 0 0 -7.465 7.441z" fill="#f0f0e6"/><path d="m24.76 95.051a7.453 7.453 0 0 0 7.465 7.441h7.81a7.453 7.453 0 0 0 7.465-7.441v-7.785a7.453 7.453 0 0 0 -7.465-7.441h-7.81a7.453 7.453 0 0 0 -7.465 7.441z" fill="#f0f0e6"/><path d="m22.754 36.734a7.453 7.453 0 0 0 7.465 7.441h7.81a7.453 7.453 0 0 0 7.465-7.441v-7.785a7.453 7.453 0 0 0 -7.465-7.441h-7.81a7.453 7.453 0 0 0 -7.465 7.441z" fill="#f0dc78"/><path d="m26.249 33.469a.839.839 0 0 1 -.013-1.136l1.158-1.149a.707.707 0 0 1 .551-.259.805.805 0 0 1 .588.246l3.586 3.493 7.508-7.664a.805.805 0 0 1 .583-.259.707.707 0 0 1 .557.246l1.184 1.122a.839.839 0 0 1 .013 1.136l-9.229 9.383a.769.769 0 0 1 -1.139.013z" fill="#fff"/><path d="m22.754 64.893a7.453 7.453 0 0 0 7.465 7.441h7.81a7.453 7.453 0 0 0 7.465-7.441v-7.786a7.453 7.453 0 0 0 -7.465-7.441h-7.81a7.453 7.453 0 0 0 -7.465 7.441z" fill="#f0dc78"/><path d="m26.249 61.651a.839.839 0 0 1 -.013-1.136l1.158-1.149a.707.707 0 0 1 .551-.259.805.805 0 0 1 .588.246l3.586 3.493 7.508-7.66a.805.805 0 0 1 .583-.259.707.707 0 0 1 .557.246l1.184 1.127a.839.839 0 0 1 .013 1.136l-9.229 9.383a.769.769 0 0 1 -1.139.013z" fill="#fff"/><path d="m22.754 93.051a7.453 7.453 0 0 0 7.465 7.441h7.81a7.453 7.453 0 0 0 7.465-7.441v-7.785a7.453 7.453 0 0 0 -7.465-7.441h-7.81a7.453 7.453 0 0 0 -7.465 7.441z" fill="#f0dc78"/><path d="m26.249 89.809a.839.839 0 0 1 -.013-1.136l1.158-1.149a.707.707 0 0 1 .551-.259.805.805 0 0 1 .588.246l3.586 3.489 7.508-7.66a.805.805 0 0 1 .583-.259.707.707 0 0 1 .557.246l1.184 1.122a.839.839 0 0 1 .013 1.136l-9.229 9.383a.769.769 0 0 1 -1.139.013z" fill="#fff"/><g fill="#785ae6"><path d="m96.272 128h-82.259a5.012 5.012 0 0 1 -5.013-5v-108a5.012 5.012 0 0 1 5.013-5h21.066a1 1 0 0 1 1 1 4.012 4.012 0 0 0 4.021 4h30.1a4.012 4.012 0 0 0 4.016-4 1 1 0 0 1 1-1h21.056a5.012 5.012 0 0 1 5.013 5v30.108a1 1 0 0 1 -1.369.93 19.108 19.108 0 0 0 -2.569-.826 1 1 0 0 1 -.765-.972v-4.4h-7.641v4.4a1 1 0 0 1 -.765.972 19.34 19.34 0 0 0 -5.5 2.274 1 1 0 0 1 -1.226-.146l-3.125-3.115-5.4 5.383 3.121 3.111a1 1 0 0 1 .147 1.229 19.186 19.186 0 0 0 -2.281 5.483 1 1 0 0 1 -.972.764h-4.417v7.605h4.416a1 1 0 0 1 .972.764 19.186 19.186 0 0 0 2.281 5.483 1 1 0 0 1 -.147 1.229l-3.121 3.111 5.4 5.383 3.125-3.115a1 1 0 0 1 1.226-.146 19.34 19.34 0 0 0 5.5 2.274 1 1 0 0 1 .765.972v4.4h7.641v-4.4a1 1 0 0 1 .765-.972 19.108 19.108 0 0 0 2.569-.826 1 1 0 0 1 1.369.93v40.113a5.012 5.012 0 0 1 -5.012 5zm-82.259-116a3.01 3.01 0 0 0 -3.013 3v108a3.01 3.01 0 0 0 3.013 3h82.26a3.01 3.01 0 0 0 3.013-3v-38.685q-.353.114-.7.215v4.628a1 1 0 0 1 -1 1h-9.645a1 1 0 0 1 -1-1v-4.627a21.271 21.271 0 0 1 -4.625-1.912l-3.286 3.281a1 1 0 0 1 -1.412 0l-6.818-6.8a1 1 0 0 1 0-1.416l3.283-3.273a21.167 21.167 0 0 1 -1.914-4.611h-4.646a1 1 0 0 1 -1-1v-9.6a1 1 0 0 1 1-1h4.646a21.167 21.167 0 0 1 1.916-4.606l-3.285-3.279a1 1 0 0 1 0-1.416l6.818-6.799a1 1 0 0 1 1.412 0l3.286 3.276a21.271 21.271 0 0 1 4.625-1.912v-4.622a1 1 0 0 1 1-1h9.641a1 1 0 0 1 1 1v4.628q.35.1.7.215v-28.685a3.01 3.01 0 0 0 -3.013-3h-20.147a6.02 6.02 0 0 1 -5.932 5h-30.09a6.022 6.022 0 0 1 -5.933-5z"/><path d="m92.762 78.016a14.016 14.016 0 1 1 8.1-25.459 1 1 0 0 1 .424.817v21.252a1 1 0 0 1 -.424.817 13.983 13.983 0 0 1 -8.1 2.573zm0-26.031a12.016 12.016 0 1 0 6.523 22.11v-20.19a11.98 11.98 0 0 0 -6.523-1.921z"/><path d="m22.753 118.027a6.209 6.209 0 0 1 -6.209-6.193v-88.04a1 1 0 0 1 2 0v88.04a4.21 4.21 0 0 0 8.419 0v-7.878a1 1 0 0 1 1-1h9.888a1 1 0 0 1 0 2h-8.888v6.878a6.209 6.209 0 0 1 -6.21 6.193z"/><path d="m92.762 78.016a14.016 14.016 0 1 1 0-28.031 1 1 0 0 1 1 1v26.031a1 1 0 0 1 -1 1zm-1-25.99a12.013 12.013 0 0 0 0 23.949z"/><path d="m92.762 104.956h-44.839a1 1 0 0 1 0-2h43.839v-12.8h-3.82a1 1 0 0 1 -1-1v-4.625a21.271 21.271 0 0 1 -4.625-1.912l-3.287 3.281a1 1 0 0 1 -1.412 0l-6.818-6.8a1 1 0 0 1 0-1.416l3.283-3.273a21.167 21.167 0 0 1 -1.914-4.611h-4.646a1 1 0 0 1 -1-1v-9.6a1 1 0 0 1 1-1h4.646a21.167 21.167 0 0 1 1.916-4.606l-3.285-3.279a1 1 0 0 1 0-1.416l6.818-6.799a1 1 0 0 1 1.412 0l3.286 3.276a21.271 21.271 0 0 1 4.625-1.912v-4.622a1 1 0 0 1 1-1h3.82v-25.842h-15.639a6.02 6.02 0 0 1 -5.932 5h-30.09a6.022 6.022 0 0 1 -5.933-5h-15.623v4a1 1 0 0 1 -2 0v-5a1 1 0 0 1 1-1h17.535a1 1 0 0 1 1 1 4.012 4.012 0 0 0 4.021 4h30.1a4.012 4.012 0 0 0 4.016-4 1 1 0 0 1 1-1h17.546a1 1 0 0 1 1 1v27.842a1 1 0 0 1 -1 1h-3.82v4.4a1 1 0 0 1 -.765.972 19.34 19.34 0 0 0 -5.5 2.274 1 1 0 0 1 -1.226-.146l-3.125-3.115-5.4 5.383 3.121 3.111a1 1 0 0 1 .147 1.229 19.175 19.175 0 0 0 -2.281 5.483 1 1 0 0 1 -.972.764h-4.418v7.603h4.416a1 1 0 0 1 .972.764 19.175 19.175 0 0 0 2.281 5.483 1 1 0 0 1 -.147 1.229l-3.121 3.111 5.4 5.383 3.125-3.115a1 1 0 0 1 1.226-.146 19.34 19.34 0 0 0 5.5 2.274 1 1 0 0 1 .765.972v4.4h3.82a1 1 0 0 1 1 1v14.8a1 1 0 0 1 -.998 1.001z"/><path d="m97.582 90.158h-9.641a1 1 0 0 1 -1-1v-4.627a21.271 21.271 0 0 1 -4.625-1.912l-3.286 3.281a1 1 0 0 1 -1.412 0l-6.818-6.8a1 1 0 0 1 0-1.416l3.283-3.273a21.167 21.167 0 0 1 -1.914-4.611h-4.646a1 1 0 0 1 -1-1v-9.6a1 1 0 0 1 1-1h4.646a21.167 21.167 0 0 1 1.916-4.606l-3.285-3.279a1 1 0 0 1 0-1.416l6.818-6.799a1 1 0 0 1 1.412 0l3.286 3.276a21.271 21.271 0 0 1 4.625-1.912v-4.622a1 1 0 0 1 1-1h9.641a1 1 0 0 1 1 1v4.627a21.256 21.256 0 0 1 4.625 1.911l3.286-3.275a1 1 0 0 1 1.412 0l6.817 6.795a1 1 0 0 1 0 1.416l-3.284 3.273a21.127 21.127 0 0 1 1.916 4.606h4.646a1 1 0 0 1 1 1v9.605a1 1 0 0 1 -1 1h-4.646a21.127 21.127 0 0 1 -1.916 4.606l3.284 3.273a1 1 0 0 1 0 1.416l-6.817 6.805a1 1 0 0 1 -1.412 0l-3.286-3.275a21.256 21.256 0 0 1 -4.625 1.911v4.627a1 1 0 0 1 -1 .995zm-8.641-2h7.641v-4.4a1 1 0 0 1 .765-.972 19.293 19.293 0 0 0 5.5-2.274 1 1 0 0 1 1.226.146l3.125 3.115 5.4-5.383-3.121-3.111a1 1 0 0 1 -.146-1.23 19.192 19.192 0 0 0 2.28-5.482 1 1 0 0 1 .972-.764h4.417v-7.603h-4.416a1 1 0 0 1 -.972-.764 19.192 19.192 0 0 0 -2.28-5.482 1 1 0 0 1 .146-1.23l3.121-3.111-5.4-5.383-3.125 3.115a1 1 0 0 1 -1.226.146 19.293 19.293 0 0 0 -5.5-2.274 1 1 0 0 1 -.765-.972v-4.4h-7.642v4.4a1 1 0 0 1 -.765.972 19.34 19.34 0 0 0 -5.5 2.274 1 1 0 0 1 -1.226-.146l-3.125-3.115-5.4 5.383 3.121 3.111a1 1 0 0 1 .147 1.229 19.186 19.186 0 0 0 -2.281 5.483 1 1 0 0 1 -.972.764h-4.417v7.6h4.416a1 1 0 0 1 .972.764 19.186 19.186 0 0 0 2.281 5.483 1 1 0 0 1 -.147 1.229l-3.121 3.111 5.4 5.383 3.125-3.115a1 1 0 0 1 1.226-.146 19.34 19.34 0 0 0 5.5 2.274 1 1 0 0 1 .765.972zm3.82-10.143a14.016 14.016 0 1 1 14.057-14.015 14.052 14.052 0 0 1 -14.056 14.016zm0-26.031a12.016 12.016 0 1 0 12.057 12.016 12.05 12.05 0 0 0 -12.056-12.016z"/><path d="m91.577 118.027h-68.824a1 1 0 0 1 0-2 4.206 4.206 0 0 0 4.21-4.193v-7.878a1 1 0 0 1 1-1h9.888a1 1 0 0 1 0 2h-8.888v6.878a6.158 6.158 0 0 1 -1.644 4.193h64.258a4.205 4.205 0 0 0 4.209-4.193v-6.878h-47.863a1 1 0 0 1 0-2h48.863a1 1 0 0 1 1 1v7.878a6.208 6.208 0 0 1 -6.209 6.193z"/><path d="m70.19 17h-30.09a6 6 0 1 1 0-12h4.1a6.022 6.022 0 0 1 5.933-5h10.026a6.021 6.021 0 0 1 5.932 5h4.1a6 6 0 1 1 0 12zm-30.09-10a4 4 0 1 0 0 8h30.1a4 4 0 1 0 0-8h-5.025a1 1 0 0 1 -1-1 4.012 4.012 0 0 0 -4.016-4h-10.032a4.012 4.012 0 0 0 -4.016 4 1 1 0 0 1 -1 1z"/><path d="m38.029 45.176h-7.811a8.463 8.463 0 0 1 -8.465-8.441v-7.786a8.463 8.463 0 0 1 8.465-8.441h7.811a8.463 8.463 0 0 1 8.464 8.441v7.785a8.463 8.463 0 0 1 -8.464 8.442zm-7.811-22.668a6.46 6.46 0 0 0 -6.465 6.441v7.785a6.46 6.46 0 0 0 6.465 6.441h7.811a6.46 6.46 0 0 0 6.464-6.441v-7.785a6.46 6.46 0 0 0 -6.464-6.441z"/><path d="m32.164 39.892a1.734 1.734 0 0 1 -1.312-.577l-5.3-5.127a1.838 1.838 0 0 1 -.028-2.554l1.167-1.158a1.664 1.664 0 0 1 1.242-.549 1.782 1.782 0 0 1 1.3.532l2.87 2.794 6.81-6.953a1.769 1.769 0 0 1 2.6.017l1.13 1.067a1.837 1.837 0 0 1 .041 2.561l-9.232 9.385a1.691 1.691 0 0 1 -1.267.559zm-.17-1.93-.019.02zm-4.9-5.069 5.065 4.9 8.952-9.1-.9-.854-7.376 7.524a1 1 0 0 1 -1.412.017l-3.452-3.362zm1.062-1.059-.02.02a.152.152 0 0 0 .017-.02z"/><path d="m38.029 73.334h-7.811a8.463 8.463 0 0 1 -8.465-8.441v-7.786a8.463 8.463 0 0 1 8.465-8.441h7.811a8.463 8.463 0 0 1 8.464 8.441v7.785a8.463 8.463 0 0 1 -8.464 8.442zm-7.811-22.668a6.46 6.46 0 0 0 -6.465 6.441v7.785a6.46 6.46 0 0 0 6.465 6.441h7.811a6.46 6.46 0 0 0 6.464-6.441v-7.785a6.46 6.46 0 0 0 -6.464-6.441z"/><path d="m32.156 68.073a1.727 1.727 0 0 1 -1.306-.579l-5.3-5.125a1.838 1.838 0 0 1 -.031-2.552l1.169-1.159a1.766 1.766 0 0 1 2.541-.02l2.872 2.8 6.81-6.948a1.806 1.806 0 0 1 1.284-.559 1.846 1.846 0 0 1 1.314.578l1.128 1.064a1.836 1.836 0 0 1 .038 2.563l-9.229 9.384a1.692 1.692 0 0 1 -1.267.558zm-.163-1.928a.171.171 0 0 0 -.019.019zm-4.9-5.071 5.066 4.9 8.952-9.1-.9-.853-7.375 7.524a1 1 0 0 1 -1.412.017l-3.455-3.362zm1.063-1.06-.021.021a.21.21 0 0 0 .02-.02z"/><path d="m38.029 101.492h-7.811a8.463 8.463 0 0 1 -8.465-8.441v-7.785a8.463 8.463 0 0 1 8.465-8.441h7.811a8.463 8.463 0 0 1 8.464 8.441v7.785a8.463 8.463 0 0 1 -8.464 8.441zm-7.811-22.668a6.46 6.46 0 0 0 -6.465 6.441v7.785a6.46 6.46 0 0 0 6.465 6.441h7.811a6.46 6.46 0 0 0 6.464-6.441v-7.784a6.46 6.46 0 0 0 -6.464-6.441z"/><path d="m32.156 96.231a1.727 1.727 0 0 1 -1.306-.579l-5.3-5.124a1.838 1.838 0 0 1 -.028-2.554l1.167-1.158a1.662 1.662 0 0 1 1.247-.549 1.685 1.685 0 0 1 1.295.529l2.872 2.8 6.81-6.948a1.806 1.806 0 0 1 1.284-.559 1.771 1.771 0 0 1 1.314.578l1.128 1.064a1.836 1.836 0 0 1 .038 2.563l-9.229 9.384a1.692 1.692 0 0 1 -1.267.558zm-.162-1.931a.171.171 0 0 0 -.019.019zm-4.9-5.07 5.066 4.9 8.952-9.1-.9-.853-7.379 7.523a1 1 0 0 1 -1.412.017l-3.452-3.362zm1.063-1.059-.02.02z"/><path d="m87.552 27.842h-35.427a1 1 0 0 1 0-2h35.427a1 1 0 0 1 0 2z"/><path d="m81.532 33.842h-29.407a1 1 0 0 1 0-2h29.407a1 1 0 1 1 0 2z"/><path d="m65.324 39.842h-13.2a1 1 0 0 1 0-2h13.2a1 1 0 0 1 0 2z"/><path d="m81.532 96.158h-29.407a1 1 0 0 1 0-2h29.407a1 1 0 0 1 0 2z"/><path d="m73.052 90.158h-20.927a1 1 0 0 1 0-2h20.927a1 1 0 0 1 0 2z"/><path d="m67.523 84.158h-15.4a1 1 0 0 1 0-2h15.4a1 1 0 0 1 0 2z"/><path d="m60.867 56h-8.742a1 1 0 0 1 0-2h8.742a1 1 0 0 1 0 2z"/><path d="m60.867 62h-8.742a1 1 0 0 1 0-2h8.742a1 1 0 0 1 0 2z"/><path d="m60.867 68h-8.742a1 1 0 0 1 0-2h8.742a1 1 0 0 1 0 2z"/></g></svg>